<?xml version="1.0" encoding="UTF-8" standalone="no"?>
<!DOCTYPE svg PUBLIC "-//W3C//DTD SVG 1.1//EN"
 "http://www.w3.org/Graphics/SVG/1.1/DTD/svg11.dtd">
<!-- Generated by graphviz version 2.40.1 (20161225.0304)
 -->
<!-- Title: G Pages: 1 -->
<svg width="334pt" height="512pt"
 viewBox="0.00 0.00 334.46 512.00" xmlns="http://www.w3.org/2000/svg" xmlns:xlink="http://www.w3.org/1999/xlink">
<g id="graph0" class="graph" transform="scale(1 1) rotate(0) translate(4 508)">
<title>G</title>
<polygon fill="#ffffff" stroke="transparent" points="-4,4 -4,-508 330.464,-508 330.464,4 -4,4"/>
<!-- A0 -->
<g id="node1" class="node">
<title>A0</title>
<polygon fill="none" stroke="#000000" points="93.3989,-144 29.0651,-144 29.0651,-108 93.3989,-108 93.3989,-144"/>
<text text-anchor="middle" x="61.232" y="-123" font-family="Helvetica,sans-Serif" font-size="10.00" fill="#000000">Syscalls</text>
</g>
<!-- A1 -->
<g id="node2" class="node">
<title>A1</title>
<polygon fill="none" stroke="#000000" points="172.464,-472 172.464,-504 326.464,-504 326.464,-472 172.464,-472"/>
<text text-anchor="start" x="220.2985" y="-485" font-family="Helvetica,sans-Serif" font-size="10.00" fill="#000000">SyscallsImpl </text>
<polygon fill="none" stroke="#000000" points="172.464,-440 172.464,-472 326.464,-472 326.464,-440 172.464,-440"/>
<text text-anchor="start" x="212.512" y="-453" font-family="Helvetica,sans-Serif" font-size="10.00" fill="#000000"> VerifySignature </text>
<polygon fill="none" stroke="#000000" points="172.464,-408 172.464,-440 326.464,-440 326.464,-408 172.464,-408"/>
<text text-anchor="start" x="216.9545" y="-421" font-family="Helvetica,sans-Serif" font-size="10.00" fill="#000000"> HashBlake2b </text>
<polygon fill="none" stroke="#000000" points="172.464,-376 172.464,-408 326.464,-408 326.464,-376 172.464,-376"/>
<text text-anchor="start" x="182.231" y="-389" font-family="Helvetica,sans-Serif" font-size="10.00" fill="#000000"> ComputeUnsealedSectorCID </text>
<polygon fill="none" stroke="#000000" points="172.464,-344 172.464,-376 326.464,-376 326.464,-344 172.464,-344"/>
<text text-anchor="start" x="223.9045" y="-357" font-family="Helvetica,sans-Serif" font-size="10.00" fill="#000000"> VerifySeal </text>
<polygon fill="none" stroke="#000000" points="172.464,-312 172.464,-344 326.464,-344 326.464,-312 172.464,-312"/>
<text text-anchor="start" x="208.6215" y="-325" font-family="Helvetica,sans-Serif" font-size="10.00" fill="#000000"> BatchVerifySeals </text>
<polygon fill="none" stroke="#000000" points="172.464,-280 172.464,-312 326.464,-312 326.464,-280 172.464,-280"/>
<text text-anchor="start" x="198.339" y="-293" font-family="Helvetica,sans-Serif" font-size="10.00" fill="#000000"> VerifyAggregateSeals </text>
<polygon fill="none" stroke="#000000" points="172.464,-248 172.464,-280 326.464,-280 326.464,-248 172.464,-248"/>
<text text-anchor="start" x="223.0695" y="-261" font-family="Helvetica,sans-Serif" font-size="10.00" fill="#000000"> VerifyPoSt </text>
<polygon fill="none" stroke="#000000" points="172.464,-216 172.464,-248 326.464,-248 326.464,-216 172.464,-216"/>
<text text-anchor="start" x="199.1775" y="-229" font-family="Helvetica,sans-Serif" font-size="10.00" fill="#000000"> VerifyConsensusFault</text>
</g>
<!-- A0&#45;&gt;A1 -->
<g id="edge1" class="edge">
<title>A0&#45;&gt;A1</title>
<path fill="none" stroke="#000000" d="M103.0278,-140.3161C109.9641,-143.8066 116.7487,-148.0085 122.464,-153 142.9467,-170.8886 161.1701,-192.9035 176.9724,-215.8298"/>
<polygon fill="none" stroke="#000000" points="104.1114,-136.9632 93.5613,-135.9902 101.2019,-143.33 104.1114,-136.9632"/>
</g>
<!-- A2 -->
<g id="node3" class="node">
<title>A2</title>
<polygon fill="none" stroke="#000000" points="298.4331,-198 200.4949,-198 200.4949,-162 298.4331,-162 298.4331,-198"/>
<text text-anchor="middle" x="249.464" y="-177" font-family="Helvetica,sans-Serif" font-size="10.00" fill="#000000">context.Context</text>
</g>
<!-- A0&#45;&gt;A2 -->
<g id="edge2" class="edge">
<title>A0&#45;&gt;A2</title>
<path fill="none" stroke="#000000" d="M105.2554,-138.6294C133.828,-146.8263 171.0933,-157.517 200.5839,-165.9773"/>
<polygon fill="#000000" stroke="#000000" points="105.125,-138.5921 98.2545,-140.7824 93.5902,-135.2829 100.4607,-133.0926 105.125,-138.5921"/>
</g>
<!-- A3 -->
<g id="node4" class="node">
<title>A3</title>
<polygon fill="none" stroke="#000000" points="299.0841,-144 199.8439,-144 199.8439,-108 299.0841,-108 299.0841,-144"/>
<text text-anchor="middle" x="249.464" y="-123" font-family="Helvetica,sans-Serif" font-size="10.00" fill="#000000">gas.GasTracker</text>
</g>
<!-- A0&#45;&gt;A3 -->
<g id="edge3" class="edge">
<title>A0&#45;&gt;A3</title>
<path fill="none" stroke="#000000" d="M105.9294,-126C134.1778,-126 170.7178,-126 199.8602,-126"/>
<polygon fill="none" stroke="#000000" points="105.5902,-126.0001 99.5902,-130 93.5902,-126 99.5903,-122 105.5902,-126.0001"/>
</g>
<!-- A4 -->
<g id="node5" class="node">
<title>A4</title>
<polygon fill="none" stroke="#000000" points="290.3541,-90 208.5739,-90 208.5739,-54 290.3541,-54 290.3541,-90"/>
<text text-anchor="middle" x="249.464" y="-69" font-family="Helvetica,sans-Serif" font-size="10.00" fill="#000000">gas.Pricelist</text>
</g>
<!-- A0&#45;&gt;A4 -->
<g id="edge4" class="edge">
<title>A0&#45;&gt;A4</title>
<path fill="none" stroke="#000000" d="M105.3922,-113.3313C136.515,-104.4028 177.9006,-92.5301 208.3284,-83.801"/>
<polygon fill="none" stroke="#000000" points="105.125,-113.4079 100.4607,-118.9074 93.5902,-116.7171 98.2545,-111.2176 105.125,-113.4079"/>
</g>
<!-- A5 -->
<g id="node6" class="node">
<title>A5</title>
<polygon fill="none" stroke="#000000" points="304.1415,-36 194.7865,-36 194.7865,0 304.1415,0 304.1415,-36"/>
<text text-anchor="middle" x="249.464" y="-15" font-family="Helvetica,sans-Serif" font-size="10.00" fill="#000000">SyscallsStateView</text>
</g>
<!-- A0&#45;&gt;A5 -->
<g id="edge5" class="edge">
<title>A0&#45;&gt;A5</title>
<path fill="none" stroke="#000000" d="M91.6798,-100.0487C113.1771,-82.7018 143.2473,-60.3344 172.464,-45 179.4883,-41.3133 187.124,-37.9475 194.7676,-34.9387"/>
<polygon fill="none" stroke="#000000" points="91.4276,-100.2555 89.3246,-107.1531 82.1487,-107.8648 84.2517,-100.9672 91.4276,-100.2555"/>
</g>
<!-- A6 -->
<g id="node7" class="node">
<title>A6</title>
<polygon fill="none" stroke="#000000" points="113.4095,-198 9.0545,-198 9.0545,-162 113.4095,-162 113.4095,-198"/>
<text text-anchor="middle" x="61.232" y="-177" font-family="Helvetica,sans-Serif" font-size="10.00" fill="#000000">DefaultProcessor</text>
</g>
<!-- A7 -->
<g id="node8" class="node">
<title>A7</title>
<polygon fill="none" stroke="#000000" points="122.6969,-252 -.2329,-252 -.2329,-216 122.6969,-216 122.6969,-252"/>
<text text-anchor="middle" x="61.232" y="-231" font-family="Helvetica,sans-Serif" font-size="10.00" fill="#000000">vm.ActorCodeLoader</text>
</g>
<!-- A8 -->
<g id="node9" class="node">
<title>A8</title>
<polygon fill="none" stroke="#000000" points="110.8926,-306 11.5714,-306 11.5714,-270 110.8926,-270 110.8926,-306"/>
<text text-anchor="middle" x="61.232" y="-285" font-family="Helvetica,sans-Serif" font-size="10.00" fill="#000000">vm.SyscallsImpl</text>
</g>
<!-- A9 -->
<g id="node10" class="node">
<title>A9</title>
<polygon fill="none" stroke="#000000" points="103.3521,-360 19.1119,-360 19.1119,-324 103.3521,-324 103.3521,-360"/>
<text text-anchor="middle" x="61.232" y="-339" font-family="Helvetica,sans-Serif" font-size="10.00" fill="#000000">faultChecker</text>
</g>
<!-- A10 -->
<g id="node11" class="node">
<title>A10</title>
<polygon fill="none" stroke="#000000" points="114.5635,-414 7.9005,-414 7.9005,-378 114.5635,-378 114.5635,-414"/>
<text text-anchor="middle" x="61.232" y="-393" font-family="Helvetica,sans-Serif" font-size="10.00" fill="#000000">ffiwrapper.Verifier</text>
</g>
</g>
</svg>
