<?xml version="1.0" encoding="UTF-8" standalone="no"?>
<!DOCTYPE svg PUBLIC "-//W3C//DTD SVG 1.1//EN"
 "http://www.w3.org/Graphics/SVG/1.1/DTD/svg11.dtd">
<!-- Generated by graphviz version 2.40.1 (20161225.0304)
 -->
<!-- Title: G Pages: 1 -->
<svg width="1180pt" height="347pt"
 viewBox="0.00 0.00 1179.54 347.00" xmlns="http://www.w3.org/2000/svg" xmlns:xlink="http://www.w3.org/1999/xlink">
<g id="graph0" class="graph" transform="scale(1 1) rotate(0) translate(4 343)">
<title>G</title>
<polygon fill="#ffffff" stroke="transparent" points="-4,4 -4,-343 1175.5415,-343 1175.5415,4 -4,4"/>
<!-- A0 -->
<g id="node1" class="node">
<title>A0</title>
<polygon fill="#f5f5dc" stroke="#000000" points="322.4422,-339 .1858,-339 .1858,-303 328.4422,-303 328.4422,-333 322.4422,-339"/>
<polyline fill="none" stroke="#000000" points="322.4422,-339 322.4422,-333 "/>
<polyline fill="none" stroke="#000000" points="328.4422,-333 322.4422,-333 "/>
<text text-anchor="middle" x="164.314" y="-318" font-family="Helvetica,sans-Serif" font-size="10.00" fill="#000000">An informal use of event diagram to represent remote auth callchain</text>
</g>
<!-- A1 -->
<g id="node2" class="node">
<title>A1</title>
<path fill="none" stroke="#000000" d="M278.6647,-109C278.6647,-109 215.9633,-109 215.9633,-109 209.9633,-109 203.9633,-103 203.9633,-97 203.9633,-97 203.9633,-85 203.9633,-85 203.9633,-79 209.9633,-73 215.9633,-73 215.9633,-73 278.6647,-73 278.6647,-73 284.6647,-73 290.6647,-79 290.6647,-85 290.6647,-85 290.6647,-97 290.6647,-97 290.6647,-103 284.6647,-109 278.6647,-109"/>
<text text-anchor="middle" x="247.314" y="-88" font-family="Helvetica,sans-Serif" font-size="10.00" fill="#000000">Keystore.Get</text>
</g>
<!-- A2 -->
<g id="node3" class="node">
<title>A2</title>
<polygon fill="#f5f5dc" stroke="#000000" points="374.0891,-36 114.5389,-36 114.5389,0 380.0891,0 380.0891,-30 374.0891,-36"/>
<polyline fill="none" stroke="#000000" points="374.0891,-36 374.0891,-30 "/>
<polyline fill="none" stroke="#000000" points="380.0891,-30 374.0891,-30 "/>
<text text-anchor="middle" x="247.314" y="-15" font-family="Helvetica,sans-Serif" font-size="10.00" fill="#000000">Use jwtHmacSecret &#160;auth&#45;jwt&#45;private, jwt&#45;hmac&#45;secret</text>
</g>
<!-- A1&#45;&gt;A2 -->
<g id="edge1" class="edge">
<title>A1&#45;&gt;A2</title>
<path fill="none" stroke="#000000" stroke-dasharray="5,2" d="M247.314,-72.9551C247.314,-64.8828 247.314,-55.1764 247.314,-46.1817"/>
<polygon fill="#000000" stroke="#000000" points="247.314,-36.0904 251.8141,-46.0903 247.314,-41.0904 247.3141,-46.0904 247.3141,-46.0904 247.3141,-46.0904 247.314,-41.0904 242.8141,-46.0904 247.314,-36.0904 247.314,-36.0904"/>
</g>
<!-- A3 -->
<g id="node4" class="node">
<title>A3</title>
<path fill="none" stroke="#000000" d="M516.2662,-339C516.2662,-339 452.3618,-339 452.3618,-339 446.3618,-339 440.3618,-333 440.3618,-327 440.3618,-327 440.3618,-315 440.3618,-315 440.3618,-309 446.3618,-303 452.3618,-303 452.3618,-303 516.2662,-303 516.2662,-303 522.2662,-303 528.2662,-309 528.2662,-315 528.2662,-315 528.2662,-327 528.2662,-327 528.2662,-333 522.2662,-339 516.2662,-339"/>
<text text-anchor="middle" x="484.314" y="-318" font-family="Helvetica,sans-Serif" font-size="10.00" fill="#000000">NewAuthMux</text>
</g>
<!-- A4 -->
<g id="node5" class="node">
<title>A4</title>
<polygon fill="#f5f5dc" stroke="#000000" points="544.8927,-266 417.7353,-266 417.7353,-230 550.8927,-230 550.8927,-260 544.8927,-266"/>
<polyline fill="none" stroke="#000000" points="544.8927,-266 544.8927,-260 "/>
<polyline fill="none" stroke="#000000" points="550.8927,-260 544.8927,-260 "/>
<text text-anchor="middle" x="484.314" y="-245" font-family="Helvetica,sans-Serif" font-size="10.00" fill="#000000">pkg/jwtauth/local_jwt.go</text>
</g>
<!-- A3&#45;&gt;A4 -->
<g id="edge2" class="edge">
<title>A3&#45;&gt;A4</title>
<path fill="none" stroke="#000000" stroke-dasharray="5,2" d="M484.314,-302.9551C484.314,-294.8828 484.314,-285.1764 484.314,-276.1817"/>
<polygon fill="#000000" stroke="#000000" points="484.314,-266.0904 488.8141,-276.0903 484.314,-271.0904 484.3141,-276.0904 484.3141,-276.0904 484.3141,-276.0904 484.314,-271.0904 479.8141,-276.0904 484.314,-266.0904 484.314,-266.0904"/>
</g>
<!-- A5 -->
<g id="node6" class="node">
<title>A5</title>
<path fill="none" stroke="#000000" d="M749.2001,-339C749.2001,-339 681.4279,-339 681.4279,-339 675.4279,-339 669.4279,-333 669.4279,-327 669.4279,-327 669.4279,-315 669.4279,-315 669.4279,-309 675.4279,-303 681.4279,-303 681.4279,-303 749.2001,-303 749.2001,-303 755.2001,-303 761.2001,-309 761.2001,-315 761.2001,-315 761.2001,-327 761.2001,-327 761.2001,-333 755.2001,-339 749.2001,-339"/>
<text text-anchor="middle" x="715.314" y="-318" font-family="Helvetica,sans-Serif" font-size="10.00" fill="#000000">Verify/jwtclient</text>
</g>
<!-- A6 -->
<g id="node7" class="node">
<title>A6</title>
<polygon fill="#f5f5dc" stroke="#000000" points="761.353,-266 569.275,-266 569.275,-230 767.353,-230 767.353,-260 761.353,-266"/>
<polyline fill="none" stroke="#000000" points="761.353,-266 761.353,-260 "/>
<polyline fill="none" stroke="#000000" points="767.353,-260 761.353,-260 "/>
<text text-anchor="middle" x="668.314" y="-245" font-family="Helvetica,sans-Serif" font-size="10.00" fill="#000000">venus&#45;auth/cmd/jwtclient/auth_mux.go</text>
</g>
<!-- A5&#45;&gt;A6 -->
<g id="edge3" class="edge">
<title>A5&#45;&gt;A6</title>
<path fill="none" stroke="#000000" stroke-dasharray="5,2" d="M703.696,-302.9551C698.2164,-294.4441 691.5671,-284.1165 685.5185,-274.7219"/>
<polygon fill="#000000" stroke="#000000" points="679.9612,-266.0904 689.1583,-272.0624 682.6679,-270.2944 685.3747,-274.4984 685.3747,-274.4984 685.3747,-274.4984 682.6679,-270.2944 681.591,-276.9345 679.9612,-266.0904 679.9612,-266.0904"/>
</g>
<!-- A7 -->
<g id="node8" class="node">
<title>A7</title>
<path fill="none" stroke="#000000" d="M869.7101,-266C869.7101,-266 796.9179,-266 796.9179,-266 790.9179,-266 784.9179,-260 784.9179,-254 784.9179,-254 784.9179,-242 784.9179,-242 784.9179,-236 790.9179,-230 796.9179,-230 796.9179,-230 869.7101,-230 869.7101,-230 875.7101,-230 881.7101,-236 881.7101,-242 881.7101,-242 881.7101,-254 881.7101,-254 881.7101,-260 875.7101,-266 869.7101,-266"/>
<text text-anchor="middle" x="833.314" y="-245" font-family="Helvetica,sans-Serif" font-size="10.00" fill="#000000">Verify/jwtOAuth</text>
</g>
<!-- A5&#45;&gt;A7 -->
<g id="edge14" class="edge">
<title>A5&#45;&gt;A7</title>
<path fill="none" stroke="#000000" d="M744.4825,-302.9551C759.8,-293.479 778.7579,-281.7508 795.2213,-271.5658"/>
<polygon fill="#000000" stroke="#000000" points="804.072,-266.0904 797.9353,-275.1784 799.8199,-268.7209 795.5678,-271.3515 795.5678,-271.3515 795.5678,-271.3515 799.8199,-268.7209 793.2003,-267.5246 804.072,-266.0904 804.072,-266.0904"/>
</g>
<!-- A8 -->
<g id="node9" class="node">
<title>A8</title>
<polygon fill="#f5f5dc" stroke="#000000" points="805.261,-182 619.367,-182 619.367,-146 811.261,-146 811.261,-176 805.261,-182"/>
<polyline fill="none" stroke="#000000" points="805.261,-182 805.261,-176 "/>
<polyline fill="none" stroke="#000000" points="811.261,-176 805.261,-176 "/>
<text text-anchor="middle" x="715.314" y="-161" font-family="Helvetica,sans-Serif" font-size="10.00" fill="#000000">venus&#45;auth/auth/jwt.go &#160;get scret and</text>
</g>
<!-- A7&#45;&gt;A8 -->
<g id="edge4" class="edge">
<title>A7&#45;&gt;A8</title>
<path fill="none" stroke="#000000" stroke-dasharray="5,2" d="M808,-229.9799C790.8522,-217.773 767.9952,-201.5019 749.2704,-188.1724"/>
<polygon fill="#000000" stroke="#000000" points="740.9933,-182.2801 751.7496,-184.4135 745.0666,-185.1798 749.1399,-188.0795 749.1399,-188.0795 749.1399,-188.0795 745.0666,-185.1798 746.5302,-191.7455 740.9933,-182.2801 740.9933,-182.2801"/>
</g>
<!-- A9 -->
<g id="node10" class="node">
<title>A9</title>
<path fill="none" stroke="#000000" d="M885.3665,-182C885.3665,-182 841.2615,-182 841.2615,-182 835.2615,-182 829.2615,-176 829.2615,-170 829.2615,-170 829.2615,-158 829.2615,-158 829.2615,-152 835.2615,-146 841.2615,-146 841.2615,-146 885.3665,-146 885.3665,-146 891.3665,-146 897.3665,-152 897.3665,-158 897.3665,-158 897.3665,-170 897.3665,-170 897.3665,-176 891.3665,-182 885.3665,-182"/>
<text text-anchor="middle" x="863.314" y="-161" font-family="Helvetica,sans-Serif" font-size="10.00" fill="#000000">Verify/jwt</text>
</g>
<!-- A7&#45;&gt;A9 -->
<g id="edge15" class="edge">
<title>A7&#45;&gt;A9</title>
<path fill="none" stroke="#000000" d="M839.8236,-229.7733C843.7941,-218.6557 848.9482,-204.2244 853.4164,-191.7132"/>
<polygon fill="#000000" stroke="#000000" points="856.8172,-182.1912 857.6916,-193.1221 855.1354,-186.8999 853.4537,-191.6086 853.4537,-191.6086 853.4537,-191.6086 855.1354,-186.8999 849.2159,-190.0951 856.8172,-182.1912 856.8172,-182.1912"/>
</g>
<!-- A10 -->
<g id="node11" class="node">
<title>A10</title>
<polygon fill="none" stroke="#000000" points="932.6121,-109 788.0159,-109 788.0159,-73 938.6121,-73 938.6121,-103 932.6121,-109"/>
<polyline fill="none" stroke="#000000" points="932.6121,-109 932.6121,-103 "/>
<polyline fill="none" stroke="#000000" points="938.6121,-103 932.6121,-103 "/>
<text text-anchor="middle" x="863.314" y="-88" font-family="Helvetica,sans-Serif" font-size="10.00" fill="#000000">github.com/gbrlsnchs/jwt/v3</text>
</g>
<!-- A9&#45;&gt;A10 -->
<g id="edge5" class="edge">
<title>A9&#45;&gt;A10</title>
<path fill="none" stroke="#000000" stroke-dasharray="5,2" d="M863.314,-145.9551C863.314,-137.8828 863.314,-128.1764 863.314,-119.1817"/>
<polygon fill="#000000" stroke="#000000" points="863.314,-109.0904 867.8141,-119.0903 863.314,-114.0904 863.3141,-119.0904 863.3141,-119.0904 863.3141,-119.0904 863.314,-114.0904 858.8141,-119.0904 863.314,-109.0904 863.314,-109.0904"/>
</g>
<!-- A11 -->
<g id="node12" class="node">
<title>A11</title>
<ellipse fill="none" stroke="#000000" cx="357.314" cy="-321" rx="11" ry="11"/>
</g>
<!-- A12 -->
<g id="node13" class="node">
<title>A12</title>
<path fill="none" stroke="#000000" d="M386.8761,-266C386.8761,-266 327.7519,-266 327.7519,-266 321.7519,-266 315.7519,-260 315.7519,-254 315.7519,-254 315.7519,-242 315.7519,-242 315.7519,-236 321.7519,-230 327.7519,-230 327.7519,-230 386.8761,-230 386.8761,-230 392.8761,-230 398.8761,-236 398.8761,-242 398.8761,-242 398.8761,-254 398.8761,-254 398.8761,-260 392.8761,-266 386.8761,-266"/>
<text text-anchor="middle" x="357.314" y="-245" font-family="Helvetica,sans-Serif" font-size="10.00" fill="#000000">NewJwtAuth</text>
</g>
<!-- A11&#45;&gt;A12 -->
<g id="edge6" class="edge">
<title>A11&#45;&gt;A12</title>
<path fill="none" stroke="#000000" d="M357.314,-309.9129C357.314,-300.9959 357.314,-288.0618 357.314,-276.3187"/>
<polygon fill="#000000" stroke="#000000" points="357.314,-266.0186 361.8141,-276.0186 357.314,-271.0186 357.3141,-276.0186 357.3141,-276.0186 357.3141,-276.0186 357.314,-271.0186 352.8141,-276.0186 357.314,-266.0186 357.314,-266.0186"/>
</g>
<!-- A13 -->
<g id="node14" class="node">
<title>A13</title>
<path fill="none" stroke="#000000" d="M281.222,-182C281.222,-182 213.406,-182 213.406,-182 207.406,-182 201.406,-176 201.406,-170 201.406,-170 201.406,-158 201.406,-158 201.406,-152 207.406,-146 213.406,-146 213.406,-146 281.222,-146 281.222,-146 287.222,-146 293.222,-152 293.222,-158 293.222,-158 293.222,-170 293.222,-170 293.222,-176 287.222,-182 281.222,-182"/>
<text text-anchor="middle" x="247.314" y="-161" font-family="Helvetica,sans-Serif" font-size="10.00" fill="#000000">loadAPISecret</text>
</g>
<!-- A12&#45;&gt;A13 -->
<g id="edge7" class="edge">
<title>A12&#45;&gt;A13</title>
<path fill="none" stroke="#000000" d="M333.7162,-229.9799C317.875,-217.883 296.8071,-201.7947 279.441,-188.5333"/>
<polygon fill="#000000" stroke="#000000" points="271.2523,-182.2801 281.9311,-184.7729 275.2261,-185.3147 279.2,-188.3493 279.2,-188.3493 279.2,-188.3493 275.2261,-185.3147 276.4689,-191.9258 271.2523,-182.2801 271.2523,-182.2801"/>
</g>
<!-- A14 -->
<g id="node15" class="node">
<title>A14</title>
<path fill="none" stroke="#000000" d="M391.2111,-182C391.2111,-182 323.4169,-182 323.4169,-182 317.4169,-182 311.4169,-176 311.4169,-170 311.4169,-170 311.4169,-158 311.4169,-158 311.4169,-152 317.4169,-146 323.4169,-146 323.4169,-146 391.2111,-146 391.2111,-146 397.2111,-146 403.2111,-152 403.2111,-158 403.2111,-158 403.2111,-170 403.2111,-170 403.2111,-176 397.2111,-182 391.2111,-182"/>
<text text-anchor="middle" x="357.314" y="-161" font-family="Helvetica,sans-Serif" font-size="10.00" fill="#000000">IJwtAuthClient</text>
</g>
<!-- A12&#45;&gt;A14 -->
<g id="edge9" class="edge">
<title>A12&#45;&gt;A14</title>
<path fill="none" stroke="#000000" d="M357.314,-229.7733C357.314,-218.8758 357.314,-204.7946 357.314,-192.4587"/>
<polygon fill="#000000" stroke="#000000" points="357.314,-182.1912 361.8141,-192.1911 357.314,-187.1912 357.3141,-192.1912 357.3141,-192.1912 357.3141,-192.1912 357.314,-187.1912 352.8141,-192.1912 357.314,-182.1912 357.314,-182.1912"/>
</g>
<!-- A15 -->
<g id="node16" class="node">
<title>A15</title>
<path fill="none" stroke="#000000" d="M521.7609,-182C521.7609,-182 432.8671,-182 432.8671,-182 426.8671,-182 420.8671,-176 420.8671,-170 420.8671,-170 420.8671,-158 420.8671,-158 420.8671,-152 426.8671,-146 432.8671,-146 432.8671,-146 521.7609,-146 521.7609,-146 527.7609,-146 533.7609,-152 533.7609,-158 533.7609,-158 533.7609,-170 533.7609,-170 533.7609,-176 527.7609,-182 521.7609,-182"/>
<text text-anchor="middle" x="477.314" y="-161" font-family="Helvetica,sans-Serif" font-size="10.00" fill="#000000">jwt3.NewHS256(sk</text>
</g>
<!-- A12&#45;&gt;A15 -->
<g id="edge10" class="edge">
<title>A12&#45;&gt;A15</title>
<path fill="none" stroke="#000000" d="M383.057,-229.9799C400.4954,-217.773 423.7399,-201.5019 442.7821,-188.1724"/>
<polygon fill="#000000" stroke="#000000" points="451.1995,-182.2801 445.5878,-191.7014 447.1033,-185.1475 443.0072,-188.0148 443.0072,-188.0148 443.0072,-188.0148 447.1033,-185.1475 440.4266,-184.3283 451.1995,-182.2801 451.1995,-182.2801"/>
</g>
<!-- A13&#45;&gt;A1 -->
<g id="edge8" class="edge">
<title>A13&#45;&gt;A1</title>
<path fill="none" stroke="#000000" d="M247.314,-145.9551C247.314,-137.8828 247.314,-128.1764 247.314,-119.1817"/>
<polygon fill="#000000" stroke="#000000" points="247.314,-109.0904 251.8141,-119.0903 247.314,-114.0904 247.3141,-119.0904 247.3141,-119.0904 247.3141,-119.0904 247.314,-114.0904 242.8141,-119.0904 247.314,-109.0904 247.314,-109.0904"/>
</g>
<!-- A16 -->
<g id="node17" class="node">
<title>A16</title>
<path fill="none" stroke="#000000" d="M1018.6211,-339C1018.6211,-339 902.0069,-339 902.0069,-339 896.0069,-339 890.0069,-333 890.0069,-327 890.0069,-327 890.0069,-315 890.0069,-315 890.0069,-309 896.0069,-303 902.0069,-303 902.0069,-303 1018.6211,-303 1018.6211,-303 1024.6211,-303 1030.6211,-309 1030.6211,-315 1030.6211,-315 1030.6211,-327 1030.6211,-327 1030.6211,-333 1024.6211,-339 1018.6211,-339"/>
<text text-anchor="middle" x="960.314" y="-318" font-family="Helvetica,sans-Serif" font-size="10.00" fill="#000000">Header.Get Authorization</text>
</g>
<!-- A17 -->
<g id="node18" class="node">
<title>A17</title>
<polygon fill="none" stroke="#000000" points="960.314,-266 942.314,-248 960.314,-230 978.314,-248 960.314,-266"/>
</g>
<!-- A16&#45;&gt;A17 -->
<g id="edge11" class="edge">
<title>A16&#45;&gt;A17</title>
<path fill="none" stroke="#000000" d="M960.314,-302.9551C960.314,-294.8828 960.314,-285.1764 960.314,-276.1817"/>
<polygon fill="#000000" stroke="#000000" points="960.314,-266.0904 964.8141,-276.0903 960.314,-271.0904 960.3141,-276.0904 960.3141,-276.0904 960.3141,-276.0904 960.314,-271.0904 955.8141,-276.0904 960.314,-266.0904 960.314,-266.0904"/>
</g>
<!-- A19 -->
<g id="node20" class="node">
<title>A19</title>
<polygon fill="#d3d3d3" stroke="#000000" stroke-width="4" points="918.314,-162 918.314,-166 954.314,-166 954.314,-162 918.314,-162"/>
<text text-anchor="middle" x="935.953" y="-163.7" font-family="Helvetica,sans-Serif" font-size="1.00" fill="#000000"> </text>
</g>
<!-- A17&#45;&gt;A19 -->
<g id="edge12" class="edge">
<title>A17&#45;&gt;A19:n</title>
<path fill="none" stroke="#000000" d="M951.7215,-238.0663C946.3916,-231.2354 940.0173,-221.6802 937.077,-212 932.2486,-196.1037 934.7627,-189.1701 935.8752,-176.1614"/>
<polygon fill="#000000" stroke="#000000" points="936.314,-166 940.3783,-176.1849 936.0982,-170.9953 935.8825,-175.9907 935.8825,-175.9907 935.8825,-175.9907 936.0982,-170.9953 931.3866,-175.7965 936.314,-166 936.314,-166"/>
<text text-anchor="middle" x="969.9325" y="-203" font-family="Helvetica,sans-Serif" font-size="10.00" fill="#000000">[authMux.local]</text>
</g>
<!-- A20 -->
<g id="node21" class="node">
<title>A20</title>
<polygon fill="#d3d3d3" stroke="#000000" stroke-width="4" points="1008.314,-162 1008.314,-166 1044.314,-166 1044.314,-162 1008.314,-162"/>
<text text-anchor="middle" x="1025.953" y="-163.7" font-family="Helvetica,sans-Serif" font-size="1.00" fill="#000000"> </text>
</g>
<!-- A17&#45;&gt;A20 -->
<g id="edge13" class="edge">
<title>A17&#45;&gt;A20:n</title>
<path fill="none" stroke="#000000" d="M971.51,-241.1872C988.4277,-230.0346 1019.1836,-206.111 1025.2564,-176.3185"/>
<polygon fill="#000000" stroke="#000000" points="1026.314,-166 1029.7709,-176.4067 1025.8042,-170.9739 1025.2943,-175.9479 1025.2943,-175.9479 1025.2943,-175.9479 1025.8042,-170.9739 1020.8178,-175.489 1026.314,-166 1026.314,-166"/>
<text text-anchor="middle" x="1052.2115" y="-203" font-family="Helvetica,sans-Serif" font-size="10.00" fill="#000000">[authMux.remote]</text>
</g>
<!-- A18 -->
<g id="node19" class="node">
<title>A18</title>
<path fill="none" stroke="#000000" d="M1159.7698,-339C1159.7698,-339 1060.8582,-339 1060.8582,-339 1054.8582,-339 1048.8582,-333 1048.8582,-327 1048.8582,-327 1048.8582,-315 1048.8582,-315 1048.8582,-309 1054.8582,-303 1060.8582,-303 1060.8582,-303 1159.7698,-303 1159.7698,-303 1165.7698,-303 1171.7698,-309 1171.7698,-315 1171.7698,-315 1171.7698,-327 1171.7698,-327 1171.7698,-333 1165.7698,-339 1159.7698,-339"/>
<text text-anchor="middle" x="1110.314" y="-318" font-family="Helvetica,sans-Serif" font-size="10.00" fill="#000000">AuthMux.ServeHTTP</text>
</g>
</g>
</svg>
