<svg xmlns="http://www.w3.org/2000/svg" width="1524.25" height="810">
<defs><marker id="arrow-filled" refX="6" refY="3" markerWidth="6" markerHeight="6" orient="auto"><path d="M0,0 6,3 0,6z" style="stroke: none; fill: black;"></path></marker><marker id="arrow-open" refX="6" refY="3" markerWidth="6" markerHeight="6" orient="auto"><path d="M0,0 6,3 0,6" style="stroke-width: 1; fill: none; stroke: black;"></path></marker></defs><rect width="79.5" height="38" style="stroke-width: 1; fill: none; stroke: black;" x="10" y="20"></rect><g><text fill="black" font-family="Helvetica,sans-Serif" x="49.75" y="39" style="text-anchor: middle; alignment-baseline: central;">builder</text></g><rect width="79.5" height="38" style="stroke-width: 1; fill: none; stroke: black;" x="10" y="752"></rect><g><text fill="black" font-family="Helvetica,sans-Serif" x="49.75" y="771" style="text-anchor: middle; alignment-baseline: central;">builder</text></g><path d="M49.75,58 v694" style="stroke-width: 1; fill: none; stroke: black;"></path><rect width="54" height="38" style="stroke-width: 1; fill: none; stroke: black;" x="360.25" y="20"></rect><g><text fill="black" font-family="Helvetica,sans-Serif" x="387.25" y="39" style="text-anchor: middle; alignment-baseline: central;">Node</text></g><rect width="54" height="38" style="stroke-width: 1; fill: none; stroke: black;" x="360.25" y="752"></rect><g><text fill="black" font-family="Helvetica,sans-Serif" x="387.25" y="771" style="text-anchor: middle; alignment-baseline: central;">Node</text></g><path d="M387.25,58 v694" style="stroke-width: 1; fill: none; stroke: black;"></path><rect width="105" height="38" style="stroke-width: 1; fill: none; stroke: black;" x="638.25" y="20"></rect><g><text fill="black" font-family="Helvetica,sans-Serif" x="690.75" y="39" style="text-anchor: middle; alignment-baseline: central;">RestfulAPI</text></g><rect width="105" height="38" style="stroke-width: 1; fill: none; stroke: black;" x="638.25" y="752"></rect><g><text fill="black" font-family="Helvetica,sans-Serif" x="690.75" y="771" style="text-anchor: middle; alignment-baseline: central;">RestfulAPI</text></g><path d="M690.75,58 v694" style="stroke-width: 1; fill: none; stroke: black;"></path><rect width="130.5" height="38" style="stroke-width: 1; fill: none; stroke: black;" x="763.25" y="20"></rect><g><text fill="black" font-family="Helvetica,sans-Serif" x="828.5" y="39" style="text-anchor: middle; alignment-baseline: central;">runRestfulAPI</text></g><rect width="130.5" height="38" style="stroke-width: 1; fill: none; stroke: black;" x="763.25" y="752"></rect><g><text fill="black" font-family="Helvetica,sans-Serif" x="828.5" y="771" style="text-anchor: middle; alignment-baseline: central;">runRestfulAPI</text></g><path d="M828.5,58 v694" style="stroke-width: 1; fill: none; stroke: black;"></path><rect width="105" height="38" style="stroke-width: 1; fill: none; stroke: black;" x="936.5" y="20"></rect><g><text fill="black" font-family="Helvetica,sans-Serif" x="989" y="39" style="text-anchor: middle; alignment-baseline: central;">JsonrpcAPI</text></g><rect width="105" height="38" style="stroke-width: 1; fill: none; stroke: black;" x="936.5" y="752"></rect><g><text fill="black" font-family="Helvetica,sans-Serif" x="989" y="771" style="text-anchor: middle; alignment-baseline: central;">JsonrpcAPI</text></g><path d="M989,58 v694" style="stroke-width: 1; fill: none; stroke: black;"></path><rect width="79.5" height="38" style="stroke-width: 1; fill: none; stroke: black;" x="1160.75" y="20"></rect><g><text fill="black" font-family="Helvetica,sans-Serif" x="1200.5" y="39" style="text-anchor: middle; alignment-baseline: central;">jwtAuth</text></g><rect width="79.5" height="38" style="stroke-width: 1; fill: none; stroke: black;" x="1160.75" y="752"></rect><g><text fill="black" font-family="Helvetica,sans-Serif" x="1200.5" y="771" style="text-anchor: middle; alignment-baseline: central;">jwtAuth</text></g><path d="M1200.5,58 v694" style="stroke-width: 1; fill: none; stroke: black;"></path><g><text fill="black" font-family="Helvetica,sans-Serif" x="223.5" y="87" style="text-anchor: middle; alignment-baseline: central;">nd.remoteAuth=jwtauth.NewRemoteAuth</text></g><path d="M49.75,73 C89.75,73 89.75,106 49.75,106" style="stroke-width: 1; fill: none; stroke: black;" marker-end="url(#arrow-filled)"></path><g><text fill="black" font-family="Helvetica,sans-Serif" x="155.5" y="125" style="text-anchor: middle; alignment-baseline: central;">NewRateLimitHandler</text></g><path d="M49.75,111 C89.75,111 89.75,144 49.75,144" style="stroke-width: 1; fill: none; stroke: black;" marker-end="url(#arrow-filled)"></path><path d="M537.75,154 L537.75,161 L544.75,161 L537.75,154 L407.25,154 L407.25,182 L544.75,182 L544.75,161 Z" style="stroke-width: 1; fill: beige; stroke: black;"></path><g><text fill="black" font-family="Helvetica,sans-Serif" x="476" y="168" style="text-anchor: middle; alignment-baseline: central;">RunRPCAndWait .</text></g><g><text fill="black" font-family="Helvetica,sans-Serif" x="476" y="211" style="text-anchor: middle; alignment-baseline: central;">mux=NewServeMux</text></g><path d="M387.25,197 C427.25,197 427.25,230 387.25,230" style="stroke-width: 1; fill: none; stroke: black;" marker-end="url(#arrow-filled)"></path><g><text fill="black" font-family="Helvetica,sans-Serif" x="467.5" y="249" style="text-anchor: middle; alignment-baseline: central;">runRestfulAPI</text></g><path d="M387.25,235 C427.25,235 427.25,268 387.25,268" style="stroke-width: 1; fill: none; stroke: black;" marker-end="url(#arrow-filled)"></path><g><text fill="black" font-family="Helvetica,sans-Serif" x="539" y="283" style="text-anchor: middle; alignment-baseline: central;"></text></g><path d="M387.25,296 h303.5" style="stroke-width: 1; fill: none; stroke: black;" marker-end="url(#arrow-filled)"></path><path d="M962,316 L962,323 L969,323 L962,316 L848.5,316 L848.5,344 L969,344 L969,323 Z" style="stroke-width: 1; fill: beige; stroke: black;"></path><g><text fill="black" font-family="Helvetica,sans-Serif" x="908.75" y="330" style="text-anchor: middle; alignment-baseline: central;">serves "/api"</text></g><g><text fill="black" font-family="Helvetica,sans-Serif" x="467.5" y="373" style="text-anchor: middle; alignment-baseline: central;">runJsonrpcAPI</text></g><path d="M387.25,359 C427.25,359 427.25,392 387.25,392" style="stroke-width: 1; fill: none; stroke: black;" marker-end="url(#arrow-filled)"></path><g><text fill="black" font-family="Helvetica,sans-Serif" x="688.125" y="407" style="text-anchor: middle; alignment-baseline: central;"></text></g><path d="M387.25,420 h601.75" style="stroke-width: 1; fill: none; stroke: black;" marker-end="url(#arrow-filled)"></path><path d="M1173.5,440 L1173.5,447 L1180.5,447 L1173.5,440 L1009,440 L1009,486 L1180.5,486 L1180.5,447 Z" style="stroke-width: 1; fill: beige; stroke: black;"></path><g><text fill="black" font-family="Helvetica,sans-Serif" x="1094.75" y="454" style="text-anchor: middle; alignment-baseline: central;">serves</text><text fill="black" font-family="Helvetica,sans-Serif" x="1094.75" y="472" style="text-anchor: middle; alignment-baseline: central;">"/rpc/v0","/rpc/v1"</text></g><g><text fill="black" font-family="Helvetica,sans-Serif" x="544" y="515" style="text-anchor: middle; alignment-baseline: central;">localVerifer=jwtauth.NewJwtAuth</text></g><path d="M387.25,501 C427.25,501 427.25,534 387.25,534" style="stroke-width: 1; fill: none; stroke: black;" marker-end="url(#arrow-filled)"></path><g><text fill="black" font-family="Helvetica,sans-Serif" x="793.875" y="549" style="text-anchor: middle; alignment-baseline: central;">loadAPISecret</text></g><path d="M387.25,562 h813.25" style="stroke-width: 1; fill: none; stroke: black;" marker-end="url(#arrow-filled)"></path><path d="M1427.5,582 L1427.5,589 L1434.5,589 L1427.5,582 L1220.5,582 L1220.5,628 L1434.5,628 L1434.5,589 Z" style="stroke-width: 1; fill: beige; stroke: black;"></path><g><text fill="black" font-family="Helvetica,sans-Serif" x="1327.5" y="596" style="text-anchor: middle; alignment-baseline: central;">implementation</text><text fill="black" font-family="Helvetica,sans-Serif" x="1327.5" y="614" style="text-anchor: middle; alignment-baseline: central;">pkg/jwtauth/local_jwt.go</text></g><path d="M1393.5,648 L1393.5,655 L1400.5,655 L1393.5,648 L1220.5,648 L1220.5,694 L1400.5,694 L1400.5,655 Z" style="stroke-width: 1; fill: beige; stroke: black;"></path><g><text fill="black" font-family="Helvetica,sans-Serif" x="1310.5" y="662" style="text-anchor: middle; alignment-baseline: central;">Read existing key or</text><text fill="black" font-family="Helvetica,sans-Serif" x="1310.5" y="680" style="text-anchor: middle; alignment-baseline: central;">create a new one</text></g><g><text fill="black" font-family="Helvetica,sans-Serif" x="531.25" y="723" style="text-anchor: middle; alignment-baseline: central;">authMux=jwtclient.NewAuthMux</text></g><path d="M387.25,709 C427.25,709 427.25,742 387.25,742" style="stroke-width: 1; fill: none; stroke: black;" marker-end="url(#arrow-filled)"></path></svg>