<?xml version="1.0" encoding="UTF-8" standalone="no"?>
<!DOCTYPE svg PUBLIC "-//W3C//DTD SVG 1.1//EN"
 "http://www.w3.org/Graphics/SVG/1.1/DTD/svg11.dtd">
<!-- Generated by graphviz version 2.40.1 (20161225.0304)
 -->
<!-- Title: G Pages: 1 -->
<svg width="1033pt" height="1621pt"
 viewBox="0.00 0.00 1033.25 1621.00" xmlns="http://www.w3.org/2000/svg" xmlns:xlink="http://www.w3.org/1999/xlink">
<g id="graph0" class="graph" transform="scale(1 1) rotate(0) translate(4 1617)">
<title>G</title>
<polygon fill="#ffffff" stroke="transparent" points="-4,4 -4,-1617 1029.245,-1617 1029.245,4 -4,4"/>
<!-- A0 -->
<g id="node1" class="node">
<title>A0</title>
<polygon fill="#fff8dc" stroke="#000000" points="114.6927,-670 .1023,-670 .1023,-634 120.6927,-634 120.6927,-664 114.6927,-670"/>
<polyline fill="none" stroke="#000000" points="114.6927,-670 114.6927,-664 "/>
<polyline fill="none" stroke="#000000" points="120.6927,-664 114.6927,-664 "/>
<text text-anchor="middle" x="60.3975" y="-649" font-family="Helvetica,sans-Serif" font-size="10.00" fill="#000000">Venus class diagram</text>
</g>
<!-- A1 -->
<g id="node2" class="node">
<title>A1</title>
<polygon fill="none" stroke="#000000" points="105.6987,-724 15.0963,-724 15.0963,-688 105.6987,-688 105.6987,-724"/>
<text text-anchor="middle" x="60.3975" y="-703" font-family="Helvetica,sans-Serif" font-size="10.00" fill="#000000">venusdaemon</text>
</g>
<!-- A2 -->
<g id="node3" class="node">
<title>A2</title>
<polygon fill="none" stroke="#000000" points="224.795,-724 170.795,-724 170.795,-688 224.795,-688 224.795,-724"/>
<text text-anchor="middle" x="197.795" y="-703" font-family="Helvetica,sans-Serif" font-size="10.00" fill="#000000">Node</text>
</g>
<!-- A1&#45;&gt;A2 -->
<g id="edge1" class="edge">
<title>A1&#45;&gt;A2</title>
<path fill="none" stroke="#000000" d="M117.8501,-706C136.0945,-706 155.4267,-706 170.5098,-706"/>
<polygon fill="none" stroke="#000000" points="117.7674,-706.0001 111.7673,-710 105.7674,-706 111.7674,-702 117.7674,-706.0001"/>
</g>
<!-- A3 -->
<g id="node4" class="node">
<title>A3</title>
<polygon fill="none" stroke="#000000" points="410.5465,-1365 302.6285,-1365 302.6285,-1329 410.5465,-1329 410.5465,-1365"/>
<text text-anchor="middle" x="356.5875" y="-1344" font-family="Helvetica,sans-Serif" font-size="10.00" fill="#000000">ChainEpochClock</text>
</g>
<!-- A2&#45;&gt;A3 -->
<g id="edge2" class="edge">
<title>A2&#45;&gt;A3</title>
<path fill="none" stroke="#000000" d="M199.7058,-736.2713C207.3658,-853.6327 237.255,-1274.3628 274.795,-1320 282.0147,-1328.777 292.1565,-1334.7223 302.8491,-1338.7436"/>
<polygon fill="#000000" stroke="#000000" points="199.6928,-736.0678 195.3147,-730.3378 198.9201,-724.0927 203.2981,-729.8227 199.6928,-736.0678"/>
</g>
<!-- A4 -->
<g id="node5" class="node">
<title>A4</title>
<polygon fill="none" stroke="#000000" points="383.5875,-1311 329.5875,-1311 329.5875,-1275 383.5875,-1275 383.5875,-1311"/>
<text text-anchor="middle" x="356.5875" y="-1290" font-family="Helvetica,sans-Serif" font-size="10.00" fill="#000000">Repo</text>
</g>
<!-- A2&#45;&gt;A4 -->
<g id="edge3" class="edge">
<title>A2&#45;&gt;A4</title>
<path fill="none" stroke="#000000" d="M198.9529,-736.3089C203.2609,-836.3046 220.9865,-1154.1906 274.795,-1239 287.5572,-1259.1149 310.8226,-1273.3791 329.2865,-1282.1759"/>
<polygon fill="#000000" stroke="#000000" points="198.948,-736.1884 194.7033,-730.3589 198.4518,-724.1986 202.6965,-730.0281 198.948,-736.1884"/>
</g>
<!-- A5 -->
<g id="node6" class="node">
<title>A5</title>
<polygon fill="none" stroke="#000000" points="406.8767,-1230 306.2983,-1230 306.2983,-1194 406.8767,-1194 406.8767,-1230"/>
<text text-anchor="middle" x="356.5875" y="-1209" font-family="Helvetica,sans-Serif" font-size="10.00" fill="#000000">blockServiceAPI</text>
</g>
<!-- A2&#45;&gt;A5 -->
<g id="edge4" class="edge">
<title>A2&#45;&gt;A5</title>
<path fill="none" stroke="#000000" d="M198.8863,-736.4036C202.8195,-829.9127 219.1266,-1111.083 274.795,-1180 282.7476,-1189.8453 294.1413,-1196.6703 305.9088,-1201.3986"/>
<polygon fill="none" stroke="#000000" points="198.8801,-736.2462 194.6441,-730.4105 198.4016,-724.2558 202.6377,-730.0915 198.8801,-736.2462"/>
</g>
<!-- A6 -->
<g id="node7" class="node">
<title>A6</title>
<polygon fill="none" stroke="#000000" points="811.5022,-1370 686.0138,-1370 686.0138,-1334 811.5022,-1334 811.5022,-1370"/>
<text text-anchor="middle" x="748.758" y="-1349" font-family="Helvetica,sans-Serif" font-size="10.00" fill="#000000">BlockstoreSubmodule</text>
</g>
<!-- A2&#45;&gt;A6 -->
<g id="edge5" class="edge">
<title>A2&#45;&gt;A6</title>
<path fill="none" stroke="#000000" d="M200.0231,-736.267C205.1437,-785.677 221.7554,-884.3285 274.795,-946 343.8959,-1026.3467 389.7165,-1013.3213 488.38,-1052 548.4022,-1075.5303 583.6592,-1045.7517 627.522,-1093 699.2856,-1170.3027 608.7365,-1245.0357 677.522,-1325 680.4545,-1328.4091 683.8646,-1331.3889 687.5737,-1333.9933"/>
<polygon fill="none" stroke="#000000" points="200.0179,-736.2106 195.48,-730.6064 198.9078,-724.262 203.4457,-729.8663 200.0179,-736.2106"/>
</g>
<!-- A7 -->
<g id="node8" class="node">
<title>A7</title>
<polygon fill="none" stroke="#000000" points="424.941,-1138 288.234,-1138 288.234,-1102 424.941,-1102 424.941,-1138"/>
<text text-anchor="middle" x="356.5875" y="-1117" font-family="Helvetica,sans-Serif" font-size="10.00" fill="#000000">BlockServiceSubmodule</text>
</g>
<!-- A2&#45;&gt;A7 -->
<g id="edge6" class="edge">
<title>A2&#45;&gt;A7</title>
<path fill="none" stroke="#000000" d="M200.1842,-736.206C207.1172,-816.7646 229.6744,-1034.2553 274.795,-1088 279.403,-1093.4888 285.076,-1098.0408 291.2676,-1101.8149"/>
<polygon fill="none" stroke="#000000" points="200.1701,-736.0352 195.6842,-730.3893 199.1704,-724.0769 203.6564,-729.7229 200.1701,-736.0352"/>
</g>
<!-- A8 -->
<g id="node9" class="node">
<title>A8</title>
<polygon fill="none" stroke="#000000" points="806.4932,-360 691.0228,-360 691.0228,-324 806.4932,-324 806.4932,-360"/>
<text text-anchor="middle" x="748.758" y="-339" font-family="Helvetica,sans-Serif" font-size="10.00" fill="#000000">NetworkSubmodule</text>
</g>
<!-- A2&#45;&gt;A8 -->
<g id="edge7" class="edge">
<title>A2&#45;&gt;A8</title>
<path fill="none" stroke="#000000" d="M237.1162,-703.054C337.4058,-695.2244 596.9856,-672.8604 627.522,-649 676.0628,-611.0714 728.5825,-420.3124 744.1602,-360.1827"/>
<polygon fill="none" stroke="#000000" points="236.8435,-703.0749 231.1692,-707.525 224.8791,-703.9987 230.5534,-699.5487 236.8435,-703.0749"/>
</g>
<!-- A9 -->
<g id="node10" class="node">
<title>A9</title>
<polygon fill="none" stroke="#000000" points="810.2149,-1451 687.3011,-1451 687.3011,-1415 810.2149,-1415 810.2149,-1451"/>
<text text-anchor="middle" x="748.758" y="-1430" font-family="Helvetica,sans-Serif" font-size="10.00" fill="#000000">DiscoverySubmodule</text>
</g>
<!-- A2&#45;&gt;A9 -->
<g id="edge8" class="edge">
<title>A2&#45;&gt;A9</title>
<path fill="none" stroke="#000000" d="M198.5331,-736.4083C201.3976,-826.7667 214.84,-1090.8512 274.795,-1147 389.8811,-1254.7799 508.2498,-1081.8717 627.522,-1185 694.8758,-1243.2372 628.1907,-1304.875 677.522,-1379 687.2379,-1393.5991 702.2561,-1405.8312 716.0026,-1414.9415"/>
<polygon fill="none" stroke="#000000" points="198.5255,-736.1447 194.3528,-730.2635 198.1768,-724.1498 202.3494,-730.031 198.5255,-736.1447"/>
</g>
<!-- A10 -->
<g id="node11" class="node">
<title>A10</title>
<polygon fill="none" stroke="#000000" points="800.9445,-630 696.5715,-630 696.5715,-594 800.9445,-594 800.9445,-630"/>
<text text-anchor="middle" x="748.758" y="-609" font-family="Helvetica,sans-Serif" font-size="10.00" fill="#000000">ChainSubmodule</text>
</g>
<!-- A2&#45;&gt;A10 -->
<g id="edge9" class="edge">
<title>A2&#45;&gt;A10</title>
<path fill="none" stroke="#000000" d="M237.0301,-711.9258C314.8315,-721.9619 492.771,-736.2955 627.522,-682 654.7079,-671.046 652.3269,-653.9756 677.522,-639 683.434,-635.486 689.8834,-632.2856 696.408,-629.4163"/>
<polygon fill="none" stroke="#000000" points="236.8846,-711.9062 230.4037,-715.0683 224.9923,-710.3022 231.4731,-707.1401 236.8846,-711.9062"/>
</g>
<!-- A11 -->
<g id="node12" class="node">
<title>A11</title>
<polygon fill="none" stroke="#000000" points="612.6384,-1008 503.2636,-1008 503.2636,-972 612.6384,-972 612.6384,-1008"/>
<text text-anchor="middle" x="557.951" y="-987" font-family="Helvetica,sans-Serif" font-size="10.00" fill="#000000">SyncerSubmodule</text>
</g>
<!-- A2&#45;&gt;A11 -->
<g id="edge10" class="edge">
<title>A2&#45;&gt;A11</title>
<path fill="none" stroke="#000000" d="M202.1827,-735.9602C209.7595,-777.1615 229.1288,-851.0748 274.795,-894 338.3354,-953.7266 440.4241,-976.4058 503.1019,-984.9402"/>
<polygon fill="none" stroke="#000000" points="202.1698,-735.8836 197.2197,-730.6399 200.1562,-724.0537 205.1063,-729.2975 202.1698,-735.8836"/>
<text text-anchor="middle" x="211.5301" y="-737.5047" font-family="Helvetica,sans-Serif" font-size="10.00" fill="#000000">.</text>
</g>
<!-- A12 -->
<g id="node13" class="node">
<title>A12</title>
<polygon fill="none" stroke="#000000" points="401.8158,-885 311.3592,-885 311.3592,-849 401.8158,-849 401.8158,-885"/>
<text text-anchor="middle" x="356.5875" y="-864" font-family="Helvetica,sans-Serif" font-size="10.00" fill="#000000">MiningModule</text>
</g>
<!-- A2&#45;&gt;A12 -->
<g id="edge11" class="edge">
<title>A2&#45;&gt;A12</title>
<path fill="none" stroke="#000000" d="M224.2159,-732.7882C256.5718,-765.5939 310.5154,-820.2874 338.5025,-848.6635"/>
<polygon fill="none" stroke="#000000" points="224.1284,-732.6995 217.0672,-731.2365 215.7018,-724.1558 222.763,-725.6188 224.1284,-732.6995"/>
</g>
<!-- A13 -->
<g id="node14" class="node">
<title>A13</title>
<polygon fill="none" stroke="#000000" points="413.7106,-640 299.4644,-640 299.4644,-604 413.7106,-604 413.7106,-640"/>
<text text-anchor="middle" x="356.5875" y="-619" font-family="Helvetica,sans-Serif" font-size="10.00" fill="#000000">MultiSigSubmodule</text>
</g>
<!-- A2&#45;&gt;A13 -->
<g id="edge12" class="edge">
<title>A2&#45;&gt;A13</title>
<path fill="none" stroke="#000000" d="M231.5274,-680.853C244.6369,-671.7202 260.0319,-661.7507 274.795,-654 284.3805,-648.9676 294.9405,-644.2652 305.1971,-640.0968"/>
<polygon fill="none" stroke="#000000" points="231.3398,-680.9864 228.7674,-687.7231 221.5595,-687.9396 224.1319,-681.2029 231.3398,-680.9864"/>
</g>
<!-- A14 -->
<g id="node15" class="node">
<title>A14</title>
<polygon fill="none" stroke="#000000" points="438.173,-532 275.002,-532 275.002,-496 438.173,-496 438.173,-532"/>
<text text-anchor="middle" x="356.5875" y="-511" font-family="Helvetica,sans-Serif" font-size="10.00" fill="#000000">StorageNetworkingSubmodule</text>
</g>
<!-- A2&#45;&gt;A14 -->
<g id="edge13" class="edge">
<title>A2&#45;&gt;A14</title>
<path fill="none" stroke="#000000" d="M204.1382,-675.8685C213.4245,-639.0051 234.2111,-577.0646 274.795,-541 278.5955,-537.6227 282.8292,-534.6663 287.3141,-532.0784"/>
<polygon fill="none" stroke="#000000" points="204.0833,-676.1007 206.5939,-682.8607 201.3196,-687.7781 198.809,-681.0182 204.0833,-676.1007"/>
</g>
<!-- A15 -->
<g id="node16" class="node">
<title>A15</title>
<polygon fill="none" stroke="#000000" points="411.2136,-586 301.9614,-586 301.9614,-550 411.2136,-550 411.2136,-586"/>
<text text-anchor="middle" x="356.5875" y="-565" font-family="Helvetica,sans-Serif" font-size="10.00" fill="#000000">MarketSubmodule</text>
</g>
<!-- A2&#45;&gt;A15 -->
<g id="edge14" class="edge">
<title>A2&#45;&gt;A15</title>
<path fill="none" stroke="#000000" d="M211.2483,-676.8843C224.2146,-651.8369 246.0839,-616.4472 274.795,-595 282.8218,-589.004 292.2495,-584.2971 301.7952,-580.6153"/>
<polygon fill="none" stroke="#000000" points="211.1088,-677.165 212.0191,-684.3185 205.766,-687.91 204.8557,-680.7566 211.1088,-677.165"/>
</g>
<!-- A16 -->
<g id="node17" class="node">
<title>A16</title>
<polygon fill="none" stroke="#000000" points="409.9461,-478 303.2289,-478 303.2289,-442 409.9461,-442 409.9461,-478"/>
<text text-anchor="middle" x="356.5875" y="-457" font-family="Helvetica,sans-Serif" font-size="10.00" fill="#000000">PaychSubmodule</text>
</g>
<!-- A2&#45;&gt;A16 -->
<g id="edge15" class="edge">
<title>A2&#45;&gt;A16</title>
<path fill="none" stroke="#000000" d="M200.1018,-675.8889C205.2879,-629.0773 221.9346,-538.8521 274.795,-487 282.6947,-479.251 292.8617,-473.7259 303.3252,-469.7864"/>
<polygon fill="none" stroke="#000000" points="200.0978,-675.9307 203.4908,-682.2937 198.9223,-687.873 195.5293,-681.5101 200.0978,-675.9307"/>
</g>
<!-- A17 -->
<g id="node18" class="node">
<title>A17</title>
<polygon fill="none" stroke="#000000" points="395.6408,-424 317.5342,-424 317.5342,-388 395.6408,-388 395.6408,-424"/>
<text text-anchor="middle" x="356.5875" y="-403" font-family="Helvetica,sans-Serif" font-size="10.00" fill="#000000">RPCServer</text>
</g>
<!-- A2&#45;&gt;A17 -->
<g id="edge16" class="edge">
<title>A2&#45;&gt;A17</title>
<path fill="none" stroke="#000000" d="M202.6159,-676.0563C213.3656,-612.7592 241.03,-468.2819 274.795,-433 285.9612,-421.3321 302.2633,-414.7036 317.3804,-410.9391"/>
<polygon fill="none" stroke="#000000" points="202.6114,-676.0836 205.5706,-682.6596 200.6386,-687.9203 197.6794,-681.3444 202.6114,-676.0836"/>
</g>
<!-- A18 -->
<g id="node19" class="node">
<title>A18</title>
<polygon fill="none" stroke="#000000" points="389.3709,-370 323.8041,-370 323.8041,-334 389.3709,-334 389.3709,-370"/>
<text text-anchor="middle" x="356.5875" y="-349" font-family="Helvetica,sans-Serif" font-size="10.00" fill="#000000">Exporter</text>
</g>
<!-- A2&#45;&gt;A18 -->
<g id="edge17" class="edge">
<title>A2&#45;&gt;A18</title>
<path fill="none" stroke="#000000" d="M201.1441,-675.7372C209.7357,-603.3022 234.7403,-422.7258 274.795,-379 287.3201,-365.3269 306.9016,-358.5649 323.765,-355.2269"/>
<polygon fill="none" stroke="#000000" points="201.1107,-676.0261 204.3943,-682.4463 199.7309,-687.9465 196.4473,-681.5264 201.1107,-676.0261"/>
</g>
<!-- A19 -->
<g id="node20" class="node">
<title>A19</title>
<polygon fill="none" stroke="#000000" points="398.1586,-316 315.0164,-316 315.0164,-280 398.1586,-280 398.1586,-316"/>
<text text-anchor="middle" x="356.5875" y="-295" font-family="Helvetica,sans-Serif" font-size="10.00" fill="#000000">RemoteAuth</text>
</g>
<!-- A2&#45;&gt;A19 -->
<g id="edge18" class="edge">
<title>A2&#45;&gt;A19</title>
<path fill="none" stroke="#000000" d="M200.0404,-675.7389C206.6116,-595.0539 228.3415,-377.3612 274.795,-325 285.0168,-313.4783 300.2538,-306.8572 314.8157,-303.0584"/>
<polygon fill="none" stroke="#000000" points="200.0258,-675.9253 203.5417,-682.2213 199.0823,-687.8882 195.5664,-681.5922 200.0258,-675.9253"/>
</g>
<!-- A20 -->
<g id="node21" class="node">
<title>A20</title>
<polygon fill="none" stroke="#000000" points="586.3451,-1500 529.5569,-1500 529.5569,-1464 586.3451,-1464 586.3451,-1500"/>
<text text-anchor="middle" x="557.951" y="-1479" font-family="Helvetica,sans-Serif" font-size="10.00" fill="#000000">Config</text>
</g>
<!-- A4&#45;&gt;A20 -->
<g id="edge19" class="edge">
<title>A4&#45;&gt;A20</title>
<path fill="none" stroke="#000000" d="M395.7421,-1298.4988C410.6772,-1302.3473 426.8615,-1308.8874 438.38,-1320 484.4268,-1364.4243 443.489,-1409.408 488.38,-1455 499.3789,-1466.1707 515.5229,-1472.8135 529.491,-1476.7131"/>
<polygon fill="none" stroke="#000000" points="395.3451,-1298.4124 388.6311,-1301.0435 383.6201,-1295.8579 390.3341,-1293.2268 395.3451,-1298.4124"/>
</g>
<!-- A21 -->
<g id="node22" class="node">
<title>A21</title>
<polygon fill="none" stroke="#000000" points="591.9065,-1446 523.9955,-1446 523.9955,-1410 591.9065,-1410 591.9065,-1446"/>
<text text-anchor="middle" x="557.951" y="-1425" font-family="Helvetica,sans-Serif" font-size="10.00" fill="#000000">Keystore</text>
</g>
<!-- A4&#45;&gt;A21 -->
<g id="edge20" class="edge">
<title>A4&#45;&gt;A21</title>
<path fill="none" stroke="#000000" d="M395.6552,-1299.9805C410.1772,-1304.0176 426.093,-1310.2995 438.38,-1320 471.5852,-1346.2153 455.8589,-1373.9407 488.38,-1401 498.6381,-1409.5353 511.9039,-1415.5731 524.0964,-1419.7415"/>
<polygon fill="none" stroke="#000000" points="395.5483,-1299.9543 388.7673,-1302.4074 383.8947,-1297.0916 390.6758,-1294.6384 395.5483,-1299.9543"/>
</g>
<!-- A22 -->
<g id="node23" class="node">
<title>A22</title>
<polygon fill="none" stroke="#000000" points="618.7935,-1392 497.1085,-1392 497.1085,-1356 618.7935,-1356 618.7935,-1392"/>
<text text-anchor="middle" x="557.951" y="-1371" font-family="Helvetica,sans-Serif" font-size="10.00" fill="#000000">WalletDatastorestore</text>
</g>
<!-- A4&#45;&gt;A22 -->
<g id="edge21" class="edge">
<title>A4&#45;&gt;A22</title>
<path fill="none" stroke="#000000" d="M395.4844,-1304.2947C409.2334,-1308.6904 424.6788,-1314.094 438.38,-1320 461.5723,-1329.9971 465.452,-1336.4107 488.38,-1347 494.9668,-1350.0421 502.0009,-1353.0453 508.9715,-1355.881"/>
<polygon fill="none" stroke="#000000" points="395.3851,-1304.2639 388.4685,-1306.3039 383.9253,-1300.704 390.8418,-1298.664 395.3851,-1304.2639"/>
</g>
<!-- A23 -->
<g id="node24" class="node">
<title>A23</title>
<polygon fill="none" stroke="#000000" points="617.6344,-1338 498.2676,-1338 498.2676,-1302 617.6344,-1302 617.6344,-1338"/>
<text text-anchor="middle" x="557.951" y="-1317" font-family="Helvetica,sans-Serif" font-size="10.00" fill="#000000">ChainDatastorestore</text>
</g>
<!-- A4&#45;&gt;A23 -->
<g id="edge22" class="edge">
<title>A4&#45;&gt;A23</title>
<path fill="none" stroke="#000000" d="M395.8817,-1298.2688C424.993,-1302.1722 465.1786,-1307.5605 498.2506,-1311.995"/>
<polygon fill="none" stroke="#000000" points="395.6378,-1298.2362 389.1594,-1301.4033 383.7443,-1296.6413 390.2227,-1293.4742 395.6378,-1298.2362"/>
</g>
<!-- A24 -->
<g id="node25" class="node">
<title>A24</title>
<polygon fill="none" stroke="#000000" points="604.52,-1284 511.382,-1284 511.382,-1248 604.52,-1248 604.52,-1284"/>
<text text-anchor="middle" x="557.951" y="-1263" font-family="Helvetica,sans-Serif" font-size="10.00" fill="#000000">MetaDatastore</text>
</g>
<!-- A4&#45;&gt;A24 -->
<g id="edge23" class="edge">
<title>A4&#45;&gt;A24</title>
<path fill="none" stroke="#000000" d="M395.6515,-1287.7621C428.7047,-1283.3301 476.1539,-1276.9678 511.2164,-1272.2665"/>
<polygon fill="none" stroke="#000000" points="395.6378,-1287.7638 390.2227,-1292.5258 383.7443,-1289.3587 389.1594,-1284.5967 395.6378,-1287.7638"/>
</g>
<!-- A25 -->
<g id="node26" class="node">
<title>A25</title>
<polygon fill="none" stroke="#000000" points="607.5801,-1230 508.3219,-1230 508.3219,-1194 607.5801,-1194 607.5801,-1230"/>
<text text-anchor="middle" x="557.951" y="-1209" font-family="Helvetica,sans-Serif" font-size="10.00" fill="#000000">PaychDatastore</text>
</g>
<!-- A4&#45;&gt;A25 -->
<g id="edge24" class="edge">
<title>A4&#45;&gt;A25</title>
<path fill="none" stroke="#000000" d="M395.1394,-1276.9824C421.3749,-1266.1366 456.9114,-1251.552 488.38,-1239 495.7207,-1236.072 503.5133,-1233.0063 511.1255,-1230.0349"/>
<polygon fill="none" stroke="#000000" points="394.8752,-1277.0918 390.8615,-1283.0826 383.7877,-1281.6818 387.8014,-1275.691 394.8752,-1277.0918"/>
</g>
<!-- A26 -->
<g id="node27" class="node">
<title>A26</title>
<polygon fill="none" stroke="#000000" points="984.7932,-1343 910.4458,-1343 910.4458,-1307 984.7932,-1307 984.7932,-1343"/>
<text text-anchor="middle" x="947.6195" y="-1322" font-family="Helvetica,sans-Serif" font-size="10.00" fill="#000000">Blockstore</text>
</g>
<!-- A6&#45;&gt;A26 -->
<g id="edge25" class="edge">
<title>A6&#45;&gt;A26</title>
<path fill="none" stroke="#000000" d="M823.4311,-1341.8614C853.0267,-1337.8431 885.7476,-1333.4005 910.17,-1330.0846"/>
<polygon fill="none" stroke="#000000" points="823.297,-1341.8795 817.8897,-1346.6505 811.4061,-1343.4941 816.8133,-1338.7232 823.297,-1341.8795"/>
</g>
<!-- A27 -->
<g id="node28" class="node">
<title>A27</title>
<polygon fill="none" stroke="#000000" points="981.6305,-1289 913.6085,-1289 913.6085,-1253 981.6305,-1253 981.6305,-1289"/>
<text text-anchor="middle" x="947.6195" y="-1268" font-family="Helvetica,sans-Serif" font-size="10.00" fill="#000000">IpldStore</text>
</g>
<!-- A6&#45;&gt;A27 -->
<g id="edge26" class="edge">
<title>A6&#45;&gt;A27</title>
<path fill="none" stroke="#000000" d="M810.2709,-1329.2807C813.5774,-1327.8744 816.8364,-1326.4432 819.994,-1325 842.9637,-1314.5014 846.8818,-1308.1811 869.994,-1298 883.9658,-1291.8453 899.8191,-1286.1187 913.5402,-1281.5375"/>
<polygon fill="none" stroke="#000000" points="810.0223,-1329.3829 805.9953,-1335.3648 798.9247,-1333.9483 802.9517,-1327.9664 810.0223,-1329.3829"/>
</g>
<!-- A28 -->
<g id="node29" class="node">
<title>A28</title>
<polygon fill="none" stroke="#000000" points="600.7333,-1138 515.1687,-1138 515.1687,-1102 600.7333,-1102 600.7333,-1138"/>
<text text-anchor="middle" x="557.951" y="-1117" font-family="Helvetica,sans-Serif" font-size="10.00" fill="#000000">BlockService</text>
</g>
<!-- A7&#45;&gt;A28 -->
<g id="edge27" class="edge">
<title>A7&#45;&gt;A28</title>
<path fill="none" stroke="#000000" d="M437.0917,-1120C463.6808,-1120 492.2278,-1120 514.8978,-1120"/>
<polygon fill="none" stroke="#000000" points="437.041,-1120.0001 431.0409,-1124 425.041,-1120 431.041,-1116 437.041,-1120.0001"/>
</g>
<!-- A34 -->
<g id="node35" class="node">
<title>A34</title>
<polygon fill="none" stroke="#000000" points="974.6195,-306 920.6195,-306 920.6195,-270 974.6195,-270 974.6195,-306"/>
<text text-anchor="middle" x="947.6195" y="-285" font-family="Helvetica,sans-Serif" font-size="10.00" fill="#000000">Host</text>
</g>
<!-- A8&#45;&gt;A34 -->
<g id="edge33" class="edge">
<title>A8&#45;&gt;A34</title>
<path fill="none" stroke="#000000" d="M818.2392,-323.1327C853.4342,-313.5756 894.151,-302.5191 920.3617,-295.4017"/>
<polygon fill="#000000" stroke="#000000" points="818.1247,-323.1637 813.3827,-328.5963 806.5441,-326.3084 811.2862,-320.8758 818.1247,-323.1637"/>
</g>
<!-- A35 -->
<g id="node36" class="node">
<title>A35</title>
<polygon fill="none" stroke="#000000" points="979.0742,-252 916.1648,-252 916.1648,-216 979.0742,-216 979.0742,-252"/>
<text text-anchor="middle" x="947.6195" y="-231" font-family="Helvetica,sans-Serif" font-size="10.00" fill="#000000">Routing</text>
</g>
<!-- A8&#45;&gt;A35 -->
<g id="edge34" class="edge">
<title>A8&#45;&gt;A35</title>
<path fill="none" stroke="#000000" d="M814.7521,-318.3122C816.5459,-317.2473 818.2975,-316.1435 819.994,-315 847.1167,-296.7192 842.622,-278.9054 869.994,-261 883.9646,-251.8611 901.3795,-245.436 916.1721,-241.1531"/>
<polygon fill="#000000" stroke="#000000" points="814.695,-318.3426 811.2827,-324.6953 804.1063,-323.9888 807.5186,-317.6361 814.695,-318.3426"/>
</g>
<!-- A36 -->
<g id="node37" class="node">
<title>A36</title>
<polygon fill="none" stroke="#000000" points="979.1949,-198 916.0441,-198 916.0441,-162 979.1949,-162 979.1949,-198"/>
<text text-anchor="middle" x="947.6195" y="-177" font-family="Helvetica,sans-Serif" font-size="10.00" fill="#000000">PubSub</text>
</g>
<!-- A8&#45;&gt;A36 -->
<g id="edge35" class="edge">
<title>A8&#45;&gt;A36</title>
<path fill="none" stroke="#000000" d="M816.9177,-317.6804C817.975,-316.817 819.0019,-315.9238 819.994,-315 858.7052,-278.9546 830.7898,-242.5086 869.994,-207 882.6847,-195.5056 900.5342,-188.8546 915.9177,-185.0319"/>
<polygon fill="#000000" stroke="#000000" points="816.6021,-317.8964 813.9107,-324.5864 806.7001,-324.6751 809.3915,-317.9851 816.6021,-317.8964"/>
</g>
<!-- A37 -->
<g id="node38" class="node">
<title>A37</title>
<polygon fill="none" stroke="#000000" points="979.7844,-144 915.4546,-144 915.4546,-108 979.7844,-108 979.7844,-144"/>
<text text-anchor="middle" x="947.6195" y="-123" font-family="Helvetica,sans-Serif" font-size="10.00" fill="#000000">Network</text>
</g>
<!-- A8&#45;&gt;A37 -->
<g id="edge36" class="edge">
<title>A8&#45;&gt;A37</title>
<path fill="none" stroke="#000000" d="M816.5504,-318.3505C817.7487,-317.2822 818.8991,-316.166 819.994,-315 871.573,-260.0688 817.6631,-207.2153 869.994,-153 881.8853,-140.6805 899.6849,-133.9779 915.2409,-130.3333"/>
<polygon fill="none" stroke="#000000" points="816.2506,-318.5692 813.7595,-325.3364 806.5548,-325.6398 809.0458,-318.8725 816.2506,-318.5692"/>
</g>
<!-- A38 -->
<g id="node39" class="node">
<title>A38</title>
<polygon fill="none" stroke="#000000" points="997.8688,-468 897.3702,-468 897.3702,-432 997.8688,-432 997.8688,-468"/>
<text text-anchor="middle" x="947.6195" y="-447" font-family="Helvetica,sans-Serif" font-size="10.00" fill="#000000">GraphExchange</text>
</g>
<!-- A8&#45;&gt;A38 -->
<g id="edge37" class="edge">
<title>A8&#45;&gt;A38</title>
<path fill="none" stroke="#000000" d="M781.652,-367.3268C805.2816,-384.6663 838.4101,-407.2781 869.994,-423 878.5523,-427.2601 887.9479,-431.1398 897.1564,-434.5463"/>
<polygon fill="none" stroke="#000000" points="781.4501,-367.1766 774.2486,-366.8052 771.8216,-360.0147 779.0232,-360.3862 781.4501,-367.1766"/>
</g>
<!-- A39 -->
<g id="node40" class="node">
<title>A39</title>
<polygon fill="none" stroke="#000000" points="1015.4107,-90 879.8283,-90 879.8283,-54 1015.4107,-54 1015.4107,-90"/>
<text text-anchor="middle" x="947.6195" y="-69" font-family="Helvetica,sans-Serif" font-size="10.00" fill="#000000">blockstoreutil.Blockstore</text>
</g>
<!-- A8&#45;&gt;A39 -->
<g id="edge38" class="edge">
<title>A8&#45;&gt;A39</title>
<path fill="none" stroke="#000000" d="M816.1856,-318.9046C817.5243,-317.67 818.7976,-316.3696 819.994,-315 884.8197,-240.7878 804.152,-172.312 869.994,-99 873.0449,-95.603 876.546,-92.6333 880.337,-90.0373"/>
<polygon fill="none" stroke="#000000" points="816.1337,-318.9435 813.7281,-325.7415 806.5278,-326.1356 808.9333,-319.3376 816.1337,-318.9435"/>
</g>
<!-- A40 -->
<g id="node41" class="node">
<title>A40</title>
<polygon fill="none" stroke="#000000" points="990.4078,-36 904.8312,-36 904.8312,0 990.4078,0 990.4078,-36"/>
<text text-anchor="middle" x="947.6195" y="-15" font-family="Helvetica,sans-Serif" font-size="10.00" fill="#000000">net.IPeerMgr</text>
</g>
<!-- A8&#45;&gt;A40 -->
<g id="edge39" class="edge">
<title>A8&#45;&gt;A40</title>
<path fill="none" stroke="#000000" d="M816.1783,-319.0605C817.5256,-317.7797 818.8018,-316.4275 819.994,-315 898.2225,-221.3297 790.4823,-137.5836 869.994,-45 878.8255,-34.7166 891.7922,-28.3473 904.6088,-24.4031"/>
<polygon fill="none" stroke="#000000" points="815.9343,-319.2464 813.5861,-326.0645 806.3894,-326.5194 808.7375,-319.7013 815.9343,-319.2464"/>
</g>
<!-- A41 -->
<g id="node42" class="node">
<title>A41</title>
<polygon fill="none" stroke="#000000" points="1009.2012,-414 886.0378,-414 886.0378,-378 1009.2012,-378 1009.2012,-414"/>
<text text-anchor="middle" x="947.6195" y="-393" font-family="Helvetica,sans-Serif" font-size="10.00" fill="#000000">datatransfer.Manager</text>
</g>
<!-- A8&#45;&gt;A41 -->
<g id="edge40" class="edge">
<title>A8&#45;&gt;A41</title>
<path fill="none" stroke="#000000" d="M818.1845,-360.8525C840.2165,-366.8352 864.4171,-373.4067 885.8709,-379.2324"/>
<polygon fill="none" stroke="#000000" points="818.1247,-360.8363 811.2862,-363.1242 806.5441,-357.6916 813.3827,-355.4037 818.1247,-360.8363"/>
</g>
<!-- A42 -->
<g id="node43" class="node">
<title>A42</title>
<polygon fill="none" stroke="#000000" points="1021.6365,-360 873.6025,-360 873.6025,-324 1021.6365,-324 1021.6365,-360"/>
<text text-anchor="middle" x="947.6195" y="-339" font-family="Helvetica,sans-Serif" font-size="10.00" fill="#000000">dtnet.DataTransferNetwork</text>
</g>
<!-- A8&#45;&gt;A42 -->
<g id="edge41" class="edge">
<title>A8&#45;&gt;A42</title>
<path fill="none" stroke="#000000" d="M818.5679,-342C836.3,-342 855.4153,-342 873.3598,-342"/>
<polygon fill="none" stroke="#000000" points="818.5441,-342.0001 812.5441,-346 806.5441,-342 812.5441,-338 818.5441,-342.0001"/>
</g>
<!-- A29 -->
<g id="node30" class="node">
<title>A29</title>
<polygon fill="none" stroke="#000000" points="990.3588,-1559 904.8802,-1559 904.8802,-1523 990.3588,-1523 990.3588,-1559"/>
<text text-anchor="middle" x="947.6195" y="-1538" font-family="Helvetica,sans-Serif" font-size="10.00" fill="#000000">Bootstrapper</text>
</g>
<!-- A9&#45;&gt;A29 -->
<g id="edge28" class="edge">
<title>A9&#45;&gt;A29</title>
<path fill="none" stroke="#000000" d="M781.652,-1458.3268C805.2816,-1475.6663 838.4101,-1498.2781 869.994,-1514 880.9792,-1519.4682 893.3441,-1524.3096 904.922,-1528.3281"/>
<polygon fill="none" stroke="#000000" points="781.4501,-1458.1766 774.2486,-1457.8052 771.8216,-1451.0147 779.0232,-1451.3862 781.4501,-1458.1766"/>
</g>
<!-- A30 -->
<g id="node31" class="node">
<title>A30</title>
<polygon fill="none" stroke="#000000" points="989.1205,-1505 906.1185,-1505 906.1185,-1469 989.1205,-1469 989.1205,-1505"/>
<text text-anchor="middle" x="947.6195" y="-1484" font-family="Helvetica,sans-Serif" font-size="10.00" fill="#000000">PeerTracker</text>
</g>
<!-- A9&#45;&gt;A30 -->
<g id="edge29" class="edge">
<title>A9&#45;&gt;A30</title>
<path fill="none" stroke="#000000" d="M821.9753,-1452.8819C850.3174,-1460.578 881.7194,-1469.1051 906.0404,-1475.7094"/>
<polygon fill="none" stroke="#000000" points="821.6263,-1452.7871 814.7877,-1455.075 810.0457,-1449.6424 816.8842,-1447.3546 821.6263,-1452.7871"/>
</g>
<!-- A31 -->
<g id="node32" class="node">
<title>A31</title>
<polygon fill="none" stroke="#000000" points="999.1984,-1451 896.0406,-1451 896.0406,-1415 999.1984,-1415 999.1984,-1451"/>
<text text-anchor="middle" x="947.6195" y="-1430" font-family="Helvetica,sans-Serif" font-size="10.00" fill="#000000">exchange.Server</text>
</g>
<!-- A9&#45;&gt;A31 -->
<g id="edge30" class="edge">
<title>A9&#45;&gt;A31</title>
<path fill="none" stroke="#000000" d="M822.2271,-1433C846.704,-1433 873.438,-1433 895.9093,-1433"/>
<polygon fill="none" stroke="#000000" points="822.0457,-1433.0001 816.0456,-1437 810.0457,-1433 816.0457,-1429 822.0457,-1433.0001"/>
</g>
<!-- A32 -->
<g id="node33" class="node">
<title>A32</title>
<polygon fill="none" stroke="#000000" points="997.307,-1397 897.932,-1397 897.932,-1361 997.307,-1361 997.307,-1397"/>
<text text-anchor="middle" x="947.6195" y="-1376" font-family="Helvetica,sans-Serif" font-size="10.00" fill="#000000">exchange.Client</text>
</g>
<!-- A9&#45;&gt;A32 -->
<g id="edge31" class="edge">
<title>A9&#45;&gt;A32</title>
<path fill="none" stroke="#000000" d="M821.8488,-1413.1525C847.14,-1406.2848 874.8815,-1398.7517 897.8603,-1392.5119"/>
<polygon fill="none" stroke="#000000" points="821.6263,-1413.2129 816.8842,-1418.6454 810.0457,-1416.3576 814.7877,-1410.925 821.6263,-1413.2129"/>
</g>
<!-- A33 -->
<g id="node34" class="node">
<title>A33</title>
<polygon fill="none" stroke="#000000" points="995.3578,-1613 899.8812,-1613 899.8812,-1577 995.3578,-1577 995.3578,-1613"/>
<text text-anchor="middle" x="947.6195" y="-1592" font-family="Helvetica,sans-Serif" font-size="10.00" fill="#000000">GetTipSetFunc</text>
</g>
<!-- A9&#45;&gt;A33 -->
<g id="edge32" class="edge">
<title>A9&#45;&gt;A33</title>
<path fill="none" stroke="#000000" d="M767.5771,-1461.3606C789.0476,-1491.6897 826.8212,-1539.2869 869.994,-1568 879.0235,-1574.0053 889.5332,-1578.8246 899.8485,-1582.6328"/>
<polygon fill="none" stroke="#000000" points="767.5172,-1461.2743 760.8115,-1458.6222 760.6805,-1451.4122 767.3862,-1454.0643 767.5172,-1461.2743"/>
</g>
<!-- A43 -->
<g id="node44" class="node">
<title>A43</title>
<polygon fill="none" stroke="#000000" points="986.6907,-576 908.5483,-576 908.5483,-540 986.6907,-540 986.6907,-576"/>
<text text-anchor="middle" x="947.6195" y="-555" font-family="Helvetica,sans-Serif" font-size="10.00" fill="#000000">chain.Store</text>
</g>
<!-- A10&#45;&gt;A43 -->
<g id="edge42" class="edge">
<title>A10&#45;&gt;A43</title>
<path fill="none" stroke="#000000" d="M812.755,-594.6219C844.1852,-586.0871 881.0499,-576.0767 908.2863,-568.6808"/>
<polygon fill="none" stroke="#000000" points="812.5872,-594.6674 807.8451,-600.1 801.0065,-597.8121 805.7486,-592.3796 812.5872,-594.6674"/>
</g>
<!-- A44 -->
<g id="node45" class="node">
<title>A44</title>
<polygon fill="none" stroke="#000000" points="1007.2546,-522 887.9844,-522 887.9844,-486 1007.2546,-486 1007.2546,-522"/>
<text text-anchor="middle" x="947.6195" y="-501" font-family="Helvetica,sans-Serif" font-size="10.00" fill="#000000">chain.MessageStore</text>
</g>
<!-- A10&#45;&gt;A44 -->
<g id="edge43" class="edge">
<title>A10&#45;&gt;A44</title>
<path fill="none" stroke="#000000" d="M781.652,-586.6732C805.2816,-569.3337 838.4101,-546.7219 869.994,-531 876.3808,-527.8208 883.2339,-524.8535 890.1275,-522.1366"/>
<polygon fill="none" stroke="#000000" points="781.4501,-586.8234 779.0232,-593.6138 771.8216,-593.9853 774.2486,-587.1948 781.4501,-586.8234"/>
</g>
<!-- A45 -->
<g id="node46" class="node">
<title>A45</title>
<polygon fill="none" stroke="#000000" points="993.5176,-900 901.7214,-900 901.7214,-864 993.5176,-864 993.5176,-900"/>
<text text-anchor="middle" x="947.6195" y="-879" font-family="Helvetica,sans-Serif" font-size="10.00" fill="#000000">chain.Sampler</text>
</g>
<!-- A10&#45;&gt;A45 -->
<g id="edge44" class="edge">
<title>A10&#45;&gt;A45</title>
<path fill="none" stroke="#000000" d="M811.6418,-631.3261C814.6883,-633.6059 817.5074,-636.1534 819.994,-639 884.8197,-713.2122 804.152,-781.688 869.994,-855 878.2886,-864.2357 889.9108,-870.3123 901.6408,-874.3104"/>
<polygon fill="none" stroke="#000000" points="811.4765,-631.224 804.2697,-631.4743 801.2669,-624.9182 808.4736,-624.6679 811.4765,-631.224"/>
</g>
<!-- A46 -->
<g id="node47" class="node">
<title>A46</title>
<polygon fill="none" stroke="#000000" points="1025.3707,-846 869.8683,-846 869.8683,-810 1025.3707,-810 1025.3707,-846"/>
<text text-anchor="middle" x="947.6195" y="-825" font-family="Helvetica,sans-Serif" font-size="10.00" fill="#000000">consensus.DefaultProcessor</text>
</g>
<!-- A10&#45;&gt;A46 -->
<g id="edge45" class="edge">
<title>A10&#45;&gt;A46</title>
<path fill="none" stroke="#000000" d="M811.5612,-631.6554C814.6075,-633.8519 817.4506,-636.2913 819.994,-639 871.573,-693.9312 817.6631,-746.7847 869.994,-801 873.2641,-804.3879 876.981,-807.3509 880.9752,-809.9425"/>
<polygon fill="none" stroke="#000000" points="811.5305,-631.637 804.3266,-631.9599 801.2578,-625.4344 808.4617,-625.1114 811.5305,-631.637"/>
</g>
<!-- A47 -->
<g id="node48" class="node">
<title>A47</title>
<polygon fill="none" stroke="#000000" points="982.8419,-792 912.3971,-792 912.3971,-756 982.8419,-756 982.8419,-792"/>
<text text-anchor="middle" x="947.6195" y="-771" font-family="Helvetica,sans-Serif" font-size="10.00" fill="#000000">fork.IFork</text>
</g>
<!-- A10&#45;&gt;A47 -->
<g id="edge46" class="edge">
<title>A10&#45;&gt;A47</title>
<path fill="none" stroke="#000000" d="M811.6044,-632.384C814.5854,-634.3923 817.4078,-636.5919 819.994,-639 858.7052,-675.0454 830.7898,-711.4914 869.994,-747 881.7329,-757.6323 897.8858,-764.1205 912.418,-768.0594"/>
<polygon fill="#000000" stroke="#000000" points="811.3723,-632.2506 804.1769,-632.7264 800.9702,-626.2675 808.1656,-625.7917 811.3723,-632.2506"/>
</g>
<!-- A48 -->
<g id="node49" class="node">
<title>A48</title>
<polygon fill="none" stroke="#000000" points="997.2801,-1008 897.9589,-1008 897.9589,-972 997.2801,-972 997.2801,-1008"/>
<text text-anchor="middle" x="947.6195" y="-987" font-family="Helvetica,sans-Serif" font-size="10.00" fill="#000000">vm.SyscallsImpl</text>
</g>
<!-- A10&#45;&gt;A48 -->
<g id="edge47" class="edge">
<title>A10&#45;&gt;A48</title>
<path fill="none" stroke="#000000" d="M811.2913,-630.645C814.5098,-633.0945 817.455,-635.8654 819.994,-639 911.7036,-752.2218 776.7331,-851.0526 869.994,-963 877.209,-971.6606 887.3632,-977.5472 897.9556,-981.5472"/>
<polygon fill="#000000" stroke="#000000" points="811.1415,-630.552 803.934,-630.7832 800.9485,-624.2191 808.156,-623.9879 811.1415,-630.552"/>
</g>
<!-- A49 -->
<g id="node50" class="node">
<title>A49</title>
<polygon fill="none" stroke="#000000" points="984.7416,-630 910.4974,-630 910.4974,-594 984.7416,-594 984.7416,-630"/>
<text text-anchor="middle" x="947.6195" y="-609" font-family="Helvetica,sans-Serif" font-size="10.00" fill="#000000">TipSetKey</text>
</g>
<!-- A10&#45;&gt;A49 -->
<g id="edge48" class="edge">
<title>A10&#45;&gt;A49</title>
<path fill="none" stroke="#000000" d="M813.0439,-612C845.2615,-612 883.129,-612 910.4739,-612"/>
<polygon fill="#000000" stroke="#000000" points="813.0065,-612.0001 807.0065,-616 801.0065,-612 807.0066,-608 813.0065,-612.0001"/>
</g>
<!-- A50 -->
<g id="node51" class="node">
<title>A50</title>
<polygon fill="none" stroke="#000000" points="1000.3768,-1085 894.8622,-1085 894.8622,-1049 1000.3768,-1049 1000.3768,-1085"/>
<text text-anchor="middle" x="947.6195" y="-1064" font-family="Helvetica,sans-Serif" font-size="10.00" fill="#000000">beacon.Schedule</text>
</g>
<!-- A10&#45;&gt;A50 -->
<g id="edge49" class="edge">
<title>A10&#45;&gt;A50</title>
<path fill="none" stroke="#000000" d="M811.3704,-630.5816C814.5697,-633.0465 817.489,-635.8382 819.994,-639 925.2294,-771.8282 779.255,-873.8768 869.994,-1017 878.4916,-1030.4033 892.0258,-1040.9176 905.4304,-1048.7728"/>
<polygon fill="#000000" stroke="#000000" points="811.2351,-630.4968 804.0268,-630.6999 801.0669,-624.1243 808.2752,-623.9212 811.2351,-630.4968"/>
</g>
<!-- A51 -->
<g id="node52" class="node">
<title>A51</title>
<polygon fill="none" stroke="#000000" points="987.9098,-738 907.3292,-738 907.3292,-702 987.9098,-702 987.9098,-738"/>
<text text-anchor="middle" x="947.6195" y="-717" font-family="Helvetica,sans-Serif" font-size="10.00" fill="#000000">chainConfig</text>
</g>
<!-- A10&#45;&gt;A51 -->
<g id="edge50" class="edge">
<title>A10&#45;&gt;A51</title>
<path fill="none" stroke="#000000" d="M812.0369,-634.1228C814.7842,-635.6609 817.451,-637.286 819.994,-639 847.1167,-657.2808 842.622,-675.0946 869.994,-693 881.2183,-700.3424 894.6657,-705.933 907.1903,-710.0684"/>
<polygon fill="#000000" stroke="#000000" points="811.8451,-634.026 804.6861,-634.892 801.1333,-628.6169 808.2922,-627.7508 811.8451,-634.026"/>
</g>
<!-- A52 -->
<g id="node53" class="node">
<title>A52</title>
<polygon fill="none" stroke="#000000" points="989.1797,-684 906.0593,-684 906.0593,-648 989.1797,-648 989.1797,-684"/>
<text text-anchor="middle" x="947.6195" y="-663" font-family="Helvetica,sans-Serif" font-size="10.00" fill="#000000">chain.Waiter</text>
</g>
<!-- A10&#45;&gt;A52 -->
<g id="edge51" class="edge">
<title>A10&#45;&gt;A52</title>
<path fill="none" stroke="#000000" d="M812.8716,-629.4098C843.4263,-637.7068 879.0949,-647.3924 906.0565,-654.7137"/>
<polygon fill="none" stroke="#000000" points="812.5872,-629.3326 805.7486,-631.6204 801.0065,-626.1879 807.8451,-623.9 812.5872,-629.3326"/>
</g>
<!-- A11&#45;&gt;A6 -->
<g id="edge52" class="edge">
<title>A11&#45;&gt;A6</title>
<path fill="none" stroke="#000000" stroke-dasharray="5,2" d="M612.0895,-1008.1039C617.9694,-1011.9192 623.3293,-1016.5032 627.522,-1022 710.2981,-1130.5222 591.0617,-1219.3896 677.522,-1325 680.2868,-1328.3772 683.5225,-1331.3323 687.0618,-1333.9181"/>
</g>
<!-- A11&#45;&gt;A8 -->
<g id="edge54" class="edge">
<title>A11&#45;&gt;A8</title>
<path fill="none" stroke="#000000" stroke-dasharray="5,2" d="M612.8214,-975.5819C618.4263,-972.2272 623.5193,-968.0934 627.522,-963 679.8767,-896.3784 659.9967,-667.8995 677.522,-585 695.6171,-499.4056 728.6253,-400.0478 742.4271,-360.0459"/>
</g>
<!-- A11&#45;&gt;A9 -->
<g id="edge55" class="edge">
<title>A11&#45;&gt;A9</title>
<path fill="none" stroke="#000000" stroke-dasharray="5,2" d="M573.9111,-1008.3508C590.0549,-1027.9468 614.4397,-1060.5823 627.522,-1093 675.8123,-1212.6625 610.3368,-1268.831 677.522,-1379 686.491,-1393.7071 701.0748,-1405.8126 714.7181,-1414.8076"/>
</g>
<!-- A11&#45;&gt;A10 -->
<g id="edge53" class="edge">
<title>A11&#45;&gt;A10</title>
<path fill="none" stroke="#000000" stroke-dasharray="5,2" d="M612.715,-975.4973C618.3381,-972.1572 623.4645,-968.0499 627.522,-963 718.7833,-849.4165 585.8124,-752.2218 677.522,-639 682.6,-632.7308 689.3027,-627.9163 696.5675,-624.2191"/>
</g>
<!-- A11&#45;&gt;A50 -->
<g id="edge61" class="edge">
<title>A11&#45;&gt;A50</title>
<path fill="none" stroke="#000000" d="M614.2371,-1013.809C618.8447,-1016.3781 623.3342,-1019.1152 627.522,-1022 653.1453,-1039.6506 648.7164,-1059.2384 677.522,-1071 748.4008,-1099.9404 838.718,-1090.3439 894.8588,-1079.5913"/>
<polygon fill="#000000" stroke="#000000" points="613.9955,-1013.6829 606.8255,-1014.4515 603.3583,-1008.1286 610.5283,-1007.36 613.9955,-1013.6829"/>
</g>
<!-- A53 -->
<g id="node54" class="node">
<title>A53</title>
<polygon fill="none" stroke="#000000" points="792.778,-900 704.738,-900 704.738,-864 792.778,-864 792.778,-900"/>
<text text-anchor="middle" x="748.758" y="-879" font-family="Helvetica,sans-Serif" font-size="10.00" fill="#000000">pubsub.Topic</text>
</g>
<!-- A11&#45;&gt;A53 -->
<g id="edge56" class="edge">
<title>A11&#45;&gt;A53</title>
<path fill="none" stroke="#000000" stroke-dasharray="5,2" d="M612.0021,-971.8894C617.4241,-969.2372 622.7003,-966.2776 627.522,-963 654.5722,-944.6121 650.3993,-927.2808 677.522,-909 685.7475,-903.456 695.2676,-898.843 704.6177,-895.0913"/>
</g>
<!-- A54 -->
<g id="node55" class="node">
<title>A54</title>
<polygon fill="none" stroke="#000000" points="807.8427,-846 689.6733,-846 689.6733,-810 807.8427,-810 807.8427,-846"/>
<text text-anchor="middle" x="748.758" y="-825" font-family="Helvetica,sans-Serif" font-size="10.00" fill="#000000">pubsub.Subscription</text>
</g>
<!-- A11&#45;&gt;A54 -->
<g id="edge57" class="edge">
<title>A11&#45;&gt;A54</title>
<path fill="none" stroke="#000000" d="M623.2592,-966.6521C624.7391,-965.4911 626.164,-964.2745 627.522,-963 666.0904,-926.8018 638.8108,-891.0454 677.522,-855 681.1034,-851.6652 685.1376,-848.7304 689.419,-846.1496"/>
<polygon fill="#000000" stroke="#000000" points="622.8366,-966.9307 620.0288,-973.5727 612.8178,-973.5355 615.6256,-966.8935 622.8366,-966.9307"/>
</g>
<!-- A55 -->
<g id="node56" class="node">
<title>A55</title>
<polygon fill="none" stroke="#000000" points="805.282,-1262 692.234,-1262 692.234,-1226 805.282,-1226 805.282,-1262"/>
<text text-anchor="middle" x="748.758" y="-1241" font-family="Helvetica,sans-Serif" font-size="10.00" fill="#000000">nodeChainSelector</text>
</g>
<!-- A11&#45;&gt;A55 -->
<g id="edge58" class="edge">
<title>A11&#45;&gt;A55</title>
<path fill="none" stroke="#000000" d="M620.88,-1015.2715C623.2765,-1017.3493 625.5098,-1019.5883 627.522,-1022 684.8413,-1090.6982 617.8734,-1150.3143 677.522,-1217 681.6662,-1221.6332 686.6899,-1225.4751 692.1304,-1228.6603"/>
<polygon fill="#000000" stroke="#000000" points="620.6473,-1015.1019 613.4425,-1014.7997 610.9504,-1008.0328 618.1552,-1008.3351 620.6473,-1015.1019"/>
</g>
<!-- A56 -->
<g id="node57" class="node">
<title>A56</title>
<polygon fill="none" stroke="#000000" points="806.5053,-1208 691.0107,-1208 691.0107,-1172 806.5053,-1172 806.5053,-1208"/>
<text text-anchor="middle" x="748.758" y="-1187" font-family="Helvetica,sans-Serif" font-size="10.00" fill="#000000">consensus.Protocol</text>
</g>
<!-- A11&#45;&gt;A56 -->
<g id="edge59" class="edge">
<title>A11&#45;&gt;A56</title>
<path fill="none" stroke="#000000" d="M619.7901,-1014.8338C622.5657,-1017.0387 625.1682,-1019.4234 627.522,-1022 672.3669,-1071.0905 631.0149,-1115.4813 677.522,-1163 681.4074,-1166.9699 685.9353,-1170.364 690.7904,-1173.2642"/>
<polygon fill="#000000" stroke="#000000" points="619.7075,-1014.7774 612.4968,-1014.6979 609.7968,-1008.0113 617.0075,-1008.0908 619.7075,-1014.7774"/>
</g>
<!-- A57 -->
<g id="node58" class="node">
<title>A57</title>
<polygon fill="none" stroke="#000000" points="805.9454,-1154 691.5706,-1154 691.5706,-1118 805.9454,-1118 805.9454,-1154"/>
<text text-anchor="middle" x="748.758" y="-1133" font-family="Helvetica,sans-Serif" font-size="10.00" fill="#000000">chainsync.Manager</text>
</g>
<!-- A11&#45;&gt;A57 -->
<g id="edge60" class="edge">
<title>A11&#45;&gt;A57</title>
<path fill="none" stroke="#000000" d="M617.4191,-1014.2536C620.9916,-1016.6405 624.3981,-1019.2202 627.522,-1022 659.4103,-1050.3753 645.5076,-1075.767 677.522,-1104 683.6231,-1109.3805 690.7775,-1113.9967 698.1562,-1117.9113"/>
<polygon fill="none" stroke="#000000" points="617.3089,-1014.1877 610.1066,-1014.543 607.0085,-1008.0313 614.2109,-1007.676 617.3089,-1014.1877"/>
</g>
<!-- A58 -->
<g id="node59" class="node">
<title>A58</title>
<polygon fill="none" stroke="#000000" points="805.3248,-1062 692.1912,-1062 692.1912,-1026 805.3248,-1026 805.3248,-1062"/>
<text text-anchor="middle" x="748.758" y="-1041" font-family="Helvetica,sans-Serif" font-size="10.00" fill="#000000">ChainSyncProvider</text>
</g>
<!-- A11&#45;&gt;A58 -->
<g id="edge62" class="edge">
<title>A11&#45;&gt;A58</title>
<path fill="none" stroke="#000000" d="M624.4858,-1008.8299C646.4659,-1015.0505 670.703,-1021.9098 691.8916,-1027.9063"/>
<polygon fill="#000000" stroke="#000000" points="624.4308,-1008.8144 617.5683,-1011.0293 612.8843,-1005.5466 619.7468,-1003.3317 624.4308,-1008.8144"/>
</g>
<!-- A59 -->
<g id="node60" class="node">
<title>A59</title>
<polygon fill="none" stroke="#000000" points="810.257,-1008 687.259,-1008 687.259,-972 810.257,-972 810.257,-1008"/>
<text text-anchor="middle" x="748.758" y="-987" font-family="Helvetica,sans-Serif" font-size="10.00" fill="#000000">slashfilter.ISlashFilter</text>
</g>
<!-- A11&#45;&gt;A59 -->
<g id="edge63" class="edge">
<title>A11&#45;&gt;A59</title>
<path fill="none" stroke="#000000" d="M624.8885,-990C645.1462,-990 667.2888,-990 687.1784,-990"/>
<polygon fill="#000000" stroke="#000000" points="624.8843,-990.0001 618.8843,-994 612.8843,-990 618.8843,-986 624.8843,-990.0001"/>
</g>
<!-- A60 -->
<g id="node61" class="node">
<title>A60</title>
<polygon fill="none" stroke="#000000" points="820.2308,-1316 677.2852,-1316 677.2852,-1280 820.2308,-1280 820.2308,-1316"/>
<text text-anchor="middle" x="748.758" y="-1295" font-family="Helvetica,sans-Serif" font-size="10.00" fill="#000000">consensus.BlockValidator</text>
</g>
<!-- A11&#45;&gt;A60 -->
<g id="edge64" class="edge">
<title>A11&#45;&gt;A60</title>
<path fill="none" stroke="#000000" d="M621.1698,-1015.2597C623.4741,-1017.3389 625.6103,-1019.5817 627.522,-1022 697.5214,-1110.5495 604.5178,-1184.9109 677.522,-1271 680.3448,-1274.3288 683.6236,-1277.248 687.1939,-1279.808"/>
<polygon fill="none" stroke="#000000" points="621.1524,-1015.2466 613.9532,-1014.831 611.5679,-1008.0258 618.7671,-1008.4414 621.1524,-1015.2466"/>
</g>
<!-- A12&#45;&gt;A6 -->
<g id="edge67" class="edge">
<title>A12&#45;&gt;A6</title>
<path fill="none" stroke="#000000" stroke-dasharray="5,2" d="M367.6448,-885.1257C387.7624,-916.5957 433.3918,-981.3789 488.38,-1017 542.7042,-1052.191 584.4168,-1011.7147 627.522,-1060 707.3411,-1149.4111 600.5385,-1233.1361 677.522,-1325 680.3253,-1328.3452 683.5897,-1331.2767 687.1495,-1333.8454"/>
</g>
<!-- A12&#45;&gt;A8 -->
<g id="edge68" class="edge">
<title>A12&#45;&gt;A8</title>
<path fill="none" stroke="#000000" stroke-dasharray="5,2" d="M377.7967,-848.7332C403.267,-827.1624 447.6599,-790.7165 488.38,-763 547.5336,-722.7366 581.8047,-737.0475 627.522,-682 670.8638,-629.8127 727.6067,-422.7227 744.0853,-360.0584"/>
</g>
<!-- A12&#45;&gt;A10 -->
<g id="edge66" class="edge">
<title>A12&#45;&gt;A10</title>
<path fill="none" stroke="#000000" stroke-dasharray="5,2" d="M401.8105,-883.5595C460.6763,-901.9178 563.5624,-922.6438 627.522,-871 709.5881,-804.7363 608.7365,-718.9643 677.522,-639 682.697,-632.984 689.3593,-628.3048 696.5275,-624.6664"/>
</g>
<!-- A12&#45;&gt;A11 -->
<g id="edge69" class="edge">
<title>A12&#45;&gt;A11</title>
<path fill="none" stroke="#000000" stroke-dasharray="5,2" d="M377.8048,-885.152C402.9272,-905.9851 446.6426,-940.2057 488.38,-963 494.1791,-966.1671 500.4287,-969.1439 506.7193,-971.8805"/>
</g>
<!-- A61 -->
<g id="node62" class="node">
<title>A61</title>
<polygon fill="none" stroke="#000000" points="601.2897,-808 514.6123,-808 514.6123,-772 601.2897,-772 601.2897,-808"/>
<text text-anchor="middle" x="557.951" y="-787" font-family="Helvetica,sans-Serif" font-size="10.00" fill="#000000">miningConfig</text>
</g>
<!-- A12&#45;&gt;A61 -->
<g id="edge65" class="edge">
<title>A12&#45;&gt;A61</title>
<path fill="none" stroke="#000000" d="M413.251,-845.3323C445.3966,-833.04 484.9963,-817.8974 514.6385,-806.5624"/>
<polygon fill="#000000" stroke="#000000" points="412.9859,-845.4336 408.8103,-851.3128 401.7774,-849.7197 405.9529,-843.8405 412.9859,-845.4336"/>
</g>
<!-- A62 -->
<g id="node63" class="node">
<title>A62</title>
<polygon fill="none" stroke="#000000" points="611.2966,-954 504.6054,-954 504.6054,-918 611.2966,-918 611.2966,-954"/>
<text text-anchor="middle" x="557.951" y="-933" font-family="Helvetica,sans-Serif" font-size="10.00" fill="#000000">WalletSubmodule</text>
</g>
<!-- A12&#45;&gt;A62 -->
<g id="edge70" class="edge">
<title>A12&#45;&gt;A62</title>
<path fill="none" stroke="#000000" d="M413.3033,-886.4345C442.0898,-896.2986 476.8434,-908.2074 505.0698,-917.8795"/>
<polygon fill="#000000" stroke="#000000" points="413.1294,-886.3749 406.1567,-888.214 401.7774,-882.4849 408.7501,-880.6459 413.1294,-886.3749"/>
</g>
<!-- A63 -->
<g id="node64" class="node">
<title>A63</title>
<polygon fill="none" stroke="#000000" points="611.2825,-862 504.6195,-862 504.6195,-826 611.2825,-826 611.2825,-862"/>
<text text-anchor="middle" x="557.951" y="-841" font-family="Helvetica,sans-Serif" font-size="10.00" fill="#000000">ffiwrapper.Verifier</text>
</g>
<!-- A12&#45;&gt;A63 -->
<g id="edge71" class="edge">
<title>A12&#45;&gt;A63</title>
<path fill="none" stroke="#000000" d="M414.0242,-860.4395C442.5441,-857.1819 476.7797,-853.2715 504.7045,-850.0819"/>
<polygon fill="#000000" stroke="#000000" points="413.6999,-860.4765 408.1926,-865.1316 401.7774,-861.8384 407.2847,-857.1832 413.6999,-860.4765"/>
</g>
<!-- A68 -->
<g id="node69" class="node">
<title>A68</title>
<polygon fill="none" stroke="#000000" points="586.3451,-532 529.5569,-532 529.5569,-496 586.3451,-496 586.3451,-532"/>
<text text-anchor="middle" x="557.951" y="-511" font-family="Helvetica,sans-Serif" font-size="10.00" fill="#000000">IChain</text>
</g>
<!-- A13&#45;&gt;A68 -->
<g id="edge77" class="edge">
<title>A13&#45;&gt;A68</title>
<path fill="none" stroke="#000000" stroke-dasharray="5,2" d="M413.7349,-607.2864C422.3303,-603.9125 430.8327,-599.8518 438.38,-595 465.8934,-577.3127 461.3298,-559.3879 488.38,-541 500.8092,-532.551 516.2589,-526.2152 529.4398,-521.8123"/>
</g>
<!-- A69 -->
<g id="node70" class="node">
<title>A69</title>
<polygon fill="none" stroke="#000000" points="603.8017,-640 512.1003,-640 512.1003,-604 603.8017,-604 603.8017,-640"/>
<text text-anchor="middle" x="557.951" y="-619" font-family="Helvetica,sans-Serif" font-size="10.00" fill="#000000">IMessagePool</text>
</g>
<!-- A13&#45;&gt;A69 -->
<g id="edge78" class="edge">
<title>A13&#45;&gt;A69</title>
<path fill="none" stroke="#000000" stroke-dasharray="5,2" d="M413.7516,-622C444.9128,-622 482.9609,-622 512.1483,-622"/>
</g>
<!-- A70 -->
<g id="node71" class="node">
<title>A70</title>
<polygon fill="none" stroke="#000000" points="600.0801,-586 515.8219,-586 515.8219,-550 600.0801,-550 600.0801,-586"/>
<text text-anchor="middle" x="557.951" y="-565" font-family="Helvetica,sans-Serif" font-size="10.00" fill="#000000">chain2.Store</text>
</g>
<!-- A13&#45;&gt;A70 -->
<g id="edge79" class="edge">
<title>A13&#45;&gt;A70</title>
<path fill="none" stroke="#000000" stroke-dasharray="5,2" d="M413.7516,-606.6702C446.1918,-597.9707 486.0958,-587.2695 515.6964,-579.3315"/>
</g>
<!-- A76 -->
<g id="node77" class="node">
<title>A76</title>
<polygon fill="none" stroke="#000000" points="614.486,-424 501.416,-424 501.416,-388 614.486,-388 614.486,-424"/>
<text text-anchor="middle" x="557.951" y="-403" font-family="Helvetica,sans-Serif" font-size="10.00" fill="#000000">exchange.Interface</text>
</g>
<!-- A14&#45;&gt;A76 -->
<g id="edge88" class="edge">
<title>A14&#45;&gt;A76</title>
<path fill="none" stroke="#000000" stroke-dasharray="5,2" d="M421.8452,-495.8713C427.6194,-493.2614 433.2227,-490.3154 438.38,-487 465.8934,-469.3127 461.3298,-451.3879 488.38,-433 493.2017,-429.7224 498.4779,-426.7628 503.8999,-424.1106"/>
</g>
<!-- A15&#45;&gt;A68 -->
<g id="edge89" class="edge">
<title>A15&#45;&gt;A68</title>
<path fill="none" stroke="#000000" stroke-dasharray="5,2" d="M411.345,-553.3156C449.4275,-543.1029 498.6664,-529.8984 529.2772,-521.6895"/>
</g>
<!-- A77 -->
<g id="node78" class="node">
<title>A77</title>
<polygon fill="none" stroke="#000000" points="604.529,-478 511.373,-478 511.373,-442 604.529,-442 604.529,-478"/>
<text text-anchor="middle" x="557.951" y="-457" font-family="Helvetica,sans-Serif" font-size="10.00" fill="#000000">IStateManager</text>
</g>
<!-- A15&#45;&gt;A77 -->
<g id="edge90" class="edge">
<title>A15&#45;&gt;A77</title>
<path fill="none" stroke="#000000" stroke-dasharray="5,2" d="M411.1544,-554.2781C420.6202,-550.7168 430.078,-546.337 438.38,-541 465.8934,-523.3127 461.3298,-505.3879 488.38,-487 495.3446,-482.2657 503.2576,-478.1948 511.1885,-474.7558"/>
</g>
<!-- A78 -->
<g id="node79" class="node">
<title>A78</title>
<polygon fill="none" stroke="#000000" points="615.0771,-370 500.8249,-370 500.8249,-334 615.0771,-334 615.0771,-370"/>
<text text-anchor="middle" x="557.951" y="-349" font-family="Helvetica,sans-Serif" font-size="10.00" fill="#000000">paychmgr.Manager</text>
</g>
<!-- A16&#45;&gt;A78 -->
<g id="edge91" class="edge">
<title>A16&#45;&gt;A78</title>
<path fill="none" stroke="#000000" d="M421.4025,-442.0706C427.3329,-439.4116 433.091,-436.4001 438.38,-433 465.8934,-415.3127 461.3298,-397.3879 488.38,-379 493.2017,-375.7224 498.4779,-372.7628 503.8999,-370.1106"/>
<polygon fill="none" stroke="#000000" points="420.9811,-442.2417 416.928,-448.206 409.8636,-446.7587 413.9167,-440.7944 420.9811,-442.2417"/>
</g>
<!-- A79 -->
<g id="node80" class="node">
<title>A79</title>
<polygon fill="none" stroke="#000000" points="596.9144,-316 518.9876,-316 518.9876,-280 596.9144,-280 596.9144,-316"/>
<text text-anchor="middle" x="557.951" y="-301" font-family="Helvetica,sans-Serif" font-size="10.00" fill="#000000">venus&#45;auth</text>
<text text-anchor="middle" x="557.951" y="-289" font-family="Helvetica,sans-Serif" font-size="10.00" fill="#000000">JWTClient</text>
</g>
<!-- A19&#45;&gt;A79 -->
<g id="edge92" class="edge">
<title>A19&#45;&gt;A79</title>
<path fill="none" stroke="#000000" d="M410.453,-298C444.6612,-298 488.1451,-298 519.0142,-298"/>
<polygon fill="none" stroke="#000000" points="410.3101,-298.0001 404.3101,-302 398.3101,-298 404.3102,-294 410.3101,-298.0001"/>
</g>
<!-- A80 -->
<g id="node81" class="node">
<title>A80</title>
<polygon fill="#fff8dc" stroke="#000000" points="991.8458,-954 897.3932,-954 897.3932,-918 997.8458,-918 997.8458,-948 991.8458,-954"/>
<polyline fill="none" stroke="#000000" points="991.8458,-954 991.8458,-948 "/>
<polyline fill="none" stroke="#000000" points="997.8458,-948 991.8458,-948 "/>
<text text-anchor="middle" x="947.6195" y="-939" font-family="Helvetica,sans-Serif" font-size="10.00" fill="#000000">refer proof&#45;class</text>
<text text-anchor="middle" x="947.6195" y="-927" font-family="Helvetica,sans-Serif" font-size="10.00" fill="#000000">for Syscalls</text>
</g>
<!-- A48&#45;&gt;A80 -->
<g id="edge93" class="edge">
<title>A48&#45;&gt;A80</title>
<path fill="none" stroke="#000000" stroke-dasharray="5,2" d="M947.6195,-971.7902C947.6195,-965.907 947.6195,-960.0238 947.6195,-954.1406"/>
</g>
<!-- A62&#45;&gt;A10 -->
<g id="edge72" class="edge">
<title>A62&#45;&gt;A10</title>
<path fill="none" stroke="#000000" stroke-dasharray="5,2" d="M611.287,-918.2389C617.4525,-914.3526 623.1029,-909.6579 627.522,-904 701.2997,-809.5422 600.5385,-730.8639 677.522,-639 682.619,-632.9178 689.2399,-628.2035 696.3904,-624.5499"/>
</g>
<!-- A64 -->
<g id="node65" class="node">
<title>A64</title>
<polygon fill="none" stroke="#000000" points="776.5325,-792 720.9835,-792 720.9835,-756 776.5325,-756 776.5325,-792"/>
<text text-anchor="middle" x="748.758" y="-771" font-family="Helvetica,sans-Serif" font-size="10.00" fill="#000000">Wallet</text>
</g>
<!-- A62&#45;&gt;A64 -->
<g id="edge73" class="edge">
<title>A62&#45;&gt;A64</title>
<path fill="none" stroke="#000000" stroke-dasharray="5,2" d="M608.5404,-917.8661C615.4293,-913.9886 622.0131,-909.3954 627.522,-904 663.8768,-868.3944 639.9638,-835.3339 677.522,-801 689.5289,-790.0238 706.4428,-783.3621 720.7765,-779.4028"/>
</g>
<!-- A65 -->
<g id="node66" class="node">
<title>A65</title>
<polygon fill="none" stroke="#000000" points="802.713,-738 694.803,-738 694.803,-702 802.713,-702 802.713,-738"/>
<text text-anchor="middle" x="748.758" y="-717" font-family="Helvetica,sans-Serif" font-size="10.00" fill="#000000">WalletIntersection</text>
</g>
<!-- A62&#45;&gt;A65 -->
<g id="edge74" class="edge">
<title>A62&#45;&gt;A65</title>
<path fill="none" stroke="#000000" d="M620.3078,-910.918C622.9006,-908.7844 625.3273,-906.4822 627.522,-904 676.0293,-849.1383 627.1561,-800.1605 677.522,-747 682.434,-741.8154 688.4434,-737.6167 694.8686,-734.2187"/>
<polygon fill="#000000" stroke="#000000" points="620.1361,-911.0384 617.5197,-917.7581 610.3106,-917.9274 612.927,-911.2077 620.1361,-911.0384"/>
</g>
<!-- A66 -->
<g id="node67" class="node">
<title>A66</title>
<polygon fill="none" stroke="#000000" points="777.1521,-684 720.3639,-684 720.3639,-648 777.1521,-648 777.1521,-684"/>
<text text-anchor="middle" x="748.758" y="-663" font-family="Helvetica,sans-Serif" font-size="10.00" fill="#000000">Signer</text>
</g>
<!-- A62&#45;&gt;A66 -->
<g id="edge75" class="edge">
<title>A62&#45;&gt;A66</title>
<path fill="none" stroke="#000000" d="M621.067,-910.6576C623.3987,-908.6005 625.5688,-906.385 627.522,-904 688.5839,-829.4377 613.9312,-765.4176 677.522,-693 688.3432,-680.6767 705.3947,-673.9569 720.1021,-670.3034"/>
<polygon fill="#000000" stroke="#000000" points="621.03,-910.685 618.5914,-917.4713 611.3893,-917.8304 613.8278,-911.0441 621.03,-910.685"/>
</g>
<!-- A67 -->
<g id="node68" class="node">
<title>A67</title>
<polygon fill="none" stroke="#000000" points="793.4366,-954 704.0794,-954 704.0794,-918 793.4366,-918 793.4366,-954"/>
<text text-anchor="middle" x="748.758" y="-933" font-family="Helvetica,sans-Serif" font-size="10.00" fill="#000000">ConfigModule</text>
</g>
<!-- A62&#45;&gt;A67 -->
<g id="edge76" class="edge">
<title>A62&#45;&gt;A67</title>
<path fill="none" stroke="#000000" stroke-dasharray="5,2" d="M611.3551,-936C640.5711,-936 676.3524,-936 704.0764,-936"/>
</g>
<!-- A71 -->
<g id="node72" class="node">
<title>A71</title>
<polygon fill="none" stroke="#000000" points="627.5931,-262 488.3089,-262 488.3089,-226 627.5931,-226 627.5931,-262"/>
<text text-anchor="middle" x="557.951" y="-241" font-family="Helvetica,sans-Serif" font-size="10.00" fill="#000000">MessagePoolSubmodule</text>
</g>
<!-- A71&#45;&gt;A8 -->
<g id="edge85" class="edge">
<title>A71&#45;&gt;A8</title>
<path fill="none" stroke="#000000" stroke-dasharray="5,2" d="M610.5756,-262.1135C616.4394,-264.8038 622.2071,-267.7711 627.522,-271 652.8208,-286.3694 652.1626,-299.7307 677.522,-315 682.9607,-318.2747 688.8642,-321.2706 694.8671,-323.9771"/>
</g>
<!-- A71&#45;&gt;A10 -->
<g id="edge84" class="edge">
<title>A71&#45;&gt;A10</title>
<path fill="none" stroke="#000000" stroke-dasharray="5,2" d="M616.5797,-262.1375C620.5593,-264.717 624.2714,-267.6551 627.522,-271 651.4416,-295.6138 722.8488,-526.6258 743.2556,-593.7769"/>
</g>
<!-- A71&#45;&gt;A53 -->
<g id="edge80" class="edge">
<title>A71&#45;&gt;A53</title>
<path fill="none" stroke="#000000" d="M627.2876,-270.6901C627.3662,-270.793 627.4443,-270.8963 627.522,-271 705.6216,-375.241 599.0109,-751.0686 677.522,-855 684.2185,-863.8647 694.1901,-869.8189 704.5666,-873.8183"/>
<polygon fill="none" stroke="#000000" points="627.3049,-270.7074 620.2343,-269.2905 618.8228,-262.2189 625.8934,-263.6358 627.3049,-270.7074"/>
</g>
<!-- A71&#45;&gt;A54 -->
<g id="edge81" class="edge">
<title>A71&#45;&gt;A54</title>
<path fill="none" stroke="#000000" d="M627.2788,-270.6815C627.3604,-270.7873 627.4414,-270.8934 627.522,-271 770.2064,-459.7364 534.0925,-612.8293 677.522,-801 680.8092,-805.3126 684.8707,-808.9364 689.3742,-811.9814"/>
<polygon fill="none" stroke="#000000" points="627.0262,-270.4324 619.9455,-269.0671 618.4825,-262.0059 625.5632,-263.3712 627.0262,-270.4324"/>
</g>
<!-- A72 -->
<g id="node73" class="node">
<title>A72</title>
<polygon fill="none" stroke="#000000" points="792.83,-144 704.686,-144 704.686,-108 792.83,-108 792.83,-144"/>
<text text-anchor="middle" x="748.758" y="-123" font-family="Helvetica,sans-Serif" font-size="10.00" fill="#000000">MessagePool</text>
</g>
<!-- A71&#45;&gt;A72 -->
<g id="edge82" class="edge">
<title>A71&#45;&gt;A72</title>
<path fill="none" stroke="#000000" d="M587.1195,-217.9614C610.3594,-198.1971 644.3866,-171.379 677.522,-153 685.9651,-148.3169 695.3855,-144.1092 704.5393,-140.4865"/>
<polygon fill="none" stroke="#000000" points="586.9401,-218.1161 585.0099,-225.0641 577.854,-225.9547 579.7842,-219.0067 586.9401,-218.1161"/>
</g>
<!-- A73 -->
<g id="node74" class="node">
<title>A73</title>
<polygon fill="none" stroke="#000000" points="797.7181,-306 699.7979,-306 699.7979,-270 797.7181,-270 797.7181,-306"/>
<text text-anchor="middle" x="748.758" y="-285" font-family="Helvetica,sans-Serif" font-size="10.00" fill="#000000">MessageSigner</text>
</g>
<!-- A71&#45;&gt;A73 -->
<g id="edge83" class="edge">
<title>A71&#45;&gt;A73</title>
<path fill="none" stroke="#000000" d="M639.5952,-262.8271C660.1091,-267.5576 681.4898,-272.488 699.8358,-276.7186"/>
<polygon fill="none" stroke="#000000" points="639.3398,-262.7683 632.5944,-265.3177 627.6466,-260.0718 634.392,-257.5223 639.3398,-262.7683"/>
</g>
<!-- A74 -->
<g id="node75" class="node">
<title>A74</title>
<polygon fill="none" stroke="#000000" points="777.8127,-252 719.7033,-252 719.7033,-216 777.8127,-216 777.8127,-252"/>
<text text-anchor="middle" x="748.758" y="-231" font-family="Helvetica,sans-Serif" font-size="10.00" fill="#000000">IWallet</text>
</g>
<!-- A71&#45;&gt;A74 -->
<g id="edge86" class="edge">
<title>A71&#45;&gt;A74</title>
<path fill="none" stroke="#000000" stroke-dasharray="5,2" d="M627.6466,-240.3473C659.3712,-238.6847 695.1941,-236.8072 719.5976,-235.5283"/>
</g>
<!-- A75 -->
<g id="node76" class="node">
<title>A75</title>
<polygon fill="none" stroke="#000000" points="812.761,-198 684.755,-198 684.755,-162 812.761,-162 812.761,-198"/>
<text text-anchor="middle" x="748.758" y="-177" font-family="Helvetica,sans-Serif" font-size="10.00" fill="#000000">NetworkParamsConfig</text>
</g>
<!-- A71&#45;&gt;A75 -->
<g id="edge87" class="edge">
<title>A71&#45;&gt;A75</title>
<path fill="none" stroke="#000000" stroke-dasharray="5,2" d="M611.8635,-225.9168C637.8714,-217.1933 668.9883,-206.7562 694.9787,-198.0385"/>
</g>
</g>
</svg>
