<?xml version="1.0" encoding="UTF-8" standalone="no"?>
<!DOCTYPE svg PUBLIC "-//W3C//DTD SVG 1.1//EN"
 "http://www.w3.org/Graphics/SVG/1.1/DTD/svg11.dtd">
<!-- Generated by graphviz version 2.40.1 (20161225.0304)
 -->
<!-- Title: G Pages: 1 -->
<svg width="1371pt" height="836pt"
 viewBox="0.00 0.00 1371.31 836.00" xmlns="http://www.w3.org/2000/svg" xmlns:xlink="http://www.w3.org/1999/xlink">
<g id="graph0" class="graph" transform="scale(1 1) rotate(0) translate(4 832)">
<title>G</title>
<polygon fill="#ffffff" stroke="transparent" points="-4,4 -4,-832 1367.31,-832 1367.31,4 -4,4"/>
<!-- A0 -->
<g id="node1" class="node">
<title>A0</title>
<polygon fill="#f5f5dc" stroke="#000000" points="322.4302,-828 .1898,-828 .1898,-792 328.4302,-792 328.4302,-822 322.4302,-828"/>
<polyline fill="none" stroke="#000000" points="322.4302,-828 322.4302,-822 "/>
<polyline fill="none" stroke="#000000" points="328.4302,-822 322.4302,-822 "/>
<text text-anchor="middle" x="164.31" y="-807" font-family="Helvetica,sans-Serif" font-size="10.00" fill="#000000">An informal use of event diagram to represent windowPost callchain</text>
</g>
<!-- A1 -->
<g id="node2" class="node">
<title>A1</title>
<ellipse fill="none" stroke="#000000" cx="357.31" cy="-810" rx="11" ry="11"/>
</g>
<!-- A2 -->
<g id="node3" class="node">
<title>A2</title>
<path fill="none" stroke="#000000" d="M391.1496,-756C391.1496,-756 323.4704,-756 323.4704,-756 317.4704,-756 311.4704,-750 311.4704,-744 311.4704,-744 311.4704,-732 311.4704,-732 311.4704,-726 317.4704,-720 323.4704,-720 323.4704,-720 391.1496,-720 391.1496,-720 397.1496,-720 403.1496,-726 403.1496,-732 403.1496,-732 403.1496,-744 403.1496,-744 403.1496,-750 397.1496,-756 391.1496,-756"/>
<text text-anchor="middle" x="357.31" y="-735" font-family="Helvetica,sans-Serif" font-size="10.00" fill="#000000">VerifyPoSt/vm</text>
</g>
<!-- A1&#45;&gt;A2 -->
<g id="edge1" class="edge">
<title>A1&#45;&gt;A2</title>
<path fill="none" stroke="#000000" d="M357.31,-798.75C357.31,-790.0291 357.31,-777.5523 357.31,-766.1722"/>
<polygon fill="#000000" stroke="#000000" points="357.31,-756.1686 361.8101,-766.1686 357.31,-761.1686 357.3101,-766.1686 357.3101,-766.1686 357.3101,-766.1686 357.31,-761.1686 352.8101,-766.1687 357.31,-756.1686 357.31,-756.1686"/>
</g>
<!-- A3 -->
<g id="node4" class="node">
<title>A3</title>
<polygon fill="#f5f5dc" stroke="#000000" points="351.5522,-684 197.0678,-684 197.0678,-648 357.5522,-648 357.5522,-678 351.5522,-684"/>
<polyline fill="none" stroke="#000000" points="351.5522,-684 351.5522,-678 "/>
<polyline fill="none" stroke="#000000" points="357.5522,-678 351.5522,-678 "/>
<text text-anchor="middle" x="277.31" y="-663" font-family="Helvetica,sans-Serif" font-size="10.00" fill="#000000">pkg/vm/vmcontext/syscalls.go</text>
</g>
<!-- A2&#45;&gt;A3 -->
<g id="edge2" class="edge">
<title>A2&#45;&gt;A3</title>
<path fill="none" stroke="#000000" stroke-dasharray="5,2" d="M337.1226,-719.8314C327.4586,-711.1337 315.7304,-700.5783 305.2284,-691.1265"/>
<polygon fill="#000000" stroke="#000000" points="297.4909,-684.1628 307.9342,-687.5077 301.2074,-687.5077 304.9239,-690.8525 304.9239,-690.8525 304.9239,-690.8525 301.2074,-687.5077 301.9135,-694.1973 297.4909,-684.1628 297.4909,-684.1628"/>
</g>
<!-- A4 -->
<g id="node5" class="node">
<title>A4</title>
<path fill="none" stroke="#000000" d="M487.4934,-684C487.4934,-684 387.1266,-684 387.1266,-684 381.1266,-684 375.1266,-678 375.1266,-672 375.1266,-672 375.1266,-660 375.1266,-660 375.1266,-654 381.1266,-648 387.1266,-648 387.1266,-648 487.4934,-648 487.4934,-648 493.4934,-648 499.4934,-654 499.4934,-660 499.4934,-660 499.4934,-672 499.4934,-672 499.4934,-678 493.4934,-684 487.4934,-684"/>
<text text-anchor="middle" x="437.31" y="-663" font-family="Helvetica,sans-Serif" font-size="10.00" fill="#000000">VerifyPoSt/vmsupport</text>
</g>
<!-- A2&#45;&gt;A4 -->
<g id="edge12" class="edge">
<title>A2&#45;&gt;A4</title>
<path fill="none" stroke="#000000" d="M377.4974,-719.8314C387.1614,-711.1337 398.8896,-700.5783 409.3916,-691.1265"/>
<polygon fill="#000000" stroke="#000000" points="417.1291,-684.1628 412.7065,-694.1973 413.4126,-687.5077 409.6961,-690.8525 409.6961,-690.8525 409.6961,-690.8525 413.4126,-687.5077 406.6858,-687.5077 417.1291,-684.1628 417.1291,-684.1628"/>
</g>
<!-- A5 -->
<g id="node6" class="node">
<title>A5</title>
<polygon fill="#f5f5dc" stroke="#000000" points="420.0532,-612 280.5668,-612 280.5668,-576 426.0532,-576 426.0532,-606 420.0532,-612"/>
<polyline fill="none" stroke="#000000" points="420.0532,-612 420.0532,-606 "/>
<polyline fill="none" stroke="#000000" points="426.0532,-606 420.0532,-606 "/>
<text text-anchor="middle" x="353.31" y="-591" font-family="Helvetica,sans-Serif" font-size="10.00" fill="#000000">pkg/vmsupport/syscalls.go</text>
</g>
<!-- A4&#45;&gt;A5 -->
<g id="edge3" class="edge">
<title>A4&#45;&gt;A5</title>
<path fill="none" stroke="#000000" stroke-dasharray="5,2" d="M416.1133,-647.8314C405.8666,-639.0485 393.4097,-628.3712 382.3003,-618.8489"/>
<polygon fill="#000000" stroke="#000000" points="374.5,-612.1628 385.0211,-615.2541 378.2963,-615.4168 382.0926,-618.6708 382.0926,-618.6708 382.0926,-618.6708 378.2963,-615.4168 379.164,-622.0874 374.5,-612.1628 374.5,-612.1628"/>
</g>
<!-- A6 -->
<g id="node7" class="node">
<title>A6</title>
<path fill="none" stroke="#000000" d="M588.0932,-612C588.0932,-612 456.5268,-612 456.5268,-612 450.5268,-612 444.5268,-606 444.5268,-600 444.5268,-600 444.5268,-588 444.5268,-588 444.5268,-582 450.5268,-576 456.5268,-576 456.5268,-576 588.0932,-576 588.0932,-576 594.0932,-576 600.0932,-582 600.0932,-588 600.0932,-588 600.0932,-600 600.0932,-600 600.0932,-606 594.0932,-612 588.0932,-612"/>
<text text-anchor="middle" x="522.31" y="-591" font-family="Helvetica,sans-Serif" font-size="10.00" fill="#000000">VerifyWindowPoSt/filecoin&#45;ffi</text>
</g>
<!-- A4&#45;&gt;A6 -->
<g id="edge13" class="edge">
<title>A4&#45;&gt;A6</title>
<path fill="none" stroke="#000000" d="M458.7591,-647.8314C469.1278,-639.0485 481.7329,-628.3712 492.9746,-618.8489"/>
<polygon fill="#000000" stroke="#000000" points="500.8678,-612.1628 496.1459,-622.06 497.0525,-615.3946 493.2373,-618.6263 493.2373,-618.6263 493.2373,-618.6263 497.0525,-615.3946 490.3287,-615.1926 500.8678,-612.1628 500.8678,-612.1628"/>
</g>
<!-- A7 -->
<g id="node8" class="node">
<title>A7</title>
<polygon fill="#f5f5dc" stroke="#000000" points="491.0542,-540 351.5658,-540 351.5658,-504 497.0542,-504 497.0542,-534 491.0542,-540"/>
<polyline fill="none" stroke="#000000" points="491.0542,-540 491.0542,-534 "/>
<polyline fill="none" stroke="#000000" points="497.0542,-534 491.0542,-534 "/>
<text text-anchor="middle" x="424.31" y="-519" font-family="Helvetica,sans-Serif" font-size="10.00" fill="#000000">extern/filecoin&#45;ffi/proofs.go</text>
</g>
<!-- A6&#45;&gt;A7 -->
<g id="edge4" class="edge">
<title>A6&#45;&gt;A7</title>
<path fill="none" stroke="#000000" stroke-dasharray="5,2" d="M497.5805,-575.8314C485.3938,-566.8779 470.5277,-555.9558 457.3788,-546.2955"/>
<polygon fill="#000000" stroke="#000000" points="449.0316,-540.1628 459.7548,-542.4572 453.061,-543.1232 457.0905,-546.0836 457.0905,-546.0836 457.0905,-546.0836 453.061,-543.1232 454.4261,-549.7101 449.0316,-540.1628 449.0316,-540.1628"/>
</g>
<!-- A8 -->
<g id="node9" class="node">
<title>A8</title>
<path fill="none" stroke="#000000" d="M715.7715,-540C715.7715,-540 526.8485,-540 526.8485,-540 520.8485,-540 514.8485,-534 514.8485,-528 514.8485,-528 514.8485,-516 514.8485,-516 514.8485,-510 520.8485,-504 526.8485,-504 526.8485,-504 715.7715,-504 715.7715,-504 721.7715,-504 727.7715,-510 727.7715,-516 727.7715,-516 727.7715,-528 727.7715,-528 727.7715,-534 721.7715,-540 715.7715,-540"/>
<text text-anchor="middle" x="621.31" y="-519" font-family="Helvetica,sans-Serif" font-size="10.00" fill="#000000">generated.FilVerifyWindowPost/filecoin&#45;ffi</text>
</g>
<!-- A6&#45;&gt;A8 -->
<g id="edge14" class="edge">
<title>A6&#45;&gt;A8</title>
<path fill="none" stroke="#000000" d="M547.2919,-575.8314C559.6028,-566.8779 574.6207,-555.9558 587.9037,-546.2955"/>
<polygon fill="#000000" stroke="#000000" points="596.3361,-540.1628 590.8955,-549.6839 592.2924,-543.1037 588.2487,-546.0446 588.2487,-546.0446 588.2487,-546.0446 592.2924,-543.1037 585.6019,-542.4053 596.3361,-540.1628 596.3361,-540.1628"/>
</g>
<!-- A9 -->
<g id="node10" class="node">
<title>A9</title>
<polygon fill="#f5f5dc" stroke="#000000" points="624.5902,-468 420.0298,-468 420.0298,-432 630.5902,-432 630.5902,-462 624.5902,-468"/>
<polyline fill="none" stroke="#000000" points="624.5902,-468 624.5902,-462 "/>
<polyline fill="none" stroke="#000000" points="630.5902,-462 624.5902,-462 "/>
<text text-anchor="middle" x="525.31" y="-447" font-family="Helvetica,sans-Serif" font-size="10.00" fill="#000000">extern/filecoin&#45;ffi/generated/generated.go</text>
</g>
<!-- A8&#45;&gt;A9 -->
<g id="edge5" class="edge">
<title>A8&#45;&gt;A9</title>
<path fill="none" stroke="#000000" stroke-dasharray="5,2" d="M597.0851,-503.8314C585.1472,-494.8779 570.5844,-483.9558 557.704,-474.2955"/>
<polygon fill="#000000" stroke="#000000" points="549.5271,-468.1628 560.2271,-470.5629 553.5271,-471.1628 557.5271,-474.1629 557.5271,-474.1629 557.5271,-474.1629 553.5271,-471.1628 554.8271,-477.7629 549.5271,-468.1628 549.5271,-468.1628"/>
</g>
<!-- A10 -->
<g id="node11" class="node">
<title>A10</title>
<path fill="none" stroke="#000000" d="M774.319,-468C774.319,-468 660.301,-468 660.301,-468 654.301,-468 648.301,-462 648.301,-456 648.301,-456 648.301,-444 648.301,-444 648.301,-438 654.301,-432 660.301,-432 660.301,-432 774.319,-432 774.319,-432 780.319,-432 786.319,-438 786.319,-444 786.319,-444 786.319,-456 786.319,-456 786.319,-462 780.319,-468 774.319,-468"/>
<text text-anchor="middle" x="717.31" y="-447" font-family="Helvetica,sans-Serif" font-size="10.00" fill="#000000">C.fil_verify_window_post</text>
</g>
<!-- A8&#45;&gt;A10 -->
<g id="edge15" class="edge">
<title>A8&#45;&gt;A10</title>
<path fill="none" stroke="#000000" d="M645.5349,-503.8314C657.4728,-494.8779 672.0356,-483.9558 684.916,-474.2955"/>
<polygon fill="#000000" stroke="#000000" points="693.0929,-468.1628 687.7929,-477.7629 689.0929,-471.1628 685.0929,-474.1629 685.0929,-474.1629 685.0929,-474.1629 689.0929,-471.1628 682.3929,-470.5629 693.0929,-468.1628 693.0929,-468.1628"/>
</g>
<!-- A11 -->
<g id="node12" class="node">
<title>A11</title>
<polygon fill="#f5f5dc" stroke="#000000" points="719.435,-396 531.185,-396 531.185,-360 725.435,-360 725.435,-390 719.435,-396"/>
<polyline fill="none" stroke="#000000" points="719.435,-396 719.435,-390 "/>
<polyline fill="none" stroke="#000000" points="725.435,-390 719.435,-390 "/>
<text text-anchor="middle" x="628.31" y="-375" font-family="Helvetica,sans-Serif" font-size="10.00" fill="#000000">extern/filecoin&#45;ffi/rust/src/proofs/api.rs</text>
</g>
<!-- A10&#45;&gt;A11 -->
<g id="edge6" class="edge">
<title>A10&#45;&gt;A11</title>
<path fill="none" stroke="#000000" stroke-dasharray="5,2" d="M694.8515,-431.8314C683.8895,-422.9632 670.5401,-412.1637 658.6835,-402.5718"/>
<polygon fill="#000000" stroke="#000000" points="650.7613,-396.1628 661.3661,-398.9538 654.6485,-399.3076 658.5358,-402.4523 658.5358,-402.4523 658.5358,-402.4523 654.6485,-399.3076 655.7055,-405.9509 650.7613,-396.1628 650.7613,-396.1628"/>
</g>
<!-- A12 -->
<g id="node13" class="node">
<title>A12</title>
<path fill="none" stroke="#000000" d="M859.321,-396C859.321,-396 755.299,-396 755.299,-396 749.299,-396 743.299,-390 743.299,-384 743.299,-384 743.299,-372 743.299,-372 743.299,-366 749.299,-360 755.299,-360 755.299,-360 859.321,-360 859.321,-360 865.321,-360 871.321,-366 871.321,-372 871.321,-372 871.321,-384 871.321,-384 871.321,-390 865.321,-396 859.321,-396"/>
<text text-anchor="middle" x="807.31" y="-375" font-family="Helvetica,sans-Serif" font-size="10.00" fill="#000000">fil_verify_window_post</text>
</g>
<!-- A10&#45;&gt;A12 -->
<g id="edge16" class="edge">
<title>A10&#45;&gt;A12</title>
<path fill="none" stroke="#000000" d="M740.0208,-431.8314C751.106,-422.9632 764.6054,-412.1637 776.5952,-402.5718"/>
<polygon fill="#000000" stroke="#000000" points="784.6065,-396.1628 779.6089,-405.9237 780.7021,-399.2863 776.7978,-402.4098 776.7978,-402.4098 776.7978,-402.4098 780.7021,-399.2863 773.9866,-398.8959 784.6065,-396.1628 784.6065,-396.1628"/>
</g>
<!-- A13 -->
<g id="node14" class="node">
<title>A13</title>
<polygon fill="#f5f5dc" stroke="#000000" points="796.5961,-324 572.0239,-324 572.0239,-288 802.5961,-288 802.5961,-318 796.5961,-324"/>
<polyline fill="none" stroke="#000000" points="796.5961,-324 796.5961,-318 "/>
<polyline fill="none" stroke="#000000" points="802.5961,-318 796.5961,-318 "/>
<text text-anchor="middle" x="687.31" y="-303" font-family="Helvetica,sans-Serif" font-size="10.00" fill="#000000">filecoin&#45;project/filecoin&#45;ffi/rust/src/proofs/api.rs</text>
</g>
<!-- A12&#45;&gt;A13 -->
<g id="edge7" class="edge">
<title>A12&#45;&gt;A13</title>
<path fill="none" stroke="#000000" stroke-dasharray="5,2" d="M777.0289,-359.8314C761.6802,-350.6221 742.8602,-339.3301 726.4277,-329.4706"/>
<polygon fill="#000000" stroke="#000000" points="717.5814,-324.1628 728.4716,-325.4491 721.8689,-326.7353 726.1563,-329.3078 726.1563,-329.3078 726.1563,-329.3078 721.8689,-326.7353 723.8411,-333.1666 717.5814,-324.1628 717.5814,-324.1628"/>
</g>
<!-- A14 -->
<g id="node15" class="node">
<title>A14</title>
<path fill="none" stroke="#000000" d="M1021.8844,-324C1021.8844,-324 832.7356,-324 832.7356,-324 826.7356,-324 820.7356,-318 820.7356,-312 820.7356,-312 820.7356,-300 820.7356,-300 820.7356,-294 826.7356,-288 832.7356,-288 832.7356,-288 1021.8844,-288 1021.8844,-288 1027.8844,-288 1033.8844,-294 1033.8844,-300 1033.8844,-300 1033.8844,-312 1033.8844,-312 1033.8844,-318 1027.8844,-324 1021.8844,-324"/>
<text text-anchor="middle" x="927.31" y="-303" font-family="Helvetica,sans-Serif" font-size="10.00" fill="#000000">verify_window_post/ust&#45;filecoin&#45;proofs&#45;api</text>
</g>
<!-- A12&#45;&gt;A14 -->
<g id="edge17" class="edge">
<title>A12&#45;&gt;A14</title>
<path fill="none" stroke="#000000" d="M837.5911,-359.8314C852.9398,-350.6221 871.7598,-339.3301 888.1923,-329.4706"/>
<polygon fill="#000000" stroke="#000000" points="897.0386,-324.1628 890.7789,-333.1666 892.7511,-326.7353 888.4637,-329.3078 888.4637,-329.3078 888.4637,-329.3078 892.7511,-326.7353 886.1484,-325.4491 897.0386,-324.1628 897.0386,-324.1628"/>
</g>
<!-- A15 -->
<g id="node16" class="node">
<title>A15</title>
<polygon fill="#f5f5dc" stroke="#000000" points="943.816,-252 706.804,-252 706.804,-216 949.816,-216 949.816,-246 943.816,-252"/>
<polyline fill="none" stroke="#000000" points="943.816,-252 943.816,-246 "/>
<polyline fill="none" stroke="#000000" points="949.816,-246 943.816,-246 "/>
<text text-anchor="middle" x="828.31" y="-231" font-family="Helvetica,sans-Serif" font-size="10.00" fill="#000000">filecoin&#45;project/rust&#45;filecoin&#45;proofs&#45;api/src/post.rs</text>
</g>
<!-- A14&#45;&gt;A15 -->
<g id="edge8" class="edge">
<title>A14&#45;&gt;A15</title>
<path fill="none" stroke="#000000" stroke-dasharray="5,2" d="M902.3281,-287.8314C890.0172,-278.8779 874.9993,-267.9558 861.7163,-258.2955"/>
<polygon fill="#000000" stroke="#000000" points="853.2839,-252.1628 864.0181,-254.4053 857.3276,-255.1037 861.3713,-258.0446 861.3713,-258.0446 861.3713,-258.0446 857.3276,-255.1037 858.7245,-261.6839 853.2839,-252.1628 853.2839,-252.1628"/>
</g>
<!-- A16 -->
<g id="node17" class="node">
<title>A16</title>
<path fill="none" stroke="#000000" d="M1071.0452,-252C1071.0452,-252 979.5748,-252 979.5748,-252 973.5748,-252 967.5748,-246 967.5748,-240 967.5748,-240 967.5748,-228 967.5748,-228 967.5748,-222 973.5748,-216 979.5748,-216 979.5748,-216 1071.0452,-216 1071.0452,-216 1077.0452,-216 1083.0452,-222 1083.0452,-228 1083.0452,-228 1083.0452,-240 1083.0452,-240 1083.0452,-246 1077.0452,-252 1071.0452,-252"/>
<text text-anchor="middle" x="1025.31" y="-231" font-family="Helvetica,sans-Serif" font-size="10.00" fill="#000000">verify_window_post</text>
</g>
<!-- A14&#45;&gt;A16 -->
<g id="edge18" class="edge">
<title>A14&#45;&gt;A16</title>
<path fill="none" stroke="#000000" d="M952.0395,-287.8314C964.2262,-278.8779 979.0923,-267.9558 992.2412,-258.2955"/>
<polygon fill="#000000" stroke="#000000" points="1000.5884,-252.1628 995.1939,-261.7101 996.559,-255.1232 992.5295,-258.0836 992.5295,-258.0836 992.5295,-258.0836 996.559,-255.1232 989.8652,-254.4572 1000.5884,-252.1628 1000.5884,-252.1628"/>
</g>
<!-- A17 -->
<g id="node18" class="node">
<title>A17</title>
<polygon fill="#f5f5dc" stroke="#000000" points="1058.7693,-180 741.8507,-180 741.8507,-144 1064.7693,-144 1064.7693,-174 1058.7693,-180"/>
<polyline fill="none" stroke="#000000" points="1058.7693,-180 1058.7693,-174 "/>
<polyline fill="none" stroke="#000000" points="1064.7693,-174 1058.7693,-174 "/>
<text text-anchor="middle" x="903.31" y="-159" font-family="Helvetica,sans-Serif" font-size="10.00" fill="#000000">filecoin&#45;project/rust&#45;fil&#45;proofs/filecoin&#45;proofs/src/api/window_post.rs</text>
</g>
<!-- A16&#45;&gt;A17 -->
<g id="edge9" class="edge">
<title>A16&#45;&gt;A17</title>
<path fill="none" stroke="#000000" stroke-dasharray="5,2" d="M994.5242,-215.8314C978.9197,-206.6221 959.786,-195.3301 943.0797,-185.4706"/>
<polygon fill="#000000" stroke="#000000" points="934.0859,-180.1628 944.9852,-181.37 938.3919,-182.7041 942.698,-185.2454 942.698,-185.2454 942.698,-185.2454 938.3919,-182.7041 940.4108,-189.1209 934.0859,-180.1628 934.0859,-180.1628"/>
</g>
<!-- A18 -->
<g id="node19" class="node">
<title>A18</title>
<path fill="none" stroke="#000000" d="M1200.0024,-180C1200.0024,-180 1094.6176,-180 1094.6176,-180 1088.6176,-180 1082.6176,-174 1082.6176,-168 1082.6176,-168 1082.6176,-156 1082.6176,-156 1082.6176,-150 1088.6176,-144 1094.6176,-144 1094.6176,-144 1200.0024,-144 1200.0024,-144 1206.0024,-144 1212.0024,-150 1212.0024,-156 1212.0024,-156 1212.0024,-168 1212.0024,-168 1212.0024,-174 1206.0024,-180 1200.0024,-180"/>
<text text-anchor="middle" x="1147.31" y="-159" font-family="Helvetica,sans-Serif" font-size="10.00" fill="#000000">verify/compound_proof</text>
</g>
<!-- A16&#45;&gt;A18 -->
<g id="edge19" class="edge">
<title>A16&#45;&gt;A18</title>
<path fill="none" stroke="#000000" d="M1056.0958,-215.8314C1071.7003,-206.6221 1090.834,-195.3301 1107.5403,-185.4706"/>
<polygon fill="#000000" stroke="#000000" points="1116.5341,-180.1628 1110.2092,-189.1209 1112.2281,-182.7041 1107.922,-185.2454 1107.922,-185.2454 1107.922,-185.2454 1112.2281,-182.7041 1105.6348,-181.37 1116.5341,-180.1628 1116.5341,-180.1628"/>
</g>
<!-- A19 -->
<g id="node20" class="node">
<title>A19</title>
<polygon fill="#f5f5dc" stroke="#000000" points="1190.3972,-108 848.2228,-108 848.2228,-72 1196.3972,-72 1196.3972,-102 1190.3972,-108"/>
<polyline fill="none" stroke="#000000" points="1190.3972,-108 1190.3972,-102 "/>
<polyline fill="none" stroke="#000000" points="1196.3972,-102 1190.3972,-102 "/>
<text text-anchor="middle" x="1022.31" y="-87" font-family="Helvetica,sans-Serif" font-size="10.00" fill="#000000">filecoin&#45;project/rust&#45;fil&#45;proofs/storage&#45;proofs&#45;core/src/compound_proof.rs</text>
</g>
<!-- A18&#45;&gt;A19 -->
<g id="edge10" class="edge">
<title>A18&#45;&gt;A19</title>
<path fill="none" stroke="#000000" stroke-dasharray="5,2" d="M1115.7672,-143.8314C1099.6309,-134.5368 1079.8114,-123.1208 1062.5828,-113.1971"/>
<polygon fill="#000000" stroke="#000000" points="1053.8427,-108.1628 1064.7541,-109.2547 1058.1754,-110.6585 1062.508,-113.1541 1062.508,-113.1541 1062.508,-113.1541 1058.1754,-110.6585 1060.2619,-117.0535 1053.8427,-108.1628 1053.8427,-108.1628"/>
</g>
<!-- A20 -->
<g id="node21" class="node">
<title>A20</title>
<path fill="none" stroke="#000000" d="M1318.0553,-108C1318.0553,-108 1226.5647,-108 1226.5647,-108 1220.5647,-108 1214.5647,-102 1214.5647,-96 1214.5647,-96 1214.5647,-84 1214.5647,-84 1214.5647,-78 1220.5647,-72 1226.5647,-72 1226.5647,-72 1318.0553,-72 1318.0553,-72 1324.0553,-72 1330.0553,-78 1330.0553,-84 1330.0553,-84 1330.0553,-96 1330.0553,-96 1330.0553,-102 1324.0553,-108 1318.0553,-108"/>
<text text-anchor="middle" x="1272.31" y="-87" font-family="Helvetica,sans-Serif" font-size="10.00" fill="#000000">verify_proofs_batch</text>
</g>
<!-- A18&#45;&gt;A20 -->
<g id="edge20" class="edge">
<title>A18&#45;&gt;A20</title>
<path fill="none" stroke="#000000" d="M1178.8528,-143.8314C1194.9891,-134.5368 1214.8086,-123.1208 1232.0372,-113.1971"/>
<polygon fill="#000000" stroke="#000000" points="1240.7773,-108.1628 1234.3581,-117.0535 1236.4446,-110.6585 1232.112,-113.1541 1232.112,-113.1541 1232.112,-113.1541 1236.4446,-110.6585 1229.8659,-109.2547 1240.7773,-108.1628 1240.7773,-108.1628"/>
</g>
<!-- A21 -->
<g id="node22" class="node">
<title>A21</title>
<polygon fill="#f5f5dc" stroke="#000000" points="1309.326,-36 1077.294,-36 1077.294,0 1315.326,0 1315.326,-30 1309.326,-36"/>
<polyline fill="none" stroke="#000000" points="1309.326,-36 1309.326,-30 "/>
<polyline fill="none" stroke="#000000" points="1315.326,-30 1309.326,-30 "/>
<text text-anchor="middle" x="1196.31" y="-15" font-family="Helvetica,sans-Serif" font-size="10.00" fill="#000000">filecoin&#45;project/bellperson/src/groth16/verifier.rs</text>
</g>
<!-- A20&#45;&gt;A21 -->
<g id="edge11" class="edge">
<title>A20&#45;&gt;A21</title>
<path fill="none" stroke="#000000" stroke-dasharray="5,2" d="M1253.132,-71.8314C1243.9512,-63.1337 1232.8094,-52.5783 1222.8324,-43.1265"/>
<polygon fill="#000000" stroke="#000000" points="1215.4819,-36.1628 1225.8363,-39.7735 1219.1117,-39.6016 1222.7414,-43.0403 1222.7414,-43.0403 1222.7414,-43.0403 1219.1117,-39.6016 1219.6466,-46.3071 1215.4819,-36.1628 1215.4819,-36.1628"/>
</g>
<!-- A22 -->
<g id="node23" class="node">
<title>A22</title>
<ellipse fill="none" stroke="#000000" cx="1348.31" cy="-18" rx="11" ry="11"/>
<ellipse fill="none" stroke="#000000" cx="1348.31" cy="-18" rx="15" ry="15"/>
</g>
<!-- A20&#45;&gt;A22 -->
<g id="edge21" class="edge">
<title>A20&#45;&gt;A22</title>
<path fill="none" stroke="#000000" d="M1291.488,-71.8314C1303.2069,-60.7292 1318.1209,-46.6002 1329.7289,-35.6031"/>
<polygon fill="#000000" stroke="#000000" points="1337.1572,-28.5658 1332.9925,-38.7101 1333.5274,-32.0046 1329.8976,-35.4433 1329.8976,-35.4433 1329.8976,-35.4433 1333.5274,-32.0046 1326.8028,-32.1765 1337.1572,-28.5658 1337.1572,-28.5658"/>
</g>
</g>
</svg>
