<?xml version="1.0" encoding="UTF-8" standalone="no"?>
<!DOCTYPE svg PUBLIC "-//W3C//DTD SVG 1.1//EN"
 "http://www.w3.org/Graphics/SVG/1.1/DTD/svg11.dtd">
<!-- Generated by graphviz version 2.40.1 (20161225.0304)
 -->
<!-- Title: G Pages: 1 -->
<svg width="1652pt" height="474pt"
 viewBox="0.00 0.00 1652.34 474.00" xmlns="http://www.w3.org/2000/svg" xmlns:xlink="http://www.w3.org/1999/xlink">
<g id="graph0" class="graph" transform="scale(1 1) rotate(0) translate(4 470)">
<title>G</title>
<polygon fill="#ffffff" stroke="transparent" points="-4,4 -4,-470 1648.3435,-470 1648.3435,4 -4,4"/>
<!-- A0 -->
<g id="node1" class="node">
<title>A0</title>
<polygon fill="#fff8dc" stroke="#000000" points="971.2445,-466 865.4305,-466 865.4305,-430 977.2445,-430 977.2445,-460 971.2445,-466"/>
<polyline fill="none" stroke="#000000" points="971.2445,-466 971.2445,-460 "/>
<polyline fill="none" stroke="#000000" points="977.2445,-460 971.2445,-460 "/>
<text text-anchor="middle" x="921.3375" y="-451" font-family="Helvetica,sans-Serif" font-size="10.00" fill="#000000">Venus sealer class</text>
<text text-anchor="middle" x="921.3375" y="-439" font-family="Helvetica,sans-Serif" font-size="10.00" fill="#000000">diagram</text>
</g>
<!-- A1 -->
<g id="node2" class="node">
<title>A1</title>
<polygon fill="none" stroke="#000000" points="1081.0688,-466 995.6062,-466 995.6062,-430 1081.0688,-430 1081.0688,-466"/>
<text text-anchor="middle" x="1038.3375" y="-445" font-family="Helvetica,sans-Serif" font-size="10.00" fill="#000000">venus&#45;sealer</text>
</g>
<!-- A2 -->
<g id="node3" class="node">
<title>A2</title>
<polygon fill="none" stroke="#000000" points="1024.3355,-380 936.3395,-380 936.3395,-344 1024.3355,-344 1024.3355,-380"/>
<text text-anchor="middle" x="980.3375" y="-359" font-family="Helvetica,sans-Serif" font-size="10.00" fill="#000000">MinerHandler</text>
</g>
<!-- A1&#45;&gt;A2 -->
<g id="edge1" class="edge">
<title>A1&#45;&gt;A2</title>
<path fill="none" stroke="#000000" d="M1019.1005,-419.4762C1010.3713,-406.5329 1000.3061,-391.6086 992.6201,-380.2121"/>
<polygon fill="none" stroke="#000000" points="1019.3274,-419.8127 1025.9986,-422.5506 1026.0372,-429.7616 1019.366,-427.0238 1019.3274,-419.8127"/>
</g>
<!-- A9 -->
<g id="node10" class="node">
<title>A9</title>
<polygon fill="none" stroke="#000000" points="1150.3025,-380 1042.3725,-380 1042.3725,-344 1150.3025,-344 1150.3025,-380"/>
<text text-anchor="middle" x="1096.3375" y="-359" font-family="Helvetica,sans-Serif" font-size="10.00" fill="#000000">nodeApi:FullNode</text>
</g>
<!-- A1&#45;&gt;A9 -->
<g id="edge8" class="edge">
<title>A1&#45;&gt;A9</title>
<path fill="none" stroke="#000000" d="M1057.5745,-419.4762C1066.3037,-406.5329 1076.3689,-391.6086 1084.0549,-380.2121"/>
<polygon fill="none" stroke="#000000" points="1057.3476,-419.8127 1057.309,-427.0238 1050.6378,-429.7616 1050.6764,-422.5506 1057.3476,-419.8127"/>
</g>
<!-- A3 -->
<g id="node4" class="node">
<title>A3</title>
<polygon fill="none" stroke="#000000" points="963.9566,-294 834.7184,-294 834.7184,-258 963.9566,-258 963.9566,-294"/>
<text text-anchor="middle" x="899.3375" y="-273" font-family="Helvetica,sans-Serif" font-size="10.00" fill="#000000">minerapi:StorageMiner</text>
</g>
<!-- A2&#45;&gt;A3 -->
<g id="edge2" class="edge">
<title>A2&#45;&gt;A3</title>
<path fill="none" stroke="#000000" d="M954.9256,-335.0195C942.4112,-321.7325 927.654,-306.0645 916.4908,-294.2121"/>
<polygon fill="none" stroke="#000000" points="954.9319,-335.0262 961.9575,-336.6514 963.1595,-343.7616 956.1339,-342.1364 954.9319,-335.0262"/>
</g>
<!-- A4 -->
<g id="node5" class="node">
<title>A4</title>
<polygon fill="none" stroke="#000000" points="1141.0058,-294 981.6692,-294 981.6692,-258 1141.0058,-258 1141.0058,-294"/>
<text text-anchor="middle" x="1061.3375" y="-273" font-family="Helvetica,sans-Serif" font-size="10.00" fill="#000000">rpcServer:jsonrpc.RPCServer</text>
</g>
<!-- A2&#45;&gt;A4 -->
<g id="edge3" class="edge">
<title>A2&#45;&gt;A4</title>
<path fill="none" stroke="#000000" d="M1005.7494,-335.0195C1018.2638,-321.7325 1033.021,-306.0645 1044.1842,-294.2121"/>
<polygon fill="none" stroke="#000000" points="1005.7431,-335.0262 1004.5411,-342.1364 997.5155,-343.7616 998.7175,-336.6514 1005.7431,-335.0262"/>
</g>
<!-- A5 -->
<g id="node6" class="node">
<title>A5</title>
<polygon fill="none" stroke="#000000" points="374.3003,-208 236.3747,-208 236.3747,-172 374.3003,-172 374.3003,-208"/>
<text text-anchor="middle" x="305.3375" y="-187" font-family="Helvetica,sans-Serif" font-size="10.00" fill="#000000">Messager:api.IMessager</text>
</g>
<!-- A3&#45;&gt;A5 -->
<g id="edge4" class="edge">
<title>A3&#45;&gt;A5</title>
<path fill="none" stroke="#000000" d="M822.6694,-264.8999C706.189,-248.0357 486.3973,-216.214 374.5278,-200.0174"/>
<polygon fill="none" stroke="#000000" points="822.7622,-264.9132 829.2734,-261.8143 834.6383,-266.6328 828.1271,-269.7317 822.7622,-264.9132"/>
</g>
<!-- A6 -->
<g id="node7" class="node">
<title>A6</title>
<polygon fill="none" stroke="#000000" points="823.919,-208 640.756,-208 640.756,-172 823.919,-172 823.919,-208"/>
<text text-anchor="middle" x="732.3375" y="-187" font-family="Helvetica,sans-Serif" font-size="10.00" fill="#000000">Prover:storage.WinningPoStProver</text>
</g>
<!-- A3&#45;&gt;A6 -->
<g id="edge5" class="edge">
<title>A3&#45;&gt;A6</title>
<path fill="none" stroke="#000000" d="M853.5081,-252.3993C826.2997,-238.3877 792.3397,-220.8993 767.3001,-208.0047"/>
<polygon fill="none" stroke="#000000" points="853.6603,-252.4776 860.8259,-251.6684 864.3288,-257.9716 857.1632,-258.7807 853.6603,-252.4776"/>
</g>
<!-- A11 -->
<g id="node12" class="node">
<title>A11</title>
<polygon fill="none" stroke="#000000" points="1162.6861,-208 1065.9889,-208 1065.9889,-172 1162.6861,-172 1162.6861,-208"/>
<text text-anchor="middle" x="1114.3375" y="-187" font-family="Helvetica,sans-Serif" font-size="10.00" fill="#000000">SectorManager</text>
</g>
<!-- A3&#45;&gt;A11 -->
<g id="edge10" class="edge">
<title>A3&#45;&gt;A11</title>
<path fill="none" stroke="#000000" d="M955.556,-253.5126C991.0283,-239.3237 1036.2296,-221.2432 1069.3258,-208.0047"/>
<polygon fill="none" stroke="#000000" points="955.5503,-253.5148 951.465,-259.4571 944.4085,-257.9716 948.4938,-252.0293 955.5503,-253.5148"/>
</g>
<!-- A12 -->
<g id="node13" class="node">
<title>A12</title>
<polygon fill="none" stroke="#000000" points="1480.1426,-208 1274.5324,-208 1274.5324,-172 1480.1426,-172 1480.1426,-208"/>
<text text-anchor="middle" x="1377.3375" y="-187" font-family="Helvetica,sans-Serif" font-size="10.00" fill="#000000">SectorBlocks:sectorblocks.SectorBlocks</text>
</g>
<!-- A3&#45;&gt;A12 -->
<g id="edge11" class="edge">
<title>A3&#45;&gt;A12</title>
<path fill="none" stroke="#000000" d="M976.1402,-257.2825C1082.8993,-235.4932 1195.0336,-217.2361 1274.1525,-205.1275"/>
<polygon fill="none" stroke="#000000" points="975.9123,-257.3293 970.8415,-262.4564 964.1585,-259.7477 969.2293,-254.6206 975.9123,-257.3293"/>
</g>
<!-- A7 -->
<g id="node8" class="node">
<title>A7</title>
<polygon fill="none" stroke="#000000" points="114.513,-122 .162,-122 .162,-86 114.513,-86 114.513,-122"/>
<text text-anchor="middle" x="57.3375" y="-101" font-family="Helvetica,sans-Serif" font-size="10.00" fill="#000000">messager rpc client</text>
</g>
<!-- A5&#45;&gt;A7 -->
<g id="edge7" class="edge">
<title>A5&#45;&gt;A7</title>
<path fill="none" stroke="#000000" d="M241.8146,-167.9719C200.7035,-153.7156 147.8473,-135.3865 109.258,-122.0047"/>
<polygon fill="none" stroke="#000000" points="242.0109,-168.0399 248.9903,-166.2265 253.3486,-171.9716 246.3692,-173.785 242.0109,-168.0399"/>
</g>
<!-- A17 -->
<g id="node18" class="node">
<title>A17</title>
<polygon fill="none" stroke="#000000" points="504.5199,-122 380.1551,-122 380.1551,-86 504.5199,-86 504.5199,-122"/>
<text text-anchor="middle" x="442.3375" y="-101" font-family="Helvetica,sans-Serif" font-size="10.00" fill="#000000">prover:storage.Prover</text>
</g>
<!-- A6&#45;&gt;A17 -->
<g id="edge16" class="edge">
<title>A6&#45;&gt;A17</title>
<path fill="none" stroke="#000000" d="M659.9028,-168.5194C611.5741,-154.1874 548.7553,-135.5584 503.051,-122.0047"/>
<polygon fill="none" stroke="#000000" points="660.0392,-168.5597 666.9289,-166.4307 671.544,-171.9716 664.6543,-174.1006 660.0392,-168.5597"/>
</g>
<!-- A18 -->
<g id="node19" class="node">
<title>A18</title>
<polygon fill="none" stroke="#000000" points="661.9405,-122 522.7345,-122 522.7345,-86 661.9405,-86 661.9405,-122"/>
<text text-anchor="middle" x="592.3375" y="-101" font-family="Helvetica,sans-Serif" font-size="10.00" fill="#000000">verifier:ffiwrapper.Verifier</text>
</g>
<!-- A6&#45;&gt;A18 -->
<g id="edge17" class="edge">
<title>A6&#45;&gt;A18</title>
<path fill="none" stroke="#000000" d="M692.6959,-165.6487C670.0983,-151.7674 642.2655,-134.6701 621.6474,-122.0047"/>
<polygon fill="none" stroke="#000000" points="692.764,-165.6905 699.9701,-165.4227 702.9889,-171.9716 695.7828,-172.2394 692.764,-165.6905"/>
</g>
<!-- A19 -->
<g id="node20" class="node">
<title>A19</title>
<polygon fill="none" stroke="#000000" points="785.0617,-122 679.6133,-122 679.6133,-86 785.0617,-86 785.0617,-122"/>
<text text-anchor="middle" x="732.3375" y="-101" font-family="Helvetica,sans-Serif" font-size="10.00" fill="#000000">miner:abi.ActorID</text>
</g>
<!-- A6&#45;&gt;A19 -->
<g id="edge18" class="edge">
<title>A6&#45;&gt;A19</title>
<path fill="none" stroke="#000000" d="M732.3375,-159.5205C732.3375,-147.0493 732.3375,-133.0388 732.3375,-122.2121"/>
<polygon fill="none" stroke="#000000" points="732.3376,-159.7616 736.3375,-165.7616 732.3375,-171.7616 728.3375,-165.7616 732.3376,-159.7616"/>
</g>
<!-- A20 -->
<g id="node21" class="node">
<title>A20</title>
<polygon fill="none" stroke="#000000" points="979.7575,-122 802.9175,-122 802.9175,-86 979.7575,-86 979.7575,-122"/>
<text text-anchor="middle" x="891.3375" y="-101" font-family="Helvetica,sans-Serif" font-size="10.00" fill="#000000">winnRpt:abi.RegisteredPoStProof</text>
</g>
<!-- A6&#45;&gt;A20 -->
<g id="edge19" class="edge">
<title>A6&#45;&gt;A20</title>
<path fill="none" stroke="#000000" d="M776.3172,-166.2122C802.1637,-152.2324 834.3156,-134.842 858.0498,-122.0047"/>
<polygon fill="none" stroke="#000000" points="776.2241,-166.2625 772.8496,-172.6354 765.6691,-171.9716 769.0436,-165.5987 776.2241,-166.2625"/>
</g>
<!-- A8 -->
<g id="node9" class="node">
<title>A8</title>
<polygon fill="#fff8dc" stroke="#000000" points="355.4159,-122 133.2591,-122 133.2591,-86 361.4159,-86 361.4159,-116 355.4159,-122"/>
<polyline fill="none" stroke="#000000" points="355.4159,-122 355.4159,-116 "/>
<polyline fill="none" stroke="#000000" points="361.4159,-116 355.4159,-116 "/>
<text text-anchor="middle" x="247.3375" y="-101" font-family="Helvetica,sans-Serif" font-size="10.00" fill="#000000">venus&#45;messager/api/client/NewMessageRPC</text>
</g>
<!-- A7&#45;&gt;A8 -->
<g id="edge6" class="edge">
<title>A7&#45;&gt;A8</title>
<path fill="none" stroke="#000000" stroke-dasharray="5,2" d="M114.857,-104C120.9808,-104 127.1046,-104 133.2283,-104"/>
</g>
<!-- A10 -->
<g id="node11" class="node">
<title>A10</title>
<polygon fill="none" stroke="#000000" points="1258.6751,-380 1167.9999,-380 1167.9999,-344 1264.6751,-344 1264.6751,-374 1258.6751,-380"/>
<polyline fill="none" stroke="#000000" points="1258.6751,-380 1258.6751,-374 "/>
<polyline fill="none" stroke="#000000" points="1264.6751,-374 1258.6751,-374 "/>
<text text-anchor="middle" x="1216.3375" y="-359" font-family="Helvetica,sans-Serif" font-size="10.00" fill="#000000">json RPC client</text>
</g>
<!-- A9&#45;&gt;A10 -->
<g id="edge9" class="edge">
<title>A9&#45;&gt;A10</title>
<path fill="none" stroke="#000000" stroke-dasharray="5,2" d="M1150.2438,-362C1156.1819,-362 1162.12,-362 1168.0581,-362"/>
</g>
<!-- A14 -->
<g id="node15" class="node">
<title>A14</title>
<polygon fill="none" stroke="#000000" points="1136.4141,-122 998.2609,-122 998.2609,-86 1136.4141,-86 1136.4141,-122"/>
<text text-anchor="middle" x="1067.3375" y="-101" font-family="Helvetica,sans-Serif" font-size="10.00" fill="#000000">ffiwrapper.StorageSealer</text>
</g>
<!-- A11&#45;&gt;A14 -->
<g id="edge13" class="edge">
<title>A11&#45;&gt;A14</title>
<path fill="none" stroke="#000000" d="M1098.5364,-161.0873C1091.5123,-148.2348 1083.4567,-133.4947 1077.2906,-122.2121"/>
<polygon fill="none" stroke="#000000" points="1098.6152,-161.2315 1105.0026,-164.5783 1104.37,-171.7616 1097.9826,-168.4149 1098.6152,-161.2315"/>
</g>
<!-- A15 -->
<g id="node16" class="node">
<title>A15</title>
<polygon fill="none" stroke="#000000" points="1247.9065,-122 1154.7685,-122 1154.7685,-86 1247.9065,-86 1247.9065,-122"/>
<text text-anchor="middle" x="1201.3375" y="-101" font-family="Helvetica,sans-Serif" font-size="10.00" fill="#000000">storage.Prover</text>
</g>
<!-- A11&#45;&gt;A15 -->
<g id="edge14" class="edge">
<title>A11&#45;&gt;A15</title>
<path fill="none" stroke="#000000" d="M1141.6317,-163.0195C1155.0732,-149.7325 1170.9234,-134.0645 1182.9136,-122.2121"/>
<polygon fill="none" stroke="#000000" points="1141.3222,-163.3255 1139.8671,-170.3883 1132.788,-171.7616 1134.243,-164.6988 1141.3222,-163.3255"/>
</g>
<!-- A16 -->
<g id="node17" class="node">
<title>A16</title>
<polygon fill="none" stroke="#000000" points="1350.4476,-122 1266.2274,-122 1266.2274,-86 1350.4476,-86 1350.4476,-122"/>
<text text-anchor="middle" x="1308.3375" y="-101" font-family="Helvetica,sans-Serif" font-size="10.00" fill="#000000">FaultTracker</text>
</g>
<!-- A11&#45;&gt;A16 -->
<g id="edge15" class="edge">
<title>A11&#45;&gt;A16</title>
<path fill="none" stroke="#000000" d="M1166.3163,-166.9578C1198.13,-152.8549 1238.2465,-135.0712 1267.7223,-122.0047"/>
<polygon fill="none" stroke="#000000" points="1165.9767,-167.1084 1162.1125,-173.1968 1155.0063,-171.9716 1158.8704,-165.8832 1165.9767,-167.1084"/>
</g>
<!-- A13 -->
<g id="node14" class="node">
<title>A13</title>
<polygon fill="none" stroke="#000000" points="1482.4646,-122 1368.2104,-122 1368.2104,-86 1482.4646,-86 1482.4646,-122"/>
<text text-anchor="middle" x="1425.3375" y="-101" font-family="Helvetica,sans-Serif" font-size="10.00" fill="#000000">keys:types.DealRef</text>
</g>
<!-- A12&#45;&gt;A13 -->
<g id="edge12" class="edge">
<title>A12&#45;&gt;A13</title>
<path fill="none" stroke="#000000" d="M1393.4748,-161.0873C1400.6483,-148.2348 1408.8754,-133.4947 1415.1726,-122.2121"/>
<polygon fill="none" stroke="#000000" points="1393.3655,-161.2832 1393.9341,-168.4719 1387.5171,-171.7616 1386.9485,-164.5729 1393.3655,-161.2832"/>
</g>
<!-- A21 -->
<g id="node22" class="node">
<title>A21</title>
<polygon fill="none" stroke="#000000" points="1300.3375,-36 1246.3375,-36 1246.3375,0 1300.3375,0 1300.3375,-36"/>
<text text-anchor="middle" x="1273.3375" y="-15" font-family="Helvetica,sans-Serif" font-size="10.00" fill="#000000">Id</text>
</g>
<!-- A13&#45;&gt;A21 -->
<g id="edge20" class="edge">
<title>A13&#45;&gt;A21</title>
<path fill="none" stroke="#000000" d="M1383.005,-80.0487C1356.6372,-65.1301 1323.4929,-46.3774 1300.5806,-33.4138"/>
<polygon fill="none" stroke="#000000" points="1383.0291,-80.0623 1390.221,-79.5355 1393.4733,-85.9716 1386.2815,-86.4984 1383.0291,-80.0623"/>
</g>
<!-- A22 -->
<g id="node23" class="node">
<title>A22</title>
<polygon fill="none" stroke="#000000" points="1374.7316,-36 1317.9434,-36 1317.9434,0 1374.7316,0 1374.7316,-36"/>
<text text-anchor="middle" x="1346.3375" y="-15" font-family="Helvetica,sans-Serif" font-size="10.00" fill="#000000">DealId</text>
</g>
<!-- A13&#45;&gt;A22 -->
<g id="edge21" class="edge">
<title>A13&#45;&gt;A22</title>
<path fill="none" stroke="#000000" d="M1400.2004,-76.6356C1388.0711,-63.4316 1373.8502,-47.9505 1363.0672,-36.2121"/>
<polygon fill="none" stroke="#000000" points="1400.4656,-76.9243 1407.4704,-78.6369 1408.5836,-85.7616 1401.5788,-84.049 1400.4656,-76.9243"/>
</g>
<!-- A23 -->
<g id="node24" class="node">
<title>A23</title>
<polygon fill="none" stroke="#000000" points="1458.0709,-36 1392.6041,-36 1392.6041,0 1458.0709,0 1458.0709,-36"/>
<text text-anchor="middle" x="1425.3375" y="-15" font-family="Helvetica,sans-Serif" font-size="10.00" fill="#000000">SectorId</text>
</g>
<!-- A13&#45;&gt;A23 -->
<g id="edge22" class="edge">
<title>A13&#45;&gt;A23</title>
<path fill="none" stroke="#000000" d="M1425.3375,-73.5205C1425.3375,-61.0493 1425.3375,-47.0388 1425.3375,-36.2121"/>
<polygon fill="none" stroke="#000000" points="1425.3376,-73.7616 1429.3375,-79.7616 1425.3375,-85.7616 1421.3375,-79.7616 1425.3376,-73.7616"/>
</g>
<!-- A24 -->
<g id="node25" class="node">
<title>A24</title>
<polygon fill="none" stroke="#000000" points="1548.801,-36 1475.874,-36 1475.874,0 1548.801,0 1548.801,-36"/>
<text text-anchor="middle" x="1512.3375" y="-15" font-family="Helvetica,sans-Serif" font-size="10.00" fill="#000000">PadOffset</text>
</g>
<!-- A13&#45;&gt;A24 -->
<g id="edge23" class="edge">
<title>A13&#45;&gt;A24</title>
<path fill="none" stroke="#000000" d="M1452.6317,-77.0195C1466.0732,-63.7325 1481.9234,-48.0645 1493.9136,-36.2121"/>
<polygon fill="none" stroke="#000000" points="1452.3222,-77.3255 1450.8671,-84.3883 1443.788,-85.7616 1445.243,-78.6988 1452.3222,-77.3255"/>
</g>
<!-- A25 -->
<g id="node26" class="node">
<title>A25</title>
<polygon fill="none" stroke="#000000" points="1644.3495,-36 1566.3255,-36 1566.3255,0 1644.3495,0 1644.3495,-36"/>
<text text-anchor="middle" x="1605.3375" y="-15" font-family="Helvetica,sans-Serif" font-size="10.00" fill="#000000">UnPadSize</text>
</g>
<!-- A13&#45;&gt;A25 -->
<g id="edge24" class="edge">
<title>A13&#45;&gt;A25</title>
<path fill="none" stroke="#000000" d="M1473.9541,-80.7721C1503.4094,-66.699 1540.4246,-49.0139 1567.6533,-36.0047"/>
<polygon fill="none" stroke="#000000" points="1473.8991,-80.7983 1470.2096,-86.9942 1463.0714,-85.9716 1466.7608,-79.7757 1473.8991,-80.7983"/>
</g>
</g>
</svg>
