<?xml version="1.0" encoding="UTF-8" standalone="no"?>
<!DOCTYPE svg PUBLIC "-//W3C//DTD SVG 1.1//EN"
 "http://www.w3.org/Graphics/SVG/1.1/DTD/svg11.dtd">
<!-- Generated by graphviz version 2.40.1 (20161225.0304)
 -->
<!-- Title: G Pages: 1 -->
<svg width="240pt" height="216pt"
 viewBox="0.00 0.00 239.61 216.00" xmlns="http://www.w3.org/2000/svg" xmlns:xlink="http://www.w3.org/1999/xlink">
<g id="graph0" class="graph" transform="scale(1 1) rotate(0) translate(4 212)">
<title>G</title>
<polygon fill="#ffffff" stroke="transparent" points="-4,4 -4,-212 235.61,-212 235.61,4 -4,4"/>
<!-- A0 -->
<g id="node1" class="node">
<title>A0</title>
<polygon fill="none" stroke="#000000" points="162.1162,-208 80.4348,-208 80.4348,-172 162.1162,-172 162.1162,-208"/>
<text text-anchor="middle" x="121.2755" y="-187" font-family="Helvetica,sans-Serif" font-size="10.00" fill="#000000">WalletEvent</text>
</g>
<!-- A1 -->
<g id="node2" class="node">
<title>A1</title>
<polygon fill="none" stroke="#000000" points="118.3273,-122 .2237,-122 .2237,-86 118.3273,-86 118.3273,-122"/>
<text text-anchor="middle" x="59.2755" y="-101" font-family="Helvetica,sans-Serif" font-size="10.00" fill="#000000">WalletRegisterClient</text>
</g>
<!-- A0&#45;&gt;A1 -->
<g id="edge1" class="edge">
<title>A0&#45;&gt;A1</title>
<path fill="none" stroke="#000000" d="M100.9913,-161.8639C91.5961,-148.8318 80.7034,-133.7226 72.4052,-122.2121"/>
<polygon fill="none" stroke="#000000" points="101.1092,-162.0275 107.8628,-164.5553 108.1269,-171.7616 101.3734,-169.2338 101.1092,-162.0275"/>
</g>
<!-- A2 -->
<g id="node3" class="node">
<title>A2</title>
<polygon fill="none" stroke="#000000" points="231.4451,-122 137.1059,-122 137.1059,-86 231.4451,-86 231.4451,-122"/>
<text text-anchor="middle" x="184.2755" y="-101" font-family="Helvetica,sans-Serif" font-size="10.00" fill="#000000">IWalletProcess</text>
</g>
<!-- A0&#45;&gt;A2 -->
<g id="edge2" class="edge">
<title>A0&#45;&gt;A2</title>
<path fill="none" stroke="#000000" d="M141.8869,-161.8639C151.4336,-148.8318 162.502,-133.7226 170.9341,-122.2121"/>
<polygon fill="none" stroke="#000000" points="141.7277,-162.0812 141.4088,-169.2852 134.6362,-171.7616 134.9551,-164.5575 141.7277,-162.0812"/>
</g>
<!-- A3 -->
<g id="node4" class="node">
<title>A3</title>
<polygon fill="none" stroke="#000000" points="89.5689,-36 28.9821,-36 28.9821,0 89.5689,0 89.5689,-36"/>
<text text-anchor="middle" x="59.2755" y="-15" font-family="Helvetica,sans-Serif" font-size="10.00" fill="#000000">APIInfo</text>
</g>
<!-- A1&#45;&gt;A3 -->
<g id="edge3" class="edge">
<title>A1&#45;&gt;A3</title>
<path fill="none" stroke="#000000" d="M59.2755,-73.5205C59.2755,-61.0493 59.2755,-47.0388 59.2755,-36.2121"/>
<polygon fill="none" stroke="#000000" points="59.2756,-73.7616 63.2755,-79.7616 59.2755,-85.7616 55.2755,-79.7616 59.2756,-73.7616"/>
</g>
</g>
</svg>
