<?xml version="1.0" encoding="UTF-8" standalone="no"?>
<!DOCTYPE svg PUBLIC "-//W3C//DTD SVG 1.1//EN"
 "http://www.w3.org/Graphics/SVG/1.1/DTD/svg11.dtd">
<!-- Generated by graphviz version 2.40.1 (20161225.0304)
 -->
<!-- Title: G Pages: 1 -->
<svg width="266pt" height="552pt"
 viewBox="0.00 0.00 266.47 552.00" xmlns="http://www.w3.org/2000/svg" xmlns:xlink="http://www.w3.org/1999/xlink">
<g id="graph0" class="graph" transform="scale(1 1) rotate(0) translate(4 548)">
<title>G</title>
<polygon fill="#ffffff" stroke="transparent" points="-4,4 -4,-548 262.4685,-548 262.4685,4 -4,4"/>
<!-- A0 -->
<g id="node1" class="node">
<title>A0</title>
<ellipse fill="none" stroke="#000000" cx="118.8975" cy="-533" rx="11" ry="11"/>
</g>
<!-- A1 -->
<g id="node2" class="node">
<title>A1</title>
<path fill="none" stroke="#000000" d="M164.6907,-485C164.6907,-485 73.1043,-485 73.1043,-485 67.1043,-485 61.1043,-479 61.1043,-473 61.1043,-473 61.1043,-461 61.1043,-461 61.1043,-455 67.1043,-449 73.1043,-449 73.1043,-449 164.6907,-449 164.6907,-449 170.6907,-449 176.6907,-455 176.6907,-461 176.6907,-461 176.6907,-473 176.6907,-473 176.6907,-479 170.6907,-485 164.6907,-485"/>
<text text-anchor="middle" x="118.8975" y="-464" font-family="Helvetica,sans-Serif" font-size="10.00" fill="#000000">createStorageMiner</text>
</g>
<!-- A0&#45;&gt;A1 -->
<g id="edge1" class="edge">
<title>A0&#45;&gt;A1</title>
<path fill="none" stroke="#000000" d="M118.8975,-521.804C118.8975,-514.5358 118.8975,-504.7135 118.8975,-495.3916"/>
<polygon fill="#000000" stroke="#000000" points="118.8975,-485.2423 123.3976,-495.2423 118.8975,-490.2423 118.8976,-495.2423 118.8976,-495.2423 118.8976,-495.2423 118.8975,-490.2423 114.3976,-495.2424 118.8975,-485.2423 118.8975,-485.2423"/>
</g>
<!-- A2 -->
<g id="node3" class="node">
<title>A2</title>
<polygon fill="none" stroke="#000000" points="118.8975,-412 100.8975,-394 118.8975,-376 136.8975,-394 118.8975,-412"/>
</g>
<!-- A1&#45;&gt;A2 -->
<g id="edge2" class="edge">
<title>A1&#45;&gt;A2</title>
<path fill="none" stroke="#000000" d="M118.8975,-448.9551C118.8975,-440.8828 118.8975,-431.1764 118.8975,-422.1817"/>
<polygon fill="#000000" stroke="#000000" points="118.8975,-412.0904 123.3976,-422.0903 118.8975,-417.0904 118.8976,-422.0904 118.8976,-422.0904 118.8976,-422.0904 118.8975,-417.0904 114.3976,-422.0904 118.8975,-412.0904 118.8975,-412.0904"/>
</g>
<!-- A3 -->
<g id="node4" class="node">
<title>A3</title>
<path fill="none" stroke="#000000" d="M93.6927,-328C93.6927,-328 12.1023,-328 12.1023,-328 6.1023,-328 .1023,-322 .1023,-316 .1023,-316 .1023,-304 .1023,-304 .1023,-298 6.1023,-292 12.1023,-292 12.1023,-292 93.6927,-292 93.6927,-292 99.6927,-292 105.6927,-298 105.6927,-304 105.6927,-304 105.6927,-316 105.6927,-316 105.6927,-322 99.6927,-328 93.6927,-328"/>
<text text-anchor="middle" x="52.8975" y="-307" font-family="Helvetica,sans-Serif" font-size="10.00" fill="#000000">parse owner addr</text>
</g>
<!-- A2&#45;&gt;A3 -->
<g id="edge3" class="edge">
<title>A2&#45;&gt;A3</title>
<path fill="none" stroke="#000000" d="M108.0656,-386.3659C99.1009,-379.6512 86.4552,-369.2201 77.6625,-358 72.8112,-351.8094 68.4804,-344.5227 64.8498,-337.5228"/>
<polygon fill="#000000" stroke="#000000" points="60.3499,-328.2849 68.7747,-335.3043 62.5395,-332.78 64.7292,-337.275 64.7292,-337.275 64.7292,-337.275 62.5395,-332.78 60.6836,-339.2457 60.3499,-328.2849 60.3499,-328.2849"/>
<text text-anchor="middle" x="116.515" y="-349" font-family="Helvetica,sans-Serif" font-size="10.00" fill="#000000">[Owner speicifed]</text>
</g>
<!-- A5 -->
<g id="node6" class="node">
<title>A5</title>
<path fill="none" stroke="#000000" d="M236.0196,-328C236.0196,-328 135.7754,-328 135.7754,-328 129.7754,-328 123.7754,-322 123.7754,-316 123.7754,-316 123.7754,-304 123.7754,-304 123.7754,-298 129.7754,-292 135.7754,-292 135.7754,-292 236.0196,-292 236.0196,-292 242.0196,-292 248.0196,-298 248.0196,-304 248.0196,-304 248.0196,-316 248.0196,-316 248.0196,-322 242.0196,-328 236.0196,-328"/>
<text text-anchor="middle" x="185.8975" y="-307" font-family="Helvetica,sans-Serif" font-size="10.00" fill="#000000">WalletDefaultAddress</text>
</g>
<!-- A2&#45;&gt;A5 -->
<g id="edge5" class="edge">
<title>A2&#45;&gt;A5</title>
<path fill="none" stroke="#000000" d="M128.6344,-385.3324C136.22,-378.3365 146.7889,-368.0391 154.8975,-358 160.1568,-351.4885 165.3168,-344.0551 169.8716,-337.0148"/>
<polygon fill="#000000" stroke="#000000" points="175.2794,-328.4062 173.7705,-339.2678 172.6197,-332.6401 169.96,-336.8741 169.96,-336.8741 169.96,-336.8741 172.6197,-332.6401 166.1494,-334.4803 175.2794,-328.4062 175.2794,-328.4062"/>
<text text-anchor="middle" x="210.683" y="-349" font-family="Helvetica,sans-Serif" font-size="10.00" fill="#000000">[Owner Not speicifed]</text>
</g>
<!-- A4 -->
<g id="node5" class="node">
<title>A4</title>
<path fill="none" stroke="#000000" d="M184.6307,-255C184.6307,-255 53.1643,-255 53.1643,-255 47.1643,-255 41.1643,-249 41.1643,-243 41.1643,-243 41.1643,-231 41.1643,-231 41.1643,-225 47.1643,-219 53.1643,-219 53.1643,-219 184.6307,-219 184.6307,-219 190.6307,-219 196.6307,-225 196.6307,-231 196.6307,-231 196.6307,-243 196.6307,-243 196.6307,-249 190.6307,-255 184.6307,-255"/>
<text text-anchor="middle" x="118.8975" y="-234" font-family="Helvetica,sans-Serif" font-size="10.00" fill="#000000">PushMessage&#45;CheckWorker</text>
</g>
<!-- A3&#45;&gt;A4 -->
<g id="edge4" class="edge">
<title>A3&#45;&gt;A4</title>
<path fill="none" stroke="#000000" d="M69.2121,-291.9551C77.2242,-283.0932 87.0171,-272.2616 95.7843,-262.5646"/>
<polygon fill="#000000" stroke="#000000" points="102.5418,-255.0904 99.1733,-265.5261 99.1886,-258.7993 95.8353,-262.5081 95.8353,-262.5081 95.8353,-262.5081 99.1886,-258.7993 92.4973,-259.4902 102.5418,-255.0904 102.5418,-255.0904"/>
</g>
<!-- A6 -->
<g id="node7" class="node">
<title>A6</title>
<path fill="none" stroke="#000000" d="M150.9596,-182C150.9596,-182 86.8354,-182 86.8354,-182 80.8354,-182 74.8354,-176 74.8354,-170 74.8354,-170 74.8354,-158 74.8354,-158 74.8354,-152 80.8354,-146 86.8354,-146 86.8354,-146 150.9596,-146 150.9596,-146 156.9596,-146 162.9596,-152 162.9596,-158 162.9596,-158 162.9596,-170 162.9596,-170 162.9596,-176 156.9596,-182 150.9596,-182"/>
<text text-anchor="middle" x="118.8975" y="-161" font-family="Helvetica,sans-Serif" font-size="10.00" fill="#000000">WaitMessage</text>
</g>
<!-- A4&#45;&gt;A6 -->
<g id="edge7" class="edge">
<title>A4&#45;&gt;A6</title>
<path fill="none" stroke="#000000" d="M118.8975,-218.9551C118.8975,-210.8828 118.8975,-201.1764 118.8975,-192.1817"/>
<polygon fill="#000000" stroke="#000000" points="118.8975,-182.0904 123.3976,-192.0903 118.8975,-187.0904 118.8976,-192.0904 118.8976,-192.0904 118.8976,-192.0904 118.8975,-187.0904 114.3976,-192.0904 118.8975,-182.0904 118.8975,-182.0904"/>
</g>
<!-- A5&#45;&gt;A4 -->
<g id="edge6" class="edge">
<title>A5&#45;&gt;A4</title>
<path fill="none" stroke="#000000" d="M169.3357,-291.9551C161.2022,-283.0932 151.2609,-272.2616 142.3609,-262.5646"/>
<polygon fill="#000000" stroke="#000000" points="135.501,-255.0904 145.5781,-259.4149 138.8819,-258.774 142.2628,-262.4577 142.2628,-262.4577 142.2628,-262.4577 138.8819,-258.774 138.9475,-265.5006 135.501,-255.0904 135.501,-255.0904"/>
</g>
<!-- A7 -->
<g id="node8" class="node">
<title>A7</title>
<path fill="none" stroke="#000000" d="M181.5778,-109C181.5778,-109 56.2172,-109 56.2172,-109 50.2172,-109 44.2172,-103 44.2172,-97 44.2172,-97 44.2172,-85 44.2172,-85 44.2172,-79 50.2172,-73 56.2172,-73 56.2172,-73 181.5778,-73 181.5778,-73 187.5778,-73 193.5778,-79 193.5778,-85 193.5778,-85 193.5778,-97 193.5778,-97 193.5778,-103 187.5778,-109 181.5778,-109"/>
<text text-anchor="middle" x="118.8975" y="-88" font-family="Helvetica,sans-Serif" font-size="10.00" fill="#000000">PushMessage&#45;CreateMiner</text>
</g>
<!-- A6&#45;&gt;A7 -->
<g id="edge8" class="edge">
<title>A6&#45;&gt;A7</title>
<path fill="none" stroke="#000000" d="M118.8975,-145.9551C118.8975,-137.8828 118.8975,-128.1764 118.8975,-119.1817"/>
<polygon fill="#000000" stroke="#000000" points="118.8975,-109.0904 123.3976,-119.0903 118.8975,-114.0904 118.8976,-119.0904 118.8976,-119.0904 118.8976,-119.0904 118.8975,-114.0904 114.3976,-119.0904 118.8975,-109.0904 118.8975,-109.0904"/>
</g>
<!-- A8 -->
<g id="node9" class="node">
<title>A8</title>
<path fill="none" stroke="#000000" d="M180.2865,-36C180.2865,-36 57.5085,-36 57.5085,-36 51.5085,-36 45.5085,-30 45.5085,-24 45.5085,-24 45.5085,-12 45.5085,-12 45.5085,-6 51.5085,0 57.5085,0 57.5085,0 180.2865,0 180.2865,0 186.2865,0 192.2865,-6 192.2865,-12 192.2865,-12 192.2865,-24 192.2865,-24 192.2865,-30 186.2865,-36 180.2865,-36"/>
<text text-anchor="middle" x="118.8975" y="-15" font-family="Helvetica,sans-Serif" font-size="10.00" fill="#000000">WaitMessage&#45;CreateMiner</text>
</g>
<!-- A7&#45;&gt;A8 -->
<g id="edge9" class="edge">
<title>A7&#45;&gt;A8</title>
<path fill="none" stroke="#000000" d="M118.8975,-72.9551C118.8975,-64.8828 118.8975,-55.1764 118.8975,-46.1817"/>
<polygon fill="#000000" stroke="#000000" points="118.8975,-36.0904 123.3976,-46.0903 118.8975,-41.0904 118.8976,-46.0904 118.8976,-46.0904 118.8976,-46.0904 118.8975,-41.0904 114.3976,-46.0904 118.8975,-36.0904 118.8975,-36.0904"/>
</g>
</g>
</svg>
