<?xml version="1.0" encoding="UTF-8" standalone="no"?>
<!DOCTYPE svg PUBLIC "-//W3C//DTD SVG 1.1//EN"
 "http://www.w3.org/Graphics/SVG/1.1/DTD/svg11.dtd">
<!-- Generated by graphviz version 2.40.1 (20161225.0304)
 -->
<!-- Title: G Pages: 1 -->
<svg width="590pt" height="918pt"
 viewBox="0.00 0.00 589.96 918.00" xmlns="http://www.w3.org/2000/svg" xmlns:xlink="http://www.w3.org/1999/xlink">
<g id="graph0" class="graph" transform="scale(1 1) rotate(0) translate(4 914)">
<title>G</title>
<polygon fill="#ffffff" stroke="transparent" points="-4,4 -4,-914 585.9645,-914 585.9645,4 -4,4"/>
<!-- A0 -->
<g id="node1" class="node">
<title>A0</title>
<ellipse fill="none" stroke="#000000" cx="350.732" cy="-892" rx="11" ry="11"/>
</g>
<!-- A1 -->
<g id="node2" class="node">
<title>A1</title>
<path fill="none" stroke="#000000" d="M367.1261,-838C367.1261,-838 334.3379,-838 334.3379,-838 328.3379,-838 322.3379,-832 322.3379,-826 322.3379,-826 322.3379,-814 322.3379,-814 322.3379,-808 328.3379,-802 334.3379,-802 334.3379,-802 367.1261,-802 367.1261,-802 373.1261,-802 379.1261,-808 379.1261,-814 379.1261,-814 379.1261,-826 379.1261,-826 379.1261,-832 373.1261,-838 367.1261,-838"/>
<text text-anchor="middle" x="350.732" y="-817" font-family="Helvetica,sans-Serif" font-size="10.00" fill="#000000">Online</text>
</g>
<!-- A0&#45;&gt;A1 -->
<g id="edge1" class="edge">
<title>A0&#45;&gt;A1</title>
<path fill="none" stroke="#000000" d="M350.732,-880.75C350.732,-872.0291 350.732,-859.5523 350.732,-848.1722"/>
<polygon fill="#000000" stroke="#000000" points="350.732,-838.1686 355.2321,-848.1686 350.732,-843.1686 350.7321,-848.1686 350.7321,-848.1686 350.7321,-848.1686 350.732,-843.1686 346.2321,-848.1687 350.732,-838.1686 350.732,-838.1686"/>
</g>
<!-- A2 -->
<g id="node3" class="node">
<title>A2</title>
<polygon fill="#d3d3d3" stroke="#000000" stroke-width="4" points="341.732,-761.5 341.732,-765.5 377.732,-765.5 377.732,-761.5 341.732,-761.5"/>
<text text-anchor="middle" x="350.371" y="-763.2" font-family="Helvetica,sans-Serif" font-size="1.00" fill="#000000"> </text>
<polyline fill="none" stroke="#000000" stroke-width="4" points="359.0099,-761.5 359.0099,-765.5 "/>
<text text-anchor="middle" x="368.1489" y="-763.2" font-family="Helvetica,sans-Serif" font-size="1.00" fill="#000000"> </text>
</g>
<!-- A1&#45;&gt;A2 -->
<g id="edge2" class="edge">
<title>A1&#45;&gt;A2:n</title>
<path fill="none" stroke="#000000" d="M350.732,-801.8333C350.732,-794.1338 350.732,-784.8359 350.732,-775.6816"/>
<polygon fill="#000000" stroke="#000000" points="350.732,-765.5 355.2321,-775.5 350.732,-770.5 350.7321,-775.5 350.7321,-775.5 350.7321,-775.5 350.732,-770.5 346.2321,-775.5 350.732,-765.5 350.732,-765.5"/>
</g>
<!-- A3 -->
<g id="node4" class="node">
<title>A3</title>
<path fill="none" stroke="#000000" d="M261.5362,-725C261.5362,-725 169.9278,-725 169.9278,-725 163.9278,-725 157.9278,-719 157.9278,-713 157.9278,-713 157.9278,-701 157.9278,-701 157.9278,-695 163.9278,-689 169.9278,-689 169.9278,-689 261.5362,-689 261.5362,-689 267.5362,-689 273.5362,-695 273.5362,-701 273.5362,-701 273.5362,-713 273.5362,-713 273.5362,-719 267.5362,-725 261.5362,-725"/>
<text text-anchor="middle" x="215.732" y="-704" font-family="Helvetica,sans-Serif" font-size="10.00" fill="#000000">StartProofEventKey</text>
</g>
<!-- A2&#45;&gt;A3 -->
<g id="edge3" class="edge">
<title>A2&#45;&gt;A3</title>
<path fill="none" stroke="#000000" d="M354.607,-761.4891C341.2005,-756.2289 303.8748,-741.5838 271.2935,-728.8002"/>
<polygon fill="#000000" stroke="#000000" points="261.8112,-725.0797 272.764,-724.5432 266.4658,-726.906 271.1203,-728.7323 271.1203,-728.7323 271.1203,-728.7323 266.4658,-726.906 269.4766,-732.9214 261.8112,-725.0797 261.8112,-725.0797"/>
</g>
<!-- A18 -->
<g id="node19" class="node">
<title>A18</title>
<path fill="none" stroke="#000000" d="M415.4632,-725C415.4632,-725 304.0008,-725 304.0008,-725 298.0008,-725 292.0008,-719 292.0008,-713 292.0008,-713 292.0008,-701 292.0008,-701 292.0008,-695 298.0008,-689 304.0008,-689 304.0008,-689 415.4632,-689 415.4632,-689 421.4632,-689 427.4632,-695 427.4632,-701 427.4632,-701 427.4632,-713 427.4632,-713 427.4632,-719 421.4632,-725 415.4632,-725"/>
<text text-anchor="middle" x="359.732" y="-704" font-family="Helvetica,sans-Serif" font-size="10.00" fill="#000000">NewWinningPoStProver</text>
</g>
<!-- A2&#45;&gt;A18 -->
<g id="edge18" class="edge">
<title>A2&#45;&gt;A18</title>
<path fill="none" stroke="#000000" d="M359.732,-761.0723C359.732,-756.4782 359.732,-746.0295 359.732,-735.5293"/>
<polygon fill="#000000" stroke="#000000" points="359.732,-725.2269 364.2321,-735.2269 359.732,-730.2269 359.7321,-735.2269 359.7321,-735.2269 359.7321,-735.2269 359.732,-730.2269 355.2321,-735.227 359.732,-725.2269 359.732,-725.2269"/>
</g>
<!-- A4 -->
<g id="node5" class="node">
<title>A4</title>
<path fill="none" stroke="#000000" d="M252.8089,-653C252.8089,-653 178.6551,-653 178.6551,-653 172.6551,-653 166.6551,-647 166.6551,-641 166.6551,-641 166.6551,-629 166.6551,-629 166.6551,-623 172.6551,-617 178.6551,-617 178.6551,-617 252.8089,-617 252.8089,-617 258.8089,-617 264.8089,-623 264.8089,-629 264.8089,-629 264.8089,-641 264.8089,-641 264.8089,-647 258.8089,-653 252.8089,-653"/>
<text text-anchor="middle" x="215.732" y="-632" font-family="Helvetica,sans-Serif" font-size="10.00" fill="#000000">StartProofEvent</text>
</g>
<!-- A3&#45;&gt;A4 -->
<g id="edge4" class="edge">
<title>A3&#45;&gt;A4</title>
<path fill="none" stroke="#000000" d="M215.732,-688.8314C215.732,-681.131 215.732,-671.9743 215.732,-663.4166"/>
<polygon fill="#000000" stroke="#000000" points="215.732,-653.4133 220.2321,-663.4132 215.732,-658.4133 215.7321,-663.4133 215.7321,-663.4133 215.7321,-663.4133 215.732,-658.4133 211.2321,-663.4133 215.732,-653.4133 215.732,-653.4133"/>
</g>
<!-- A5 -->
<g id="node6" class="node">
<title>A5</title>
<path fill="none" stroke="#000000" d="M265.244,-581C265.244,-581 166.22,-581 166.22,-581 160.22,-581 154.22,-575 154.22,-569 154.22,-569 154.22,-557 154.22,-557 154.22,-551 160.22,-545 166.22,-545 166.22,-545 265.244,-545 265.244,-545 271.244,-545 277.244,-551 277.244,-557 277.244,-557 277.244,-569 277.244,-569 277.244,-575 271.244,-581 265.244,-581"/>
<text text-anchor="middle" x="215.732" y="-560" font-family="Helvetica,sans-Serif" font-size="10.00" fill="#000000">NewProofEventClient</text>
</g>
<!-- A4&#45;&gt;A5 -->
<g id="edge5" class="edge">
<title>A4&#45;&gt;A5</title>
<path fill="none" stroke="#000000" d="M215.732,-616.8314C215.732,-609.131 215.732,-599.9743 215.732,-591.4166"/>
<polygon fill="#000000" stroke="#000000" points="215.732,-581.4133 220.2321,-591.4132 215.732,-586.4133 215.7321,-591.4133 215.7321,-591.4133 215.7321,-591.4133 215.732,-586.4133 211.2321,-591.4133 215.732,-581.4133 215.732,-581.4133"/>
</g>
<!-- A6 -->
<g id="node7" class="node">
<title>A6</title>
<path fill="none" stroke="#000000" d="M195.197,-509C195.197,-509 106.267,-509 106.267,-509 100.267,-509 94.267,-503 94.267,-497 94.267,-497 94.267,-485 94.267,-485 94.267,-479 100.267,-473 106.267,-473 106.267,-473 195.197,-473 195.197,-473 201.197,-473 207.197,-479 207.197,-485 207.197,-485 207.197,-497 207.197,-497 207.197,-503 201.197,-509 195.197,-509"/>
<text text-anchor="middle" x="150.732" y="-488" font-family="Helvetica,sans-Serif" font-size="10.00" fill="#000000">listenProofRequest</text>
</g>
<!-- A5&#45;&gt;A6 -->
<g id="edge6" class="edge">
<title>A5&#45;&gt;A6</title>
<path fill="none" stroke="#000000" d="M199.3298,-544.8314C191.6905,-536.3694 182.4637,-526.1489 174.1113,-516.8971"/>
<polygon fill="#000000" stroke="#000000" points="167.3551,-509.4133 177.3964,-513.8205 170.7056,-513.1246 174.0562,-516.836 174.0562,-516.836 174.0562,-516.836 170.7056,-513.1246 170.7159,-519.8515 167.3551,-509.4133 167.3551,-509.4133"/>
</g>
<!-- A7 -->
<g id="node8" class="node">
<title>A7</title>
<polygon fill="none" stroke="#000000" points="330.6036,-509 224.8604,-509 224.8604,-473 336.6036,-473 336.6036,-503 330.6036,-509"/>
<polyline fill="none" stroke="#000000" points="330.6036,-509 330.6036,-503 "/>
<polyline fill="none" stroke="#000000" points="336.6036,-503 330.6036,-503 "/>
<text text-anchor="middle" x="280.732" y="-488" font-family="Helvetica,sans-Serif" font-size="10.00" fill="#000000">APIInfo {url, token}</text>
</g>
<!-- A5&#45;&gt;A7 -->
<g id="edge7" class="edge">
<title>A5&#45;&gt;A7</title>
<path fill="none" stroke="#000000" stroke-dasharray="5,2" d="M232.1342,-544.8314C239.7735,-536.3694 249.0003,-526.1489 257.3527,-516.8971"/>
<polygon fill="#000000" stroke="#000000" points="264.1089,-509.4133 260.7481,-519.8515 260.7584,-513.1246 257.4078,-516.836 257.4078,-516.836 257.4078,-516.836 260.7584,-513.1246 254.0676,-513.8205 264.1089,-509.4133 264.1089,-509.4133"/>
</g>
<!-- A8 -->
<g id="node9" class="node">
<title>A8</title>
<path fill="none" stroke="#000000" d="M207.0935,-437C207.0935,-437 94.3705,-437 94.3705,-437 88.3705,-437 82.3705,-431 82.3705,-425 82.3705,-425 82.3705,-413 82.3705,-413 82.3705,-407 88.3705,-401 94.3705,-401 94.3705,-401 207.0935,-401 207.0935,-401 213.0935,-401 219.0935,-407 219.0935,-413 219.0935,-413 219.0935,-425 219.0935,-425 219.0935,-431 213.0935,-437 207.0935,-437"/>
<text text-anchor="middle" x="150.732" y="-416" font-family="Helvetica,sans-Serif" font-size="10.00" fill="#000000">listenProofRequestOnce</text>
</g>
<!-- A6&#45;&gt;A8 -->
<g id="edge8" class="edge">
<title>A6&#45;&gt;A8</title>
<path fill="none" stroke="#000000" d="M150.732,-472.8314C150.732,-465.131 150.732,-455.9743 150.732,-447.4166"/>
<polygon fill="#000000" stroke="#000000" points="150.732,-437.4133 155.2321,-447.4132 150.732,-442.4133 150.7321,-447.4133 150.7321,-447.4133 150.7321,-447.4133 150.732,-442.4133 146.2321,-447.4133 150.732,-437.4133 150.732,-437.4133"/>
</g>
<!-- A9 -->
<g id="node10" class="node">
<title>A9</title>
<path fill="none" stroke="#000000" d="M190.8681,-365C190.8681,-365 110.5959,-365 110.5959,-365 104.5959,-365 98.5959,-359 98.5959,-353 98.5959,-353 98.5959,-341 98.5959,-341 98.5959,-335 104.5959,-329 110.5959,-329 110.5959,-329 190.8681,-329 190.8681,-329 196.8681,-329 202.8681,-335 202.8681,-341 202.8681,-341 202.8681,-353 202.8681,-353 202.8681,-359 196.8681,-365 190.8681,-365"/>
<text text-anchor="middle" x="150.732" y="-344" font-family="Helvetica,sans-Serif" font-size="10.00" fill="#000000">ListenProofEvent</text>
</g>
<!-- A8&#45;&gt;A9 -->
<g id="edge9" class="edge">
<title>A8&#45;&gt;A9</title>
<path fill="none" stroke="#000000" d="M150.732,-400.8314C150.732,-393.131 150.732,-383.9743 150.732,-375.4166"/>
<polygon fill="#000000" stroke="#000000" points="150.732,-365.4133 155.2321,-375.4132 150.732,-370.4133 150.7321,-375.4133 150.7321,-375.4133 150.7321,-375.4133 150.732,-370.4133 146.2321,-375.4133 150.732,-365.4133 150.732,-365.4133"/>
</g>
<!-- A10 -->
<g id="node11" class="node">
<title>A10</title>
<polygon fill="#d3d3d3" stroke="#000000" stroke-width="4" points="141.732,-288.5 141.732,-292.5 177.732,-292.5 177.732,-288.5 141.732,-288.5"/>
<text text-anchor="middle" x="150.3709" y="-290.2" font-family="Helvetica,sans-Serif" font-size="1.00" fill="#000000"> </text>
<polyline fill="none" stroke="#000000" stroke-width="4" points="159.0099,-288.5 159.0099,-292.5 "/>
<text text-anchor="middle" x="168.1488" y="-290.2" font-family="Helvetica,sans-Serif" font-size="1.00" fill="#000000"> </text>
</g>
<!-- A9&#45;&gt;A10 -->
<g id="edge10" class="edge">
<title>A9&#45;&gt;A10:n</title>
<path fill="none" stroke="#000000" d="M150.732,-328.8333C150.732,-321.1338 150.732,-311.8359 150.732,-302.6816"/>
<polygon fill="#000000" stroke="#000000" points="150.732,-292.5 155.2321,-302.5 150.732,-297.5 150.7321,-302.5 150.7321,-302.5 150.7321,-302.5 150.732,-297.5 146.2321,-302.5 150.732,-292.5 150.732,-292.5"/>
</g>
<!-- A11 -->
<g id="node12" class="node">
<title>A11</title>
<path fill="none" stroke="#000000" d="M194.8032,-252C194.8032,-252 140.6608,-252 140.6608,-252 134.6608,-252 128.6608,-246 128.6608,-240 128.6608,-240 128.6608,-228 128.6608,-228 128.6608,-222 134.6608,-216 140.6608,-216 140.6608,-216 194.8032,-216 194.8032,-216 200.8032,-216 206.8032,-222 206.8032,-228 206.8032,-228 206.8032,-240 206.8032,-240 206.8032,-246 200.8032,-252 194.8032,-252"/>
<text text-anchor="middle" x="167.732" y="-231" font-family="Helvetica,sans-Serif" font-size="10.00" fill="#000000">InitConnect</text>
</g>
<!-- A10&#45;&gt;A11 -->
<g id="edge11" class="edge">
<title>A10&#45;&gt;A11</title>
<path fill="none" stroke="#000000" d="M160.0757,-288.0723C160.733,-283.4304 162.2366,-272.8112 163.7389,-262.2012"/>
<polygon fill="#000000" stroke="#000000" points="165.1512,-252.2269 168.2047,-262.7591 164.4502,-257.1775 163.7492,-262.1282 163.7492,-262.1282 163.7492,-262.1282 164.4502,-257.1775 159.2936,-261.4972 165.1512,-252.2269 165.1512,-252.2269"/>
</g>
<!-- A12 -->
<g id="node13" class="node">
<title>A12</title>
<path fill="none" stroke="#000000" d="M98.1911,-252C98.1911,-252 29.2729,-252 29.2729,-252 23.2729,-252 17.2729,-246 17.2729,-240 17.2729,-240 17.2729,-228 17.2729,-228 17.2729,-222 23.2729,-216 29.2729,-216 29.2729,-216 98.1911,-216 98.1911,-216 104.1911,-216 110.1911,-222 110.1911,-228 110.1911,-228 110.1911,-240 110.1911,-240 110.1911,-246 104.1911,-252 98.1911,-252"/>
<text text-anchor="middle" x="63.732" y="-231" font-family="Helvetica,sans-Serif" font-size="10.00" fill="#000000">ComputeProof</text>
</g>
<!-- A10&#45;&gt;A12 -->
<g id="edge13" class="edge">
<title>A10&#45;&gt;A12</title>
<path fill="none" stroke="#000000" d="M156.0859,-288.3541C147.3353,-283.204 124.3198,-269.6584 103.4556,-257.379"/>
<polygon fill="#000000" stroke="#000000" points="94.6934,-252.222 105.5941,-253.4161 99.0025,-254.7582 103.3116,-257.2943 103.3116,-257.2943 103.3116,-257.2943 99.0025,-254.7582 101.0291,-261.1725 94.6934,-252.222 94.6934,-252.222"/>
</g>
<!-- A11&#45;&gt;A10 -->
<g id="edge12" class="edge">
<title>A11&#45;&gt;A10:n</title>
<path fill="none" stroke="#000000" d="M177.947,-252.0421C183.8094,-265.0488 188.1506,-282.0814 177.732,-292.5 177.6338,-292.5982 177.532,-292.6946 177.4268,-292.7891"/>
<polygon fill="#000000" stroke="#000000" points="167.732,-292.5 177.8617,-288.3002 172.7298,-292.6491 177.7276,-292.7982 177.7276,-292.7982 177.7276,-292.7982 172.7298,-292.6491 177.5934,-297.2962 167.732,-292.5 167.732,-292.5"/>
</g>
<!-- A13 -->
<g id="node14" class="node">
<title>A13</title>
<path fill="none" stroke="#000000" d="M115.6968,-180C115.6968,-180 11.7672,-180 11.7672,-180 5.7672,-180 -.2328,-174 -.2328,-168 -.2328,-168 -.2328,-156 -.2328,-156 -.2328,-150 5.7672,-144 11.7672,-144 11.7672,-144 115.6968,-144 115.6968,-144 121.6968,-144 127.6968,-150 127.6968,-156 127.6968,-156 127.6968,-168 127.6968,-168 127.6968,-174 121.6968,-180 115.6968,-180"/>
<text text-anchor="middle" x="63.732" y="-159" font-family="Helvetica,sans-Serif" font-size="10.00" fill="#000000">processComputeProof</text>
</g>
<!-- A12&#45;&gt;A13 -->
<g id="edge14" class="edge">
<title>A12&#45;&gt;A13</title>
<path fill="none" stroke="#000000" d="M63.732,-215.8314C63.732,-208.131 63.732,-198.9743 63.732,-190.4166"/>
<polygon fill="#000000" stroke="#000000" points="63.732,-180.4133 68.2321,-190.4132 63.732,-185.4133 63.7321,-190.4133 63.7321,-190.4133 63.7321,-190.4133 63.732,-185.4133 59.2321,-190.4133 63.732,-180.4133 63.732,-180.4133"/>
</g>
<!-- A14 -->
<g id="node15" class="node">
<title>A14</title>
<path fill="none" stroke="#000000" d="M113.3047,-108C113.3047,-108 14.1593,-108 14.1593,-108 8.1593,-108 2.1593,-102 2.1593,-96 2.1593,-96 2.1593,-84 2.1593,-84 2.1593,-78 8.1593,-72 14.1593,-72 14.1593,-72 113.3047,-72 113.3047,-72 119.3047,-72 125.3047,-78 125.3047,-84 125.3047,-84 125.3047,-96 125.3047,-96 125.3047,-102 119.3047,-108 113.3047,-108"/>
<text text-anchor="middle" x="63.732" y="-87" font-family="Helvetica,sans-Serif" font-size="10.00" fill="#000000">prover.ComputeProof</text>
</g>
<!-- A13&#45;&gt;A14 -->
<g id="edge15" class="edge">
<title>A13&#45;&gt;A14</title>
<path fill="none" stroke="#000000" d="M63.732,-143.8314C63.732,-136.131 63.732,-126.9743 63.732,-118.4166"/>
<polygon fill="#000000" stroke="#000000" points="63.732,-108.4133 68.2321,-118.4132 63.732,-113.4133 63.7321,-118.4133 63.7321,-118.4133 63.7321,-118.4133 63.732,-113.4133 59.2321,-118.4133 63.732,-108.4133 63.732,-108.4133"/>
</g>
<!-- A15 -->
<g id="node16" class="node">
<title>A15</title>
<path fill="none" stroke="#000000" d="M113.2079,-36C113.2079,-36 14.2561,-36 14.2561,-36 8.2561,-36 2.2561,-30 2.2561,-24 2.2561,-24 2.2561,-12 2.2561,-12 2.2561,-6 8.2561,0 14.2561,0 14.2561,0 113.2079,0 113.2079,0 119.2079,0 125.2079,-6 125.2079,-12 125.2079,-12 125.2079,-24 125.2079,-24 125.2079,-30 119.2079,-36 113.2079,-36"/>
<text text-anchor="middle" x="63.732" y="-15" font-family="Helvetica,sans-Serif" font-size="10.00" fill="#000000">ResponseProofEvent</text>
</g>
<!-- A14&#45;&gt;A15 -->
<g id="edge16" class="edge">
<title>A14&#45;&gt;A15</title>
<path fill="none" stroke="#000000" d="M63.732,-71.8314C63.732,-64.131 63.732,-54.9743 63.732,-46.4166"/>
<polygon fill="#000000" stroke="#000000" points="63.732,-36.4133 68.2321,-46.4132 63.732,-41.4133 63.7321,-46.4133 63.7321,-46.4133 63.7321,-46.4133 63.732,-41.4133 59.2321,-46.4133 63.732,-36.4133 63.732,-36.4133"/>
</g>
<!-- A16 -->
<g id="node17" class="node">
<title>A16</title>
<path fill="none" stroke="#000000" d="M570.1975,-910C570.1975,-910 391.2665,-910 391.2665,-910 385.2665,-910 379.2665,-904 379.2665,-898 379.2665,-898 379.2665,-886 379.2665,-886 379.2665,-880 385.2665,-874 391.2665,-874 391.2665,-874 570.1975,-874 570.1975,-874 576.1975,-874 582.1975,-880 582.1975,-886 582.1975,-886 582.1975,-898 582.1975,-898 582.1975,-904 576.1975,-910 570.1975,-910"/>
<text text-anchor="middle" x="480.732" y="-889" font-family="Helvetica,sans-Serif" font-size="10.00" fill="#000000">prover:ffiwrapper.Prover.ComputeProof</text>
</g>
<!-- A17 -->
<g id="node18" class="node">
<title>A17</title>
<path fill="none" stroke="#000000" d="M532.7039,-838C532.7039,-838 428.7601,-838 428.7601,-838 422.7601,-838 416.7601,-832 416.7601,-826 416.7601,-826 416.7601,-814 416.7601,-814 416.7601,-808 422.7601,-802 428.7601,-802 428.7601,-802 532.7039,-802 532.7039,-802 538.7039,-802 544.7039,-808 544.7039,-814 544.7039,-814 544.7039,-826 544.7039,-826 544.7039,-832 538.7039,-838 532.7039,-838"/>
<text text-anchor="middle" x="480.732" y="-817" font-family="Helvetica,sans-Serif" font-size="10.00" fill="#000000">GenerateWinningPoSt</text>
</g>
<!-- A16&#45;&gt;A17 -->
<g id="edge17" class="edge">
<title>A16&#45;&gt;A17</title>
<path fill="none" stroke="#000000" d="M480.732,-873.8314C480.732,-866.131 480.732,-856.9743 480.732,-848.4166"/>
<polygon fill="#000000" stroke="#000000" points="480.732,-838.4133 485.2321,-848.4132 480.732,-843.4133 480.7321,-848.4133 480.7321,-848.4133 480.7321,-848.4133 480.732,-843.4133 476.2321,-848.4133 480.732,-838.4133 480.732,-838.4133"/>
</g>
<!-- A19 -->
<g id="node20" class="node">
<title>A19</title>
<path fill="none" stroke="#000000" d="M410.4662,-653C410.4662,-653 318.9978,-653 318.9978,-653 312.9978,-653 306.9978,-647 306.9978,-641 306.9978,-641 306.9978,-629 306.9978,-629 306.9978,-623 312.9978,-617 318.9978,-617 318.9978,-617 410.4662,-617 410.4662,-617 416.4662,-617 422.4662,-623 422.4662,-629 422.4662,-629 422.4662,-641 422.4662,-641 422.4662,-647 416.4662,-653 410.4662,-653"/>
<text text-anchor="middle" x="364.732" y="-632" font-family="Helvetica,sans-Serif" font-size="10.00" fill="#000000">WinningPoStProver</text>
</g>
<!-- A18&#45;&gt;A19 -->
<g id="edge19" class="edge">
<title>A18&#45;&gt;A19</title>
<path fill="none" stroke="#000000" d="M360.9937,-688.8314C361.5285,-681.131 362.1643,-671.9743 362.7586,-663.4166"/>
<polygon fill="#000000" stroke="#000000" points="363.4533,-653.4133 367.2496,-663.701 363.1069,-658.4013 362.7604,-663.3892 362.7604,-663.3892 362.7604,-663.3892 363.1069,-658.4013 358.2712,-663.0775 363.4533,-653.4133 363.4533,-653.4133"/>
</g>
<!-- A20 -->
<g id="node21" class="node">
<title>A20</title>
<path fill="none" stroke="#000000" d="M442.3031,-581C442.3031,-581 383.1609,-581 383.1609,-581 377.1609,-581 371.1609,-575 371.1609,-569 371.1609,-569 371.1609,-557 371.1609,-557 371.1609,-551 377.1609,-545 383.1609,-545 383.1609,-545 442.3031,-545 442.3031,-545 448.3031,-545 454.3031,-551 454.3031,-557 454.3031,-557 454.3031,-569 454.3031,-569 454.3031,-575 448.3031,-581 442.3031,-581"/>
<text text-anchor="middle" x="412.732" y="-560" font-family="Helvetica,sans-Serif" font-size="10.00" fill="#000000">StorageWpp</text>
</g>
<!-- A19&#45;&gt;A20 -->
<g id="edge20" class="edge">
<title>A19&#45;&gt;A20</title>
<path fill="none" stroke="#000000" d="M376.8444,-616.8314C382.2601,-608.7079 388.7562,-598.9637 394.7241,-590.0118"/>
<polygon fill="#000000" stroke="#000000" points="400.4565,-581.4133 398.6537,-592.23 397.683,-585.5735 394.9094,-589.7338 394.9094,-589.7338 394.9094,-589.7338 397.683,-585.5735 391.1652,-587.2376 400.4565,-581.4133 400.4565,-581.4133"/>
</g>
<!-- A20&#45;&gt;A2 -->
<g id="edge21" class="edge">
<title>A20&#45;&gt;A2:n</title>
<path fill="none" stroke="#000000" d="M422.1834,-581.2068C437.0176,-612.5056 461.6336,-677.7027 436.732,-725 406.6448,-782.1467 367.732,-774.4727 367.732,-765.5"/>
</g>
</g>
</svg>
