<?xml version="1.0" encoding="UTF-8" standalone="no"?>
<!DOCTYPE svg PUBLIC "-//W3C//DTD SVG 1.1//EN"
 "http://www.w3.org/Graphics/SVG/1.1/DTD/svg11.dtd">
<!-- Generated by graphviz version 2.40.1 (20161225.0304)
 -->
<!-- Title: G Pages: 1 -->
<svg width="612pt" height="130pt"
 viewBox="0.00 0.00 612.17 130.00" xmlns="http://www.w3.org/2000/svg" xmlns:xlink="http://www.w3.org/1999/xlink">
<g id="graph0" class="graph" transform="scale(1 1) rotate(0) translate(4 126)">
<title>G</title>
<polygon fill="#ffffff" stroke="transparent" points="-4,4 -4,-126 608.173,-126 608.173,4 -4,4"/>
<!-- A0 -->
<g id="node1" class="node">
<title>A0</title>
<polygon fill="#fff8dc" stroke="#000000" points="250.906,-122 145.092,-122 145.092,-86 256.906,-86 256.906,-116 250.906,-122"/>
<polyline fill="none" stroke="#000000" points="250.906,-122 250.906,-116 "/>
<polyline fill="none" stroke="#000000" points="256.906,-116 250.906,-116 "/>
<text text-anchor="middle" x="200.999" y="-107" font-family="Helvetica,sans-Serif" font-size="10.00" fill="#000000">Venus sealer class</text>
<text text-anchor="middle" x="200.999" y="-95" font-family="Helvetica,sans-Serif" font-size="10.00" fill="#000000">diagram</text>
</g>
<!-- A1 -->
<g id="node2" class="node">
<title>A1</title>
<polygon fill="none" stroke="#000000" points="360.7303,-122 275.2677,-122 275.2677,-86 360.7303,-86 360.7303,-122"/>
<text text-anchor="middle" x="317.999" y="-101" font-family="Helvetica,sans-Serif" font-size="10.00" fill="#000000">venus&#45;sealer</text>
</g>
<!-- A2 -->
<g id="node3" class="node">
<title>A2</title>
<polygon fill="none" stroke="#000000" points="87.997,-36 .001,-36 .001,0 87.997,0 87.997,-36"/>
<text text-anchor="middle" x="43.999" y="-15" font-family="Helvetica,sans-Serif" font-size="10.00" fill="#000000">MinerHandler</text>
</g>
<!-- A1&#45;&gt;A2 -->
<g id="edge1" class="edge">
<title>A1&#45;&gt;A2</title>
<path fill="none" stroke="#000000" d="M263.3725,-85.2366C189.3533,-61.79 168.0084,-58.5527 96.999,-36 94.1279,-35.0881 91.1749,-34.1332 88.2021,-33.1589"/>
<polygon fill="none" stroke="#000000" points="263.7703,-85.3635 270.7025,-83.3774 275.202,-89.0126 268.2698,-90.9986 263.7703,-85.3635"/>
</g>
<!-- A3 -->
<g id="node4" class="node">
<title>A3</title>
<polygon fill="none" stroke="#000000" points="244.017,-36 105.981,-36 105.981,0 244.017,0 244.017,-36"/>
<text text-anchor="middle" x="174.999" y="-15" font-family="Helvetica,sans-Serif" font-size="10.00" fill="#000000">CurrentDealInfoManager</text>
</g>
<!-- A1&#45;&gt;A3 -->
<g id="edge2" class="edge">
<title>A1&#45;&gt;A3</title>
<path fill="none" stroke="#000000" d="M277.5079,-79.6487C254.4261,-65.7674 225.9969,-48.6701 204.937,-36.0047"/>
<polygon fill="none" stroke="#000000" points="277.7379,-79.787 284.9412,-79.4514 288.0215,-85.9716 280.8182,-86.3072 277.7379,-79.787"/>
</g>
<!-- A4 -->
<g id="node5" class="node">
<title>A4</title>
<polygon fill="none" stroke="#000000" points="374.4449,-36 261.5531,-36 261.5531,0 374.4449,0 374.4449,-36"/>
<text text-anchor="middle" x="317.999" y="-15" font-family="Helvetica,sans-Serif" font-size="10.00" fill="#000000">PreCommitBatcher</text>
</g>
<!-- A1&#45;&gt;A4 -->
<g id="edge3" class="edge">
<title>A1&#45;&gt;A4</title>
<path fill="none" stroke="#000000" d="M317.999,-73.5205C317.999,-61.0493 317.999,-47.0388 317.999,-36.2121"/>
<polygon fill="none" stroke="#000000" points="317.9991,-73.7616 321.999,-79.7616 317.999,-85.7616 313.999,-79.7616 317.9991,-73.7616"/>
</g>
<!-- A5 -->
<g id="node6" class="node">
<title>A5</title>
<polygon fill="none" stroke="#000000" points="489.3871,-36 392.6109,-36 392.6109,0 489.3871,0 489.3871,-36"/>
<text text-anchor="middle" x="440.999" y="-15" font-family="Helvetica,sans-Serif" font-size="10.00" fill="#000000">CommitBatcher</text>
</g>
<!-- A1&#45;&gt;A5 -->
<g id="edge4" class="edge">
<title>A1&#45;&gt;A5</title>
<path fill="none" stroke="#000000" d="M353.638,-79.0817C373.3433,-65.304 397.3795,-48.4982 415.2481,-36.0047"/>
<polygon fill="none" stroke="#000000" points="353.6184,-79.0954 350.9932,-85.8117 343.7838,-85.9716 346.409,-79.2553 353.6184,-79.0954"/>
</g>
<!-- A6 -->
<g id="node7" class="node">
<title>A6</title>
<polygon fill="none" stroke="#000000" points="604.3476,-36 507.6504,-36 507.6504,0 604.3476,0 604.3476,-36"/>
<text text-anchor="middle" x="555.999" y="-15" font-family="Helvetica,sans-Serif" font-size="10.00" fill="#000000">SectorManager</text>
</g>
<!-- A1&#45;&gt;A6 -->
<g id="edge5" class="edge">
<title>A1&#45;&gt;A6</title>
<path fill="none" stroke="#000000" d="M372.1905,-84.4182C413.0183,-69.6653 468.4913,-49.6204 507.7863,-35.4214"/>
<polygon fill="none" stroke="#000000" points="372.1093,-84.4475 367.8258,-90.2485 360.8235,-88.5256 365.107,-82.7246 372.1093,-84.4475"/>
</g>
</g>
</svg>
