<?xml version="1.0" encoding="UTF-8" standalone="no"?>
<!DOCTYPE svg PUBLIC "-//W3C//DTD SVG 1.1//EN"
 "http://www.w3.org/Graphics/SVG/1.1/DTD/svg11.dtd">
<!-- Generated by graphviz version 2.40.1 (20161225.0304)
 -->
<!-- Title: G Pages: 1 -->
<svg width="1021pt" height="582pt"
 viewBox="0.00 0.00 1021.42 582.00" xmlns="http://www.w3.org/2000/svg" xmlns:xlink="http://www.w3.org/1999/xlink">
<g id="graph0" class="graph" transform="scale(1 1) rotate(0) translate(4 578)">
<title>G</title>
<polygon fill="#ffffff" stroke="transparent" points="-4,4 -4,-578 1017.422,-578 1017.422,4 -4,4"/>
<!-- A0 -->
<g id="node1" class="node">
<title>A0</title>
<polygon fill="#fff8dc" stroke="#000000" points="105.8605,-169 .0465,-169 .0465,-133 111.8605,-133 111.8605,-163 105.8605,-169"/>
<polyline fill="none" stroke="#000000" points="105.8605,-169 105.8605,-163 "/>
<polyline fill="none" stroke="#000000" points="111.8605,-163 105.8605,-163 "/>
<text text-anchor="middle" x="55.9535" y="-154" font-family="Helvetica,sans-Serif" font-size="10.00" fill="#000000">Venus sealer class</text>
<text text-anchor="middle" x="55.9535" y="-142" font-family="Helvetica,sans-Serif" font-size="10.00" fill="#000000">diagram</text>
</g>
<!-- A1 -->
<g id="node2" class="node">
<title>A1</title>
<polygon fill="none" stroke="#000000" points="98.6848,-223 13.2222,-223 13.2222,-187 98.6848,-187 98.6848,-223"/>
<text text-anchor="middle" x="55.9535" y="-202" font-family="Helvetica,sans-Serif" font-size="10.00" fill="#000000">venus&#45;sealer</text>
</g>
<!-- A2 -->
<g id="node3" class="node">
<title>A2</title>
<polygon fill="none" stroke="#000000" points="259.637,-250 171.641,-250 171.641,-214 259.637,-214 259.637,-250"/>
<text text-anchor="middle" x="215.639" y="-229" font-family="Helvetica,sans-Serif" font-size="10.00" fill="#000000">MinerHandler</text>
</g>
<!-- A1&#45;&gt;A2 -->
<g id="edge1" class="edge">
<title>A1&#45;&gt;A2</title>
<path fill="none" stroke="#000000" d="M110.7676,-214.2681C130.6328,-217.627 152.7978,-221.3747 171.6146,-224.5562"/>
<polygon fill="none" stroke="#000000" points="110.5783,-214.2362 103.9954,-217.1799 98.7463,-212.2355 105.3292,-209.2918 110.5783,-214.2362"/>
</g>
<!-- A9 -->
<g id="node10" class="node">
<title>A9</title>
<polygon fill="none" stroke="#000000" points="269.604,-196 161.674,-196 161.674,-160 269.604,-160 269.604,-196"/>
<text text-anchor="middle" x="215.639" y="-175" font-family="Helvetica,sans-Serif" font-size="10.00" fill="#000000">nodeApi:FullNode</text>
</g>
<!-- A1&#45;&gt;A9 -->
<g id="edge8" class="edge">
<title>A1&#45;&gt;A9</title>
<path fill="none" stroke="#000000" d="M110.9796,-195.6961C127.4451,-192.912 145.4741,-189.8636 161.8585,-187.0933"/>
<polygon fill="none" stroke="#000000" points="110.5783,-195.7638 105.3292,-200.7082 98.7463,-197.7645 103.9954,-192.8201 110.5783,-195.7638"/>
</g>
<!-- A3 -->
<g id="node4" class="node">
<title>A3</title>
<polygon fill="none" stroke="#000000" points="463.8241,-277 334.5859,-277 334.5859,-241 463.8241,-241 463.8241,-277"/>
<text text-anchor="middle" x="399.205" y="-256" font-family="Helvetica,sans-Serif" font-size="10.00" fill="#000000">minerapi:StorageMiner</text>
</g>
<!-- A2&#45;&gt;A3 -->
<g id="edge2" class="edge">
<title>A2&#45;&gt;A3</title>
<path fill="none" stroke="#000000" d="M271.9786,-240.2868C291.6962,-243.187 313.9922,-246.4664 334.3493,-249.4606"/>
<polygon fill="none" stroke="#000000" points="271.9475,-240.2823 265.4292,-243.3665 260.0752,-238.5359 266.5935,-235.4517 271.9475,-240.2823"/>
</g>
<!-- A4 -->
<g id="node5" class="node">
<title>A4</title>
<polygon fill="none" stroke="#000000" points="478.8733,-223 319.5367,-223 319.5367,-187 478.8733,-187 478.8733,-223"/>
<text text-anchor="middle" x="399.205" y="-202" font-family="Helvetica,sans-Serif" font-size="10.00" fill="#000000">rpcServer:jsonrpc.RPCServer</text>
</g>
<!-- A2&#45;&gt;A4 -->
<g id="edge3" class="edge">
<title>A2&#45;&gt;A4</title>
<path fill="none" stroke="#000000" d="M272.2019,-223.6804C287.0978,-221.4894 303.4526,-219.0838 319.3244,-216.7493"/>
<polygon fill="none" stroke="#000000" points="271.9475,-223.7177 266.5934,-228.5483 260.0752,-225.4641 265.4292,-220.6335 271.9475,-223.7177"/>
</g>
<!-- A5 -->
<g id="node6" class="node">
<title>A5</title>
<polygon fill="none" stroke="#000000" points="700.9043,-493 562.9787,-493 562.9787,-457 700.9043,-457 700.9043,-493"/>
<text text-anchor="middle" x="631.9415" y="-472" font-family="Helvetica,sans-Serif" font-size="10.00" fill="#000000">Messager:api.IMessager</text>
</g>
<!-- A3&#45;&gt;A5 -->
<g id="edge4" class="edge">
<title>A3&#45;&gt;A5</title>
<path fill="none" stroke="#000000" d="M427.5606,-285.3165C475.467,-329.7778 571.2235,-418.6483 612.3905,-456.8549"/>
<polygon fill="none" stroke="#000000" points="427.4433,-285.2077 420.3245,-284.058 418.6477,-277.0445 425.7666,-278.1942 427.4433,-285.2077"/>
</g>
<!-- A6 -->
<g id="node7" class="node">
<title>A6</title>
<polygon fill="none" stroke="#000000" points="723.523,-358 540.36,-358 540.36,-322 723.523,-322 723.523,-358"/>
<text text-anchor="middle" x="631.9415" y="-337" font-family="Helvetica,sans-Serif" font-size="10.00" fill="#000000">Prover:storage.WinningPoStProver</text>
</g>
<!-- A3&#45;&gt;A6 -->
<g id="edge5" class="edge">
<title>A3&#45;&gt;A6</title>
<path fill="none" stroke="#000000" d="M462.7769,-281.1251C499.6503,-293.9583 545.4988,-309.9151 580.1593,-321.9781"/>
<polygon fill="none" stroke="#000000" points="462.4792,-281.0216 455.4978,-282.8271 451.1459,-277.0772 458.1274,-275.2716 462.4792,-281.0216"/>
</g>
<!-- A11 -->
<g id="node12" class="node">
<title>A11</title>
<polygon fill="none" stroke="#000000" points="680.2901,-223 583.5929,-223 583.5929,-187 680.2901,-187 680.2901,-223"/>
<text text-anchor="middle" x="631.9415" y="-202" font-family="Helvetica,sans-Serif" font-size="10.00" fill="#000000">SectorManager</text>
</g>
<!-- A3&#45;&gt;A11 -->
<g id="edge10" class="edge">
<title>A3&#45;&gt;A11</title>
<path fill="none" stroke="#000000" d="M475.8524,-241.2161C511.4002,-232.9682 552.5674,-223.4166 583.6963,-216.194"/>
<polygon fill="none" stroke="#000000" points="475.7246,-241.2457 470.7839,-246.4983 464.0351,-243.958 468.9757,-238.7053 475.7246,-241.2457"/>
</g>
<!-- A12 -->
<g id="node13" class="node">
<title>A12</title>
<polygon fill="none" stroke="#000000" points="734.7466,-102 529.1364,-102 529.1364,-66 734.7466,-66 734.7466,-102"/>
<text text-anchor="middle" x="631.9415" y="-81" font-family="Helvetica,sans-Serif" font-size="10.00" fill="#000000">SectorBlocks:sectorblocks.SectorBlocks</text>
</g>
<!-- A3&#45;&gt;A12 -->
<g id="edge11" class="edge">
<title>A3&#45;&gt;A12</title>
<path fill="none" stroke="#000000" d="M473.3155,-235.4611C475.2734,-234.3542 477.1857,-233.201 479.039,-232 506.4878,-214.2126 505.833,-201.0501 529.039,-178 556.5066,-150.7169 589.836,-120.8189 610.9704,-102.2321"/>
<polygon fill="none" stroke="#000000" points="473.1911,-235.5241 469.6466,-241.804 462.4865,-240.9475 466.031,-234.6677 473.1911,-235.5241"/>
</g>
<!-- A7 -->
<g id="node8" class="node">
<title>A7</title>
<polygon fill="none" stroke="#000000" points="956.3085,-574 841.9575,-574 841.9575,-538 956.3085,-538 956.3085,-574"/>
<text text-anchor="middle" x="899.133" y="-553" font-family="Helvetica,sans-Serif" font-size="10.00" fill="#000000">messager rpc client</text>
</g>
<!-- A5&#45;&gt;A7 -->
<g id="edge7" class="edge">
<title>A5&#45;&gt;A7</title>
<path fill="none" stroke="#000000" d="M690.3492,-497.2885C718.6499,-507.6602 753.2697,-519.7241 784.844,-529 803.2317,-534.4019 823.5251,-539.4772 841.8456,-543.7372"/>
<polygon fill="none" stroke="#000000" points="690.2925,-497.2677 683.2782,-498.9409 679.0359,-493.1096 686.0502,-491.4364 690.2925,-497.2677"/>
</g>
<!-- A17 -->
<g id="node18" class="node">
<title>A17</title>
<polygon fill="none" stroke="#000000" points="961.3154,-466 836.9506,-466 836.9506,-430 961.3154,-430 961.3154,-466"/>
<text text-anchor="middle" x="899.133" y="-445" font-family="Helvetica,sans-Serif" font-size="10.00" fill="#000000">prover:storage.Prover</text>
</g>
<!-- A6&#45;&gt;A17 -->
<g id="edge16" class="edge">
<title>A6&#45;&gt;A17</title>
<path fill="none" stroke="#000000" d="M671.2653,-364.4322C701.4012,-382.2529 744.5238,-405.8429 784.844,-421 801.3518,-427.2056 819.7523,-432.3001 836.8818,-436.326"/>
<polygon fill="none" stroke="#000000" points="671.0751,-364.3184 663.8725,-364.6681 660.7794,-358.154 667.9821,-357.8043 671.0751,-364.3184"/>
</g>
<!-- A18 -->
<g id="node19" class="node">
<title>A18</title>
<polygon fill="none" stroke="#000000" points="968.736,-412 829.53,-412 829.53,-376 968.736,-376 968.736,-412"/>
<text text-anchor="middle" x="899.133" y="-391" font-family="Helvetica,sans-Serif" font-size="10.00" fill="#000000">verifier:ffiwrapper.Verifier</text>
</g>
<!-- A6&#45;&gt;A18 -->
<g id="edge17" class="edge">
<title>A6&#45;&gt;A18</title>
<path fill="none" stroke="#000000" d="M733.4064,-360.5063C765.4138,-366.975 800.037,-373.9725 829.3187,-379.8904"/>
<polygon fill="none" stroke="#000000" points="733.0461,-360.4335 726.3726,-363.1656 721.2839,-358.0563 727.9574,-355.3242 733.0461,-360.4335"/>
</g>
<!-- A19 -->
<g id="node20" class="node">
<title>A19</title>
<polygon fill="none" stroke="#000000" points="951.8572,-358 846.4088,-358 846.4088,-322 951.8572,-322 951.8572,-358"/>
<text text-anchor="middle" x="899.133" y="-337" font-family="Helvetica,sans-Serif" font-size="10.00" fill="#000000">miner:abi.ActorID</text>
</g>
<!-- A6&#45;&gt;A19 -->
<g id="edge18" class="edge">
<title>A6&#45;&gt;A19</title>
<path fill="none" stroke="#000000" d="M736.0279,-340C773.8105,-340 814.9076,-340 846.3969,-340"/>
<polygon fill="none" stroke="#000000" points="735.8937,-340.0001 729.8936,-344 723.8937,-340 729.8937,-336 735.8937,-340.0001"/>
</g>
<!-- A20 -->
<g id="node21" class="node">
<title>A20</title>
<polygon fill="none" stroke="#000000" points="987.553,-304 810.713,-304 810.713,-268 987.553,-268 987.553,-304"/>
<text text-anchor="middle" x="899.133" y="-283" font-family="Helvetica,sans-Serif" font-size="10.00" fill="#000000">winnRpt:abi.RegisteredPoStProof</text>
</g>
<!-- A6&#45;&gt;A20 -->
<g id="edge19" class="edge">
<title>A6&#45;&gt;A20</title>
<path fill="none" stroke="#000000" d="M733.2004,-319.5354C758.5772,-314.4066 785.6103,-308.9432 810.3296,-303.9474"/>
<polygon fill="none" stroke="#000000" points="733.0461,-319.5665 727.9574,-324.6758 721.2839,-321.9437 726.3726,-316.8344 733.0461,-319.5665"/>
</g>
<!-- A8 -->
<g id="node9" class="node">
<title>A8</title>
<polygon fill="#fff8dc" stroke="#000000" points="1007.2114,-520 785.0546,-520 785.0546,-484 1013.2114,-484 1013.2114,-514 1007.2114,-520"/>
<polyline fill="none" stroke="#000000" points="1007.2114,-520 1007.2114,-514 "/>
<polyline fill="none" stroke="#000000" points="1013.2114,-514 1007.2114,-514 "/>
<text text-anchor="middle" x="899.133" y="-499" font-family="Helvetica,sans-Serif" font-size="10.00" fill="#000000">venus&#45;messager/api/client/NewMessageRPC</text>
</g>
<!-- A7&#45;&gt;A8 -->
<g id="edge6" class="edge">
<title>A7&#45;&gt;A8</title>
<path fill="none" stroke="#000000" stroke-dasharray="5,2" d="M899.133,-537.7902C899.133,-531.907 899.133,-526.0238 899.133,-520.1406"/>
</g>
<!-- A10 -->
<g id="node11" class="node">
<title>A10</title>
<polygon fill="none" stroke="#000000" points="257.9766,-142 167.3014,-142 167.3014,-106 263.9766,-106 263.9766,-136 257.9766,-142"/>
<polyline fill="none" stroke="#000000" points="257.9766,-142 257.9766,-136 "/>
<polyline fill="none" stroke="#000000" points="263.9766,-136 257.9766,-136 "/>
<text text-anchor="middle" x="215.639" y="-121" font-family="Helvetica,sans-Serif" font-size="10.00" fill="#000000">json RPC client</text>
</g>
<!-- A9&#45;&gt;A10 -->
<g id="edge9" class="edge">
<title>A9&#45;&gt;A10</title>
<path fill="none" stroke="#000000" stroke-dasharray="5,2" d="M215.639,-159.7902C215.639,-153.907 215.639,-148.0238 215.639,-142.1406"/>
</g>
<!-- A14 -->
<g id="node15" class="node">
<title>A14</title>
<polygon fill="none" stroke="#000000" points="968.2096,-250 830.0564,-250 830.0564,-214 968.2096,-214 968.2096,-250"/>
<text text-anchor="middle" x="899.133" y="-229" font-family="Helvetica,sans-Serif" font-size="10.00" fill="#000000">ffiwrapper.StorageSealer</text>
</g>
<!-- A11&#45;&gt;A14 -->
<g id="edge13" class="edge">
<title>A11&#45;&gt;A14</title>
<path fill="none" stroke="#000000" d="M692.2986,-211.0992C733.2007,-215.2324 787.3588,-220.7051 829.9961,-225.0136"/>
<polygon fill="none" stroke="#000000" points="692.2671,-211.0961 685.8953,-214.4725 680.3279,-209.8895 686.6997,-206.513 692.2671,-211.0961"/>
</g>
<!-- A15 -->
<g id="node16" class="node">
<title>A15</title>
<polygon fill="none" stroke="#000000" points="945.702,-196 852.564,-196 852.564,-160 945.702,-160 945.702,-196"/>
<text text-anchor="middle" x="899.133" y="-175" font-family="Helvetica,sans-Serif" font-size="10.00" fill="#000000">storage.Prover</text>
</g>
<!-- A11&#45;&gt;A15 -->
<g id="edge14" class="edge">
<title>A11&#45;&gt;A15</title>
<path fill="none" stroke="#000000" d="M692.5446,-198.876C741.0416,-193.9753 808.0566,-187.2034 852.4498,-182.7174"/>
<polygon fill="none" stroke="#000000" points="692.2671,-198.9039 686.6996,-203.487 680.3279,-200.1105 685.8953,-195.5275 692.2671,-198.9039"/>
</g>
<!-- A16 -->
<g id="node17" class="node">
<title>A16</title>
<polygon fill="none" stroke="#000000" points="941.2431,-142 857.0229,-142 857.0229,-106 941.2431,-106 941.2431,-142"/>
<text text-anchor="middle" x="899.133" y="-121" font-family="Helvetica,sans-Serif" font-size="10.00" fill="#000000">FaultTracker</text>
</g>
<!-- A11&#45;&gt;A16 -->
<g id="edge15" class="edge">
<title>A11&#45;&gt;A16</title>
<path fill="none" stroke="#000000" d="M690.3492,-182.7115C718.6499,-172.3398 753.2697,-160.2759 784.844,-151 808.5132,-144.0464 835.3402,-137.6343 857.0522,-132.8051"/>
<polygon fill="none" stroke="#000000" points="690.2925,-182.7323 686.0502,-188.5636 679.0359,-186.8904 683.2782,-181.0591 690.2925,-182.7323"/>
</g>
<!-- A13 -->
<g id="node14" class="node">
<title>A13</title>
<polygon fill="none" stroke="#000000" points="844.133,-56 844.133,-88 954.133,-88 954.133,-56 844.133,-56"/>
<text text-anchor="start" x="854.68" y="-69" font-family="Helvetica,sans-Serif" font-size="10.00" fill="#000000">keys:types.DealRef </text>
<polygon fill="none" stroke="#000000" points="844.133,0 844.133,-56 954.133,-56 954.133,0 844.133,0"/>
<text text-anchor="start" x="874.959" y="-37" font-family="Helvetica,sans-Serif" font-size="10.00" fill="#000000"> Id, DealId,</text>
<text text-anchor="start" x="854.117" y="-25" font-family="Helvetica,sans-Serif" font-size="10.00" fill="#000000">SectorId, PadOffset,</text>
<text text-anchor="start" x="874.127" y="-13" font-family="Helvetica,sans-Serif" font-size="10.00" fill="#000000">UnPadSize</text>
</g>
<!-- A12&#45;&gt;A13 -->
<g id="edge12" class="edge">
<title>A12&#45;&gt;A13</title>
<path fill="none" stroke="#000000" d="M747.1707,-66.7496C780.8173,-61.7125 816.0483,-56.4382 844.1067,-52.2377"/>
<polygon fill="none" stroke="#000000" points="746.7303,-66.8154 741.3886,-71.6597 734.8625,-68.5922 740.2041,-63.7479 746.7303,-66.8154"/>
</g>
</g>
</svg>
