<svg xmlns="http://www.w3.org/2000/svg" width="1175.5" height="706">
<defs><marker id="arrow-filled" refX="6" refY="3" markerWidth="6" markerHeight="6" orient="auto"><path d="M0,0 6,3 0,6z" style="stroke: none; fill: black;"></path></marker><marker id="arrow-open" refX="6" refY="3" markerWidth="6" markerHeight="6" orient="auto"><path d="M0,0 6,3 0,6" style="stroke-width: 1; fill: none; stroke: black;"></path></marker></defs><rect width="122" height="38" style="stroke-width: 1; fill: none; stroke: black;" x="10" y="20"></rect><g><text fill="black" font-family="Helvetica,sans-Serif" x="71" y="39" style="text-anchor: middle; alignment-baseline: central;">StorageMiner</text></g><rect width="122" height="38" style="stroke-width: 1; fill: none; stroke: black;" x="10" y="648"></rect><g><text fill="black" font-family="Helvetica,sans-Serif" x="71" y="667" style="text-anchor: middle; alignment-baseline: central;">StorageMiner</text></g><path d="M71,58 v590" style="stroke-width: 1; fill: none; stroke: black;"></path><rect width="181.5" height="38" style="stroke-width: 1; fill: none; stroke: black;" x="258.25" y="20"></rect><g><text fill="black" font-family="Helvetica,sans-Serif" x="349" y="39" style="text-anchor: middle; alignment-baseline: central;">WindowPoStScheduler</text></g><rect width="181.5" height="38" style="stroke-width: 1; fill: none; stroke: black;" x="258.25" y="648"></rect><g><text fill="black" font-family="Helvetica,sans-Serif" x="349" y="667" style="text-anchor: middle; alignment-baseline: central;">WindowPoStScheduler</text></g><path d="M349,58 v590" style="stroke-width: 1; fill: none; stroke: black;"></path><rect width="62.5" height="38" style="stroke-width: 1; fill: none; stroke: black;" x="502.25" y="20"></rect><g><text fill="black" font-family="Helvetica,sans-Serif" x="533.5" y="39" style="text-anchor: middle; alignment-baseline: central;">Miner</text></g><rect width="62.5" height="38" style="stroke-width: 1; fill: none; stroke: black;" x="502.25" y="648"></rect><g><text fill="black" font-family="Helvetica,sans-Serif" x="533.5" y="667" style="text-anchor: middle; alignment-baseline: central;">Miner</text></g><path d="M533.5,58 v590" style="stroke-width: 1; fill: none; stroke: black;"></path><rect width="79.5" height="38" style="stroke-width: 1; fill: none; stroke: black;" x="584.75" y="20"></rect><g><text fill="black" font-family="Helvetica,sans-Serif" x="624.5" y="39" style="text-anchor: middle; alignment-baseline: central;">Sealing</text></g><rect width="79.5" height="38" style="stroke-width: 1; fill: none; stroke: black;" x="584.75" y="648"></rect><g><text fill="black" font-family="Helvetica,sans-Serif" x="624.5" y="667" style="text-anchor: middle; alignment-baseline: central;">Sealing</text></g><path d="M624.5,58 v590" style="stroke-width: 1; fill: none; stroke: black;"></path><rect width="130.5" height="38" style="stroke-width: 1; fill: none; stroke: black;" x="684.25" y="20"></rect><g><text fill="black" font-family="Helvetica,sans-Serif" x="749.5" y="39" style="text-anchor: middle; alignment-baseline: central;">changeHandler</text></g><rect width="130.5" height="38" style="stroke-width: 1; fill: none; stroke: black;" x="684.25" y="648"></rect><g><text fill="black" font-family="Helvetica,sans-Serif" x="749.5" y="667" style="text-anchor: middle; alignment-baseline: central;">changeHandler</text></g><path d="M749.5,58 v590" style="stroke-width: 1; fill: none; stroke: black;"></path><rect width="122" height="38" style="stroke-width: 1; fill: none; stroke: black;" x="834.75" y="20"></rect><g><text fill="black" font-family="Helvetica,sans-Serif" x="895.75" y="39" style="text-anchor: middle; alignment-baseline: central;">proveHandler</text></g><rect width="122" height="38" style="stroke-width: 1; fill: none; stroke: black;" x="834.75" y="648"></rect><g><text fill="black" font-family="Helvetica,sans-Serif" x="895.75" y="667" style="text-anchor: middle; alignment-baseline: central;">proveHandler</text></g><path d="M895.75,58 v590" style="stroke-width: 1; fill: none; stroke: black;"></path><rect width="130.5" height="38" style="stroke-width: 1; fill: none; stroke: black;" x="1015" y="20"></rect><g><text fill="black" font-family="Helvetica,sans-Serif" x="1080.25" y="39" style="text-anchor: middle; alignment-baseline: central;">api.IMessager</text></g><rect width="130.5" height="38" style="stroke-width: 1; fill: none; stroke: black;" x="1015" y="648"></rect><g><text fill="black" font-family="Helvetica,sans-Serif" x="1080.25" y="667" style="text-anchor: middle; alignment-baseline: central;">api.IMessager</text></g><path d="M1080.25,58 v590" style="stroke-width: 1; fill: none; stroke: black;"></path><g><text fill="black" font-family="Helvetica,sans-Serif" x="215" y="87" style="text-anchor: middle; alignment-baseline: central;">fps=NewWindowedPoStScheduler</text></g><path d="M71,73 C111,73 111,106 71,106" style="stroke-width: 1; fill: none; stroke: black;" marker-end="url(#arrow-filled)"></path><g><text fill="black" font-family="Helvetica,sans-Serif" x="147" y="125" style="text-anchor: middle; alignment-baseline: central;">fps=NewMiner</text></g><path d="M71,111 C111,111 111,144 71,144" style="stroke-width: 1; fill: none; stroke: black;" marker-end="url(#arrow-filled)"></path><g><text fill="black" font-family="Helvetica,sans-Serif" x="210" y="159" style="text-anchor: middle; alignment-baseline: central;">Run</text></g><path d="M71,172 h278" style="stroke-width: 1; fill: none; stroke: black;" marker-end="url(#arrow-filled)"></path><g><text fill="black" font-family="Helvetica,sans-Serif" x="302.25" y="197" style="text-anchor: middle; alignment-baseline: central;">Run()</text></g><path d="M71,210 h462.5" style="stroke-width: 1; fill: none; stroke: black;" marker-end="url(#arrow-filled)"></path><g><text fill="black" font-family="Helvetica,sans-Serif" x="579" y="235" style="text-anchor: middle; alignment-baseline: central;">Run</text></g><path d="M533.5,248 h91" style="stroke-width: 1; fill: none; stroke: black;" marker-end="url(#arrow-filled)"></path><g><text fill="black" font-family="Helvetica,sans-Serif" x="549.25" y="273" style="text-anchor: middle; alignment-baseline: central;">start</text></g><path d="M349,286 h400.5" style="stroke-width: 1; fill: none; stroke: black;" marker-end="url(#arrow-filled)"></path><g><text fill="black" font-family="Helvetica,sans-Serif" x="399.5" y="315" style="text-anchor: middle; alignment-baseline: central;">update</text></g><path d="M349,301 C389,301 389,334 349,334" style="stroke-width: 1; fill: none; stroke: black;" marker-end="url(#arrow-filled)"></path><g><text fill="black" font-family="Helvetica,sans-Serif" x="549.25" y="349" style="text-anchor: middle; alignment-baseline: central;">update</text></g><path d="M349,362 h400.5" style="stroke-width: 1; fill: none; stroke: black;" marker-end="url(#arrow-filled)"></path><g><text fill="black" font-family="Helvetica,sans-Serif" x="822.625" y="387" style="text-anchor: middle; alignment-baseline: central;">run</text></g><path d="M749.5,400 h146.25" style="stroke-width: 1; fill: none; stroke: black;" marker-end="url(#arrow-filled)"></path><g><text fill="black" font-family="Helvetica,sans-Serif" x="993" y="429" style="text-anchor: middle; alignment-baseline: central;">processHeadChange</text></g><path d="M895.75,415 C935.75,415 935.75,448 895.75,448" style="stroke-width: 1; fill: none; stroke: black;" marker-end="url(#arrow-filled)"></path><g><text fill="black" font-family="Helvetica,sans-Serif" x="622.375" y="463" style="text-anchor: middle; alignment-baseline: central;">startGeneratePoST</text></g><path d="M895.75,476 h-546.75" style="stroke-width: 1; fill: none; stroke: black;" marker-end="url(#arrow-filled)"></path><g><text fill="black" font-family="Helvetica,sans-Serif" x="437.75" y="505" style="text-anchor: middle; alignment-baseline: central;">runGeneratePoST</text></g><path d="M349,491 C389,491 389,524 349,524" style="stroke-width: 1; fill: none; stroke: black;" marker-end="url(#arrow-filled)"></path><g><text fill="black" font-family="Helvetica,sans-Serif" x="425" y="543" style="text-anchor: middle; alignment-baseline: central;">runPoStCycle</text></g><path d="M349,529 C389,529 389,562 349,562" style="stroke-width: 1; fill: none; stroke: black;" marker-end="url(#arrow-filled)"></path><g><text fill="black" font-family="Helvetica,sans-Serif" x="446.25" y="581" style="text-anchor: middle; alignment-baseline: central;">submitPoStMessage</text></g><path d="M349,567 C389,567 389,600 349,600" style="stroke-width: 1; fill: none; stroke: black;" marker-end="url(#arrow-filled)"></path><g><text fill="black" font-family="Helvetica,sans-Serif" x="714.625" y="615" style="text-anchor: middle; alignment-baseline: central;">PushMessage</text></g><path d="M349,628 h731.25" style="stroke-width: 1; fill: none; stroke: black;" marker-end="url(#arrow-filled)"></path></svg>