<?xml version="1.0" encoding="UTF-8" standalone="no"?>
<!DOCTYPE svg PUBLIC "-//W3C//DTD SVG 1.1//EN"
 "http://www.w3.org/Graphics/SVG/1.1/DTD/svg11.dtd">
<!-- Generated by graphviz version 2.40.1 (20161225.0304)
 -->
<!-- Title: G Pages: 1 -->
<svg width="570pt" height="360pt"
 viewBox="0.00 0.00 569.61 360.00" xmlns="http://www.w3.org/2000/svg" xmlns:xlink="http://www.w3.org/1999/xlink">
<g id="graph0" class="graph" transform="scale(1 1) rotate(0) translate(4 356)">
<title>G</title>
<polygon fill="#ffffff" stroke="transparent" points="-4,4 -4,-356 565.608,-356 565.608,4 -4,4"/>
<!-- A0 -->
<g id="node1" class="node">
<title>A0</title>
<polygon fill="none" stroke="#000000" points="317.2264,-352 243.2997,-352 239.2997,-348 239.2997,-316 313.2264,-316 317.2264,-320 317.2264,-352"/>
<polyline fill="none" stroke="#000000" points="313.2264,-348 239.2997,-348 "/>
<polyline fill="none" stroke="#000000" points="313.2264,-348 313.2264,-316 "/>
<polyline fill="none" stroke="#000000" points="313.2264,-348 317.2264,-352 "/>
<text text-anchor="middle" x="278.263" y="-331" font-family="Helvetica,sans-Serif" font-size="10.00" fill="#000000">venus&#45;auth</text>
</g>
<!-- A1 -->
<g id="node2" class="node">
<title>A1</title>
<polygon fill="none" stroke="#000000" points="228.1631,-204 130.363,-204 126.363,-200 126.363,-168 224.1631,-168 228.1631,-172 228.1631,-204"/>
<polyline fill="none" stroke="#000000" points="224.1631,-200 126.363,-200 "/>
<polyline fill="none" stroke="#000000" points="224.1631,-200 224.1631,-168 "/>
<polyline fill="none" stroke="#000000" points="224.1631,-200 228.1631,-204 "/>
<text text-anchor="middle" x="177.263" y="-183" font-family="Helvetica,sans-Serif" font-size="10.00" fill="#000000">venus&#45;messager</text>
</g>
<!-- A0&#45;&gt;A1 -->
<g id="edge1" class="edge">
<title>A0&#45;&gt;A1</title>
<path fill="none" stroke="#000000" d="M265.8785,-315.8523C246.4938,-287.4471 209.1957,-232.7925 189.7489,-204.2961"/>
</g>
<!-- A2 -->
<g id="node3" class="node">
<title>A2</title>
<polygon fill="none" stroke="#000000" points="402.0033,-280 310.5227,-280 306.5227,-276 306.5227,-244 398.0033,-244 402.0033,-248 402.0033,-280"/>
<polyline fill="none" stroke="#000000" points="398.0033,-276 306.5227,-276 "/>
<polyline fill="none" stroke="#000000" points="398.0033,-276 398.0033,-244 "/>
<polyline fill="none" stroke="#000000" points="398.0033,-276 402.0033,-280 "/>
<text text-anchor="middle" x="354.263" y="-259" font-family="Helvetica,sans-Serif" font-size="10.00" fill="#000000">venus&#45;gateway</text>
</g>
<!-- A0&#45;&gt;A2 -->
<g id="edge2" class="edge">
<title>A0&#45;&gt;A2</title>
<path fill="none" stroke="#000000" d="M297.4411,-315.8314C308.9621,-304.9167 323.5712,-291.0764 335.0912,-280.1628"/>
</g>
<!-- A3 -->
<g id="node4" class="node">
<title>A3</title>
<polygon fill="none" stroke="#000000" points="328.764,-204 249.762,-204 245.762,-200 245.762,-168 324.764,-168 328.764,-172 328.764,-204"/>
<polyline fill="none" stroke="#000000" points="324.764,-200 245.762,-200 "/>
<polyline fill="none" stroke="#000000" points="324.764,-200 324.764,-168 "/>
<polyline fill="none" stroke="#000000" points="324.764,-200 328.764,-204 "/>
<text text-anchor="middle" x="287.263" y="-183" font-family="Helvetica,sans-Serif" font-size="10.00" fill="#000000">venus&#45;miner</text>
</g>
<!-- A0&#45;&gt;A3 -->
<g id="edge3" class="edge">
<title>A0&#45;&gt;A3</title>
<path fill="none" stroke="#000000" d="M279.3666,-315.8523C281.094,-287.4471 284.4176,-232.7925 286.1504,-204.2961"/>
</g>
<!-- A4 -->
<g id="node5" class="node">
<title>A4</title>
<polygon fill="none" stroke="#000000" points="204.441,-280 154.0851,-280 150.0851,-276 150.0851,-244 200.441,-244 204.441,-248 204.441,-280"/>
<polyline fill="none" stroke="#000000" points="200.441,-276 150.0851,-276 "/>
<polyline fill="none" stroke="#000000" points="200.441,-276 200.441,-244 "/>
<polyline fill="none" stroke="#000000" points="200.441,-276 204.441,-280 "/>
<text text-anchor="middle" x="177.263" y="-259" font-family="Helvetica,sans-Serif" font-size="10.00" fill="#000000">venus</text>
</g>
<!-- A0&#45;&gt;A4 -->
<g id="edge4" class="edge">
<title>A0&#45;&gt;A4</title>
<path fill="none" stroke="#000000" d="M252.7765,-315.8314C237.4656,-304.9167 218.0508,-291.0764 202.7415,-280.1628"/>
</g>
<!-- A5 -->
<g id="node6" class="node">
<title>A5</title>
<polygon fill="#fff8dc" stroke="#000000" points="480.616,-280 419.9101,-280 419.9101,-244 486.616,-244 486.616,-274 480.616,-280"/>
<polyline fill="none" stroke="#000000" points="480.616,-280 480.616,-274 "/>
<polyline fill="none" stroke="#000000" points="486.616,-274 480.616,-274 "/>
<text text-anchor="middle" x="453.263" y="-259" font-family="Helvetica,sans-Serif" font-size="10.00" fill="#000000">api:8989</text>
</g>
<!-- A0&#45;&gt;A5 -->
<g id="edge5" class="edge">
<title>A0&#45;&gt;A5</title>
<path fill="none" stroke="#000000" stroke-dasharray="5,2" d="M317.0454,-318.4821C343.6176,-307.7939 379.6392,-293.195 411.263,-280 414.0452,-278.8392 416.9267,-277.6264 419.817,-276.4026"/>
</g>
<!-- A6 -->
<g id="node7" class="node">
<title>A6</title>
<polygon fill="none" stroke="#000000" points="97.9944,-118 16.5317,-118 12.5317,-114 12.5317,-82 93.9944,-82 97.9944,-86 97.9944,-118"/>
<polyline fill="none" stroke="#000000" points="93.9944,-114 12.5317,-114 "/>
<polyline fill="none" stroke="#000000" points="93.9944,-114 93.9944,-82 "/>
<polyline fill="none" stroke="#000000" points="93.9944,-114 97.9944,-118 "/>
<text text-anchor="middle" x="55.263" y="-97" font-family="Helvetica,sans-Serif" font-size="10.00" fill="#000000">venus&#45;sealer</text>
</g>
<!-- A1&#45;&gt;A6 -->
<g id="edge16" class="edge">
<title>A1&#45;&gt;A6</title>
<path fill="none" stroke="#000000" d="M151.6878,-167.9716C130.8661,-153.2939 101.6172,-132.6759 80.8046,-118.0047"/>
</g>
<!-- A11 -->
<g id="node12" class="node">
<title>A11</title>
<polygon fill="#fff8dc" stroke="#000000" points="232.807,-128 115.719,-128 115.719,-72 238.807,-72 238.807,-122 232.807,-128"/>
<polyline fill="none" stroke="#000000" points="232.807,-128 232.807,-122 "/>
<polyline fill="none" stroke="#000000" points="238.807,-122 232.807,-122 "/>
<text text-anchor="middle" x="177.263" y="-115" font-family="Helvetica,sans-Serif" font-size="10.00" fill="#000000">api:39812, uses</text>
<text text-anchor="middle" x="177.263" y="-103" font-family="Helvetica,sans-Serif" font-size="10.00" fill="#000000">admin token to</text>
<text text-anchor="middle" x="177.263" y="-91" font-family="Helvetica,sans-Serif" font-size="10.00" fill="#000000">connect to venus and</text>
<text text-anchor="middle" x="177.263" y="-79" font-family="Helvetica,sans-Serif" font-size="10.00" fill="#000000">gateway</text>
</g>
<!-- A1&#45;&gt;A11 -->
<g id="edge17" class="edge">
<title>A1&#45;&gt;A11</title>
<path fill="none" stroke="#000000" stroke-dasharray="5,2" d="M177.263,-167.7616C177.263,-156.2241 177.263,-141.0787 177.263,-128.0332"/>
</g>
<!-- A2&#45;&gt;A1 -->
<g id="edge10" class="edge">
<title>A2&#45;&gt;A1</title>
<path fill="none" stroke="#000000" d="M312.3165,-243.9891C284.2035,-231.9179 247.3289,-216.0848 219.2148,-204.0132"/>
</g>
<!-- A2&#45;&gt;A3 -->
<g id="edge13" class="edge">
<title>A2&#45;&gt;A3</title>
<path fill="none" stroke="#000000" d="M338.385,-243.9891C327.782,-231.9618 313.8866,-216.1999 303.2593,-204.145"/>
</g>
<!-- A2&#45;&gt;A6 -->
<g id="edge12" class="edge">
<title>A2&#45;&gt;A6</title>
<path fill="none" stroke="#000000" d="M357.0639,-243.6294C359.2987,-221.5134 359.1899,-184.7623 338.263,-164 264.1893,-90.5086 205.0448,-161.6165 106.263,-128 98.8045,-125.4618 91.1564,-121.8709 84.1267,-118.1045"/>
</g>
<!-- A8 -->
<g id="node9" class="node">
<title>A8</title>
<polygon fill="none" stroke="#000000" points="468.8242,-204 389.7019,-204 385.7019,-200 385.7019,-168 464.8242,-168 468.8242,-172 468.8242,-204"/>
<polyline fill="none" stroke="#000000" points="464.8242,-200 385.7019,-200 "/>
<polyline fill="none" stroke="#000000" points="464.8242,-200 464.8242,-168 "/>
<polyline fill="none" stroke="#000000" points="464.8242,-200 468.8242,-204 "/>
<text text-anchor="middle" x="427.263" y="-183" font-family="Helvetica,sans-Serif" font-size="10.00" fill="#000000">venus&#45;wallet</text>
</g>
<!-- A2&#45;&gt;A8 -->
<g id="edge11" class="edge">
<title>A2&#45;&gt;A8</title>
<path fill="none" stroke="#000000" d="M371.563,-243.9891C383.1155,-231.9618 398.2553,-216.1999 409.8343,-204.145"/>
</g>
<!-- A9 -->
<g id="node10" class="node">
<title>A9</title>
<polygon fill="#fff8dc" stroke="#000000" points="555.4537,-204 487.0724,-204 487.0724,-168 561.4537,-168 561.4537,-198 555.4537,-204"/>
<polyline fill="none" stroke="#000000" points="555.4537,-204 555.4537,-198 "/>
<polyline fill="none" stroke="#000000" points="561.4537,-198 555.4537,-198 "/>
<text text-anchor="middle" x="524.263" y="-183" font-family="Helvetica,sans-Serif" font-size="10.00" fill="#000000">api: 45132</text>
</g>
<!-- A2&#45;&gt;A9 -->
<g id="edge14" class="edge">
<title>A2&#45;&gt;A9</title>
<path fill="none" stroke="#000000" stroke-dasharray="5,2" d="M396.6112,-243.9981C420.6502,-233.6694 451.2445,-220.3394 478.263,-208 481.0814,-206.7129 483.9889,-205.3664 486.9086,-204.001"/>
</g>
<!-- A10 -->
<g id="node11" class="node">
<title>A10</title>
<polygon fill="#fff8dc" stroke="#000000" points="373.807,-122 256.719,-122 256.719,-78 379.807,-78 379.807,-116 373.807,-122"/>
<polyline fill="none" stroke="#000000" points="373.807,-122 373.807,-116 "/>
<polyline fill="none" stroke="#000000" points="379.807,-116 373.807,-116 "/>
<text text-anchor="middle" x="318.263" y="-109" font-family="Helvetica,sans-Serif" font-size="10.00" fill="#000000">uses admin token to</text>
<text text-anchor="middle" x="318.263" y="-97" font-family="Helvetica,sans-Serif" font-size="10.00" fill="#000000">connect to venus and</text>
<text text-anchor="middle" x="318.263" y="-85" font-family="Helvetica,sans-Serif" font-size="10.00" fill="#000000">gateway</text>
</g>
<!-- A3&#45;&gt;A10 -->
<g id="edge15" class="edge">
<title>A3&#45;&gt;A10</title>
<path fill="none" stroke="#000000" stroke-dasharray="5,2" d="M293.8373,-167.7616C298.6361,-154.4491 305.1662,-136.3332 310.2672,-122.1821"/>
</g>
<!-- A4&#45;&gt;A1 -->
<g id="edge6" class="edge">
<title>A4&#45;&gt;A1</title>
<path fill="none" stroke="#000000" d="M177.263,-243.9891C177.263,-231.9618 177.263,-216.1999 177.263,-204.145"/>
</g>
<!-- A4&#45;&gt;A3 -->
<g id="edge7" class="edge">
<title>A4&#45;&gt;A3</title>
<path fill="none" stroke="#000000" d="M203.3315,-243.9891C220.7393,-231.9618 243.5527,-216.1999 261.0005,-204.145"/>
</g>
<!-- A4&#45;&gt;A6 -->
<g id="edge8" class="edge">
<title>A4&#45;&gt;A6</title>
<path fill="none" stroke="#000000" d="M149.8966,-257.3091C106.3042,-249.2174 24.2676,-231.2433 7.263,-208 -13.5749,-179.5169 15.2561,-140.555 36.42,-118.053"/>
</g>
<!-- A7 -->
<g id="node8" class="node">
<title>A7</title>
<polygon fill="#fff8dc" stroke="#000000" points="102.7312,-208 15.7949,-208 15.7949,-164 108.7312,-164 108.7312,-202 102.7312,-208"/>
<polyline fill="none" stroke="#000000" points="102.7312,-208 102.7312,-202 "/>
<polyline fill="none" stroke="#000000" points="108.7312,-202 102.7312,-202 "/>
<text text-anchor="middle" x="62.263" y="-195" font-family="Helvetica,sans-Serif" font-size="10.00" fill="#000000">api:3453,</text>
<text text-anchor="middle" x="62.263" y="-183" font-family="Helvetica,sans-Serif" font-size="10.00" fill="#000000">prometh:9400,</text>
<text text-anchor="middle" x="62.263" y="-171" font-family="Helvetica,sans-Serif" font-size="10.00" fill="#000000">jaeger:6831</text>
</g>
<!-- A4&#45;&gt;A7 -->
<g id="edge9" class="edge">
<title>A4&#45;&gt;A7</title>
<path fill="none" stroke="#000000" stroke-dasharray="5,2" d="M150.0096,-243.9891C133.8032,-233.2787 113.1152,-219.6066 95.8978,-208.2282"/>
</g>
<!-- A12 -->
<g id="node13" class="node">
<title>A12</title>
<polygon fill="none" stroke="#000000" points="99.264,-36 15.262,-36 11.262,-32 11.262,0 95.264,0 99.264,-4 99.264,-36"/>
<polyline fill="none" stroke="#000000" points="95.264,-32 11.262,-32 "/>
<polyline fill="none" stroke="#000000" points="95.264,-32 95.264,0 "/>
<polyline fill="none" stroke="#000000" points="95.264,-32 99.264,-36 "/>
<text text-anchor="middle" x="55.263" y="-15" font-family="Helvetica,sans-Serif" font-size="10.00" fill="#000000">venus&#45;worker</text>
</g>
<!-- A6&#45;&gt;A12 -->
<g id="edge18" class="edge">
<title>A6&#45;&gt;A12</title>
<path fill="none" stroke="#000000" d="M55.263,-81.8015C55.263,-68.2127 55.263,-49.7241 55.263,-36.1476"/>
</g>
</g>
</svg>
