<?xml version="1.0" encoding="UTF-8" standalone="no"?>
<!DOCTYPE svg PUBLIC "-//W3C//DTD SVG 1.1//EN"
 "http://www.w3.org/Graphics/SVG/1.1/DTD/svg11.dtd">
<!-- Generated by graphviz version 2.40.1 (20161225.0304)
 -->
<!-- Title: G Pages: 1 -->
<svg width="339pt" height="474pt"
 viewBox="0.00 0.00 339.19 474.00" xmlns="http://www.w3.org/2000/svg" xmlns:xlink="http://www.w3.org/1999/xlink">
<g id="graph0" class="graph" transform="scale(1 1) rotate(0) translate(4 470)">
<title>G</title>
<polygon fill="#ffffff" stroke="transparent" points="-4,4 -4,-470 335.185,-470 335.185,4 -4,4"/>
<!-- A0 -->
<g id="node1" class="node">
<title>A0</title>
<polygon fill="#fff8dc" stroke="#000000" points="110.2578,-466 10.7612,-466 10.7612,-430 116.2578,-430 116.2578,-460 110.2578,-466"/>
<polyline fill="none" stroke="#000000" points="110.2578,-466 110.2578,-460 "/>
<polyline fill="none" stroke="#000000" points="116.2578,-460 110.2578,-460 "/>
<text text-anchor="middle" x="63.5095" y="-451" font-family="Helvetica,sans-Serif" font-size="10.00" fill="#000000">Venus Auth class</text>
<text text-anchor="middle" x="63.5095" y="-439" font-family="Helvetica,sans-Serif" font-size="10.00" fill="#000000">diagram</text>
</g>
<!-- A1 -->
<g id="node2" class="node">
<title>A1</title>
<polygon fill="none" stroke="#000000" points="211.4729,-466 133.5461,-466 133.5461,-430 211.4729,-430 211.4729,-466"/>
<text text-anchor="middle" x="172.5095" y="-445" font-family="Helvetica,sans-Serif" font-size="10.00" fill="#000000">venus&#45;auth</text>
</g>
<!-- A2 -->
<g id="node3" class="node">
<title>A2</title>
<polygon fill="none" stroke="#000000" points="125.8118,-380 55.2072,-380 55.2072,-344 125.8118,-344 125.8118,-380"/>
<text text-anchor="middle" x="90.5095" y="-359" font-family="Helvetica,sans-Serif" font-size="10.00" fill="#000000">oauthApp</text>
</g>
<!-- A1&#45;&gt;A2 -->
<g id="edge1" class="edge">
<title>A1&#45;&gt;A2</title>
<path fill="none" stroke="#000000" d="M146.7839,-421.0195C134.1149,-407.7325 119.1756,-392.0645 107.8745,-380.2121"/>
<polygon fill="none" stroke="#000000" points="146.8385,-421.0767 153.8739,-422.6589 155.1194,-429.7616 148.084,-428.1795 146.8385,-421.0767"/>
</g>
<!-- A3 -->
<g id="node4" class="node">
<title>A3</title>
<polygon fill="none" stroke="#000000" points="201.5135,-380 143.5055,-380 143.5055,-344 201.5135,-344 201.5135,-380"/>
<text text-anchor="middle" x="172.5095" y="-359" font-family="Helvetica,sans-Serif" font-size="10.00" fill="#000000">cli.App</text>
</g>
<!-- A1&#45;&gt;A3 -->
<g id="edge2" class="edge">
<title>A1&#45;&gt;A3</title>
<path fill="none" stroke="#000000" d="M172.5095,-417.5205C172.5095,-405.0493 172.5095,-391.0388 172.5095,-380.2121"/>
<polygon fill="none" stroke="#000000" points="172.5096,-417.7616 176.5095,-423.7616 172.5095,-429.7616 168.5095,-423.7616 172.5096,-417.7616"/>
</g>
<!-- A4 -->
<g id="node5" class="node">
<title>A4</title>
<polygon fill="none" stroke="#000000" points="331.3611,-380 219.6579,-380 219.6579,-344 331.3611,-344 331.3611,-380"/>
<text text-anchor="middle" x="275.5095" y="-359" font-family="Helvetica,sans-Serif" font-size="10.00" fill="#000000">router/http.Handler</text>
</g>
<!-- A1&#45;&gt;A4 -->
<g id="edge3" class="edge">
<title>A1&#45;&gt;A4</title>
<path fill="none" stroke="#000000" d="M203.9085,-421.7834C220.0134,-408.3365 239.2291,-392.2924 253.6973,-380.2121"/>
<polygon fill="none" stroke="#000000" points="203.5645,-422.0706 201.5225,-428.9865 194.3532,-429.7616 196.3951,-422.8456 203.5645,-422.0706"/>
</g>
<!-- A5 -->
<g id="node6" class="node">
<title>A5</title>
<polygon fill="none" stroke="#000000" points="135.1901,-294 45.8289,-294 45.8289,-258 135.1901,-258 135.1901,-294"/>
<text text-anchor="middle" x="90.5095" y="-273" font-family="Helvetica,sans-Serif" font-size="10.00" fill="#000000">OAuthService</text>
</g>
<!-- A2&#45;&gt;A5 -->
<g id="edge4" class="edge">
<title>A2&#45;&gt;A5</title>
<path fill="none" stroke="#000000" d="M90.5095,-331.5205C90.5095,-319.0493 90.5095,-305.0388 90.5095,-294.2121"/>
<polygon fill="#000000" stroke="#000000" points="90.5096,-331.7616 94.5095,-337.7616 90.5095,-343.7616 86.5095,-337.7616 90.5096,-331.7616"/>
</g>
<!-- A6 -->
<g id="node7" class="node">
<title>A6</title>
<polygon fill="none" stroke="#000000" points="124.5729,-208 56.4461,-208 56.4461,-172 124.5729,-172 124.5729,-208"/>
<text text-anchor="middle" x="90.5095" y="-187" font-family="Helvetica,sans-Serif" font-size="10.00" fill="#000000">jwtOAuth</text>
</g>
<!-- A5&#45;&gt;A6 -->
<g id="edge5" class="edge">
<title>A5&#45;&gt;A6</title>
<path fill="none" stroke="#000000" d="M90.5095,-245.5205C90.5095,-233.0493 90.5095,-219.0388 90.5095,-208.2121"/>
<polygon fill="none" stroke="#000000" points="90.5096,-245.7616 94.5095,-251.7616 90.5095,-257.7616 86.5095,-251.7616 90.5096,-245.7616"/>
</g>
<!-- A7 -->
<g id="node8" class="node">
<title>A7</title>
<polygon fill="none" stroke="#000000" points="117.5095,-122 63.5095,-122 63.5095,-86 117.5095,-86 117.5095,-122"/>
<text text-anchor="middle" x="90.5095" y="-101" font-family="Helvetica,sans-Serif" font-size="10.00" fill="#000000">Store</text>
</g>
<!-- A6&#45;&gt;A7 -->
<g id="edge6" class="edge">
<title>A6&#45;&gt;A7</title>
<path fill="none" stroke="#000000" d="M90.5095,-159.5205C90.5095,-147.0493 90.5095,-133.0388 90.5095,-122.2121"/>
<polygon fill="none" stroke="#000000" points="90.5096,-159.7616 94.5095,-165.7616 90.5095,-171.7616 86.5095,-165.7616 90.5096,-159.7616"/>
</g>
<!-- A8 -->
<g id="node9" class="node">
<title>A8</title>
<polygon fill="none" stroke="#000000" points="83.0285,-36 -.0095,-36 -.0095,0 83.0285,0 83.0285,-36"/>
<text text-anchor="middle" x="41.5095" y="-15" font-family="Helvetica,sans-Serif" font-size="10.00" fill="#000000">badgerStore</text>
</g>
<!-- A7&#45;&gt;A8 -->
<g id="edge7" class="edge">
<title>A7&#45;&gt;A8</title>
<path fill="none" stroke="#000000" d="M75.1369,-77.0195C67.5664,-63.7325 58.6393,-48.0645 51.8862,-36.2121"/>
<polygon fill="none" stroke="#000000" points="72.1263,-78.8057 80.1179,-85.7616 78.2083,-75.3403 72.1263,-78.8057"/>
</g>
<!-- A9 -->
<g id="node10" class="node">
<title>A9</title>
<polygon fill="none" stroke="#000000" points="179.5115,-36 101.5075,-36 101.5075,0 179.5115,0 179.5115,-36"/>
<text text-anchor="middle" x="140.5095" y="-15" font-family="Helvetica,sans-Serif" font-size="10.00" fill="#000000">mysqlStore</text>
</g>
<!-- A7&#45;&gt;A9 -->
<g id="edge8" class="edge">
<title>A7&#45;&gt;A9</title>
<path fill="none" stroke="#000000" d="M106.1958,-77.0195C113.9208,-63.7325 123.0301,-48.0645 129.9211,-36.2121"/>
<polygon fill="none" stroke="#000000" points="103.1137,-75.3573 101.1132,-85.7616 109.1652,-78.8757 103.1137,-75.3573"/>
</g>
</g>
</svg>
