<?xml version="1.0" encoding="UTF-8" standalone="no"?>
<!DOCTYPE svg PUBLIC "-//W3C//DTD SVG 1.1//EN"
 "http://www.w3.org/Graphics/SVG/1.1/DTD/svg11.dtd">
<!-- Generated by graphviz version 2.40.1 (20161225.0304)
 -->
<!-- Title: G Pages: 1 -->
<svg width="731pt" height="546pt"
 viewBox="0.00 0.00 730.74 546.00" xmlns="http://www.w3.org/2000/svg" xmlns:xlink="http://www.w3.org/1999/xlink">
<g id="graph0" class="graph" transform="scale(1 1) rotate(0) translate(4 542)">
<title>G</title>
<polygon fill="#ffffff" stroke="transparent" points="-4,4 -4,-542 726.741,-542 726.741,4 -4,4"/>
<!-- A0 -->
<g id="node1" class="node">
<title>A0</title>
<polygon fill="#fff8dc" stroke="#000000" points="184.3674,-538 70.9766,-538 70.9766,-502 190.3674,-502 190.3674,-532 184.3674,-538"/>
<polyline fill="none" stroke="#000000" points="184.3674,-538 184.3674,-532 "/>
<polyline fill="none" stroke="#000000" points="190.3674,-532 184.3674,-532 "/>
<text text-anchor="middle" x="130.672" y="-523" font-family="Helvetica,sans-Serif" font-size="10.00" fill="#000000">Venus gatewat class</text>
<text text-anchor="middle" x="130.672" y="-511" font-family="Helvetica,sans-Serif" font-size="10.00" fill="#000000">diagram</text>
</g>
<!-- A1 -->
<g id="node2" class="node">
<title>A1</title>
<polygon fill="none" stroke="#000000" points="304.4722,-538 208.8718,-538 208.8718,-502 304.4722,-502 304.4722,-538"/>
<text text-anchor="middle" x="256.672" y="-517" font-family="Helvetica,sans-Serif" font-size="10.00" fill="#000000">VenusGateway</text>
</g>
<!-- A2 -->
<g id="node3" class="node">
<title>A2</title>
<polygon fill="none" stroke="#000000" points="298.2441,-452 215.0999,-452 215.0999,-416 298.2441,-416 298.2441,-452"/>
<text text-anchor="middle" x="256.672" y="-431" font-family="Helvetica,sans-Serif" font-size="10.00" fill="#000000">GatewayAPI</text>
</g>
<!-- A1&#45;&gt;A2 -->
<g id="edge1" class="edge">
<title>A1&#45;&gt;A2</title>
<path fill="none" stroke="#000000" d="M256.672,-489.5205C256.672,-477.0493 256.672,-463.0388 256.672,-452.2121"/>
<polygon fill="#000000" stroke="#000000" points="256.6721,-489.7616 260.672,-495.7616 256.672,-501.7616 252.672,-495.7616 256.6721,-489.7616"/>
</g>
<!-- A3 -->
<g id="node4" class="node">
<title>A3</title>
<polygon fill="none" stroke="#000000" points="83.672,-334 83.672,-366 186.672,-366 186.672,-334 83.672,-334"/>
<text text-anchor="start" x="94.3295" y="-347" font-family="Helvetica,sans-Serif" font-size="10.00" fill="#000000">ProofEventStream</text>
<polygon fill="none" stroke="#000000" points="83.672,-290 83.672,-334 186.672,-334 186.672,-290 83.672,-290"/>
<text text-anchor="start" x="93.4995" y="-315" font-family="Helvetica,sans-Serif" font-size="10.00" fill="#000000">minerConnections,</text>
<text text-anchor="start" x="112.667" y="-303" font-family="Helvetica,sans-Serif" font-size="10.00" fill="#000000">authClient</text>
<polygon fill="none" stroke="#000000" points="83.672,-258 83.672,-290 186.672,-290 186.672,-258 83.672,-258"/>
<text text-anchor="start" x="102.943" y="-271" font-family="Helvetica,sans-Serif" font-size="10.00" fill="#000000">ComputeProof</text>
</g>
<!-- A2&#45;&gt;A3 -->
<g id="edge2" class="edge">
<title>A2&#45;&gt;A3</title>
<path fill="none" stroke="#000000" d="M229.9185,-407.2465C219.1035,-396.4315 206.1639,-383.4919 193.3603,-370.6883"/>
<polygon fill="none" stroke="#000000" points="230.1852,-407.5132 237.2563,-408.9274 238.6705,-415.9985 231.5994,-414.5843 230.1852,-407.5132"/>
<polygon fill="#000000" stroke="#000000" points="186.2756,-363.6036 196.5287,-367.4927 189.8111,-367.1391 193.3467,-370.6747 193.3467,-370.6747 193.3467,-370.6747 189.8111,-367.1391 190.1647,-373.8567 186.2756,-363.6036 186.2756,-363.6036"/>
</g>
<!-- A4 -->
<g id="node5" class="node">
<title>A4</title>
<polygon fill="none" stroke="#000000" points="204.672,-334 204.672,-366 309.672,-366 309.672,-334 204.672,-334"/>
<text text-anchor="start" x="214.39" y="-347" font-family="Helvetica,sans-Serif" font-size="10.00" fill="#000000">WalletEventStream</text>
<polygon fill="none" stroke="#000000" points="204.672,-290 204.672,-334 309.672,-334 309.672,-290 204.672,-290"/>
<text text-anchor="start" x="215.4995" y="-315" font-family="Helvetica,sans-Serif" font-size="10.00" fill="#000000">minerConnections,</text>
<text text-anchor="start" x="234.667" y="-303" font-family="Helvetica,sans-Serif" font-size="10.00" fill="#000000">authClient</text>
<polygon fill="none" stroke="#000000" points="204.672,-258 204.672,-290 309.672,-290 309.672,-258 204.672,-258"/>
<text text-anchor="start" x="224.943" y="-271" font-family="Helvetica,sans-Serif" font-size="10.00" fill="#000000">ComputeProof</text>
</g>
<!-- A2&#45;&gt;A4 -->
<g id="edge3" class="edge">
<title>A2&#45;&gt;A4</title>
<path fill="none" stroke="#000000" d="M256.672,-403.6461C256.672,-395.1875 256.672,-385.6669 256.672,-376.045"/>
<polygon fill="none" stroke="#000000" points="256.6721,-403.9985 260.672,-409.9985 256.672,-415.9985 252.672,-409.9984 256.6721,-403.9985"/>
<polygon fill="#000000" stroke="#000000" points="256.672,-366.0215 261.1721,-376.0215 256.672,-371.0215 256.6721,-376.0215 256.6721,-376.0215 256.6721,-376.0215 256.672,-371.0215 252.1721,-376.0216 256.672,-366.0215 256.672,-366.0215"/>
</g>
<!-- A5 -->
<g id="node6" class="node">
<title>A5</title>
<polygon fill="none" stroke="#000000" points="327.672,-328 327.672,-360 430.672,-360 430.672,-328 327.672,-328"/>
<text text-anchor="start" x="362.4955" y="-341" font-family="Helvetica,sans-Serif" font-size="10.00" fill="#000000">auth.go</text>
<polygon fill="none" stroke="#000000" points="327.672,-296 327.672,-328 430.672,-328 430.672,-296 327.672,-296"/>
<text text-anchor="start" x="363.613" y="-309" font-family="Helvetica,sans-Serif" font-size="10.00" fill="#000000">seckey</text>
<polygon fill="none" stroke="#000000" points="327.672,-264 327.672,-296 430.672,-296 430.672,-264 327.672,-264"/>
<text text-anchor="start" x="337.499" y="-277" font-family="Helvetica,sans-Serif" font-size="10.00" fill="#000000">MakeToken, Verify</text>
</g>
<!-- A2&#45;&gt;A5 -->
<g id="edge4" class="edge">
<title>A2&#45;&gt;A5</title>
<path fill="none" stroke="#000000" stroke-dasharray="5,2" d="M274.6735,-415.9985C287.5488,-403.1232 305.624,-385.048 323.1002,-367.5718"/>
<polygon fill="#000000" stroke="#000000" points="330.5365,-360.1355 326.6474,-370.3886 327.0009,-363.6711 323.4654,-367.2066 323.4654,-367.2066 323.4654,-367.2066 327.0009,-363.6711 320.2834,-364.0246 330.5365,-360.1355 330.5365,-360.1355"/>
<text text-anchor="middle" x="281.5139" y="-394.2046" font-family="Helvetica,sans-Serif" font-size="10.00" fill="#000000">uses</text>
</g>
<!-- A7 -->
<g id="node8" class="node">
<title>A7</title>
<polygon fill="none" stroke="#000000" points="303.8396,-208 209.5044,-208 209.5044,-172 303.8396,-172 303.8396,-208"/>
<text text-anchor="middle" x="256.672" y="-187" font-family="Helvetica,sans-Serif" font-size="10.00" fill="#000000">walletConnMgr</text>
</g>
<!-- A4&#45;&gt;A7 -->
<g id="edge14" class="edge">
<title>A4&#45;&gt;A7</title>
<path fill="none" stroke="#000000" stroke-dasharray="5,2" d="M256.672,-245.6188C256.672,-236.0165 256.672,-226.5934 256.672,-218.3112"/>
<polygon fill="none" stroke="#000000" points="256.6721,-245.7785 260.672,-251.7786 256.672,-257.7785 252.672,-251.7785 256.6721,-245.7785"/>
<polygon fill="#000000" stroke="#000000" points="256.672,-208.1617 261.1721,-218.1616 256.672,-213.1617 256.6721,-218.1617 256.6721,-218.1617 256.6721,-218.1617 256.672,-213.1617 252.1721,-218.1617 256.672,-208.1617 256.672,-208.1617"/>
</g>
<!-- A6 -->
<g id="node7" class="node">
<title>A6</title>
<polygon fill="none" stroke="#000000" points="431.4283,-208 325.9157,-208 325.9157,-172 431.4283,-172 431.4283,-208"/>
<text text-anchor="middle" x="378.672" y="-187" font-family="Helvetica,sans-Serif" font-size="10.00" fill="#000000">vanus&#45;auth/auth2</text>
</g>
<!-- A5&#45;&gt;A6 -->
<g id="edge5" class="edge">
<title>A5&#45;&gt;A6</title>
<path fill="none" stroke="#000000" stroke-dasharray="5,2" d="M378.672,-263.7824C378.672,-248.3314 378.672,-231.7348 378.672,-218.2027"/>
<polygon fill="#000000" stroke="#000000" points="378.672,-208.0877 383.1721,-218.0877 378.672,-213.0877 378.6721,-218.0877 378.6721,-218.0877 378.6721,-218.0877 378.672,-213.0877 374.1721,-218.0877 378.672,-208.0877 378.672,-208.0877"/>
<text text-anchor="middle" x="370.2196" y="-242.6562" font-family="Helvetica,sans-Serif" font-size="10.00" fill="#000000">uses</text>
</g>
<!-- A8 -->
<g id="node9" class="node">
<title>A8</title>
<polygon fill="none" stroke="#000000" points="229.636,-122 121.708,-122 121.708,-86 229.636,-86 229.636,-122"/>
<text text-anchor="middle" x="175.672" y="-101" font-family="Helvetica,sans-Serif" font-size="10.00" fill="#000000">walletChannelInfo</text>
</g>
<!-- A7&#45;&gt;A8 -->
<g id="edge6" class="edge">
<title>A7&#45;&gt;A8</title>
<path fill="none" stroke="#000000" stroke-dasharray="5,2" d="M239.494,-171.7616C228.0032,-159.5615 212.7129,-143.3273 199.9792,-129.8076"/>
<polygon fill="#000000" stroke="#000000" points="192.8253,-122.2121 202.9574,-126.4063 196.2534,-125.8519 199.6816,-129.4916 199.6816,-129.4916 199.6816,-129.4916 196.2534,-125.8519 196.4058,-132.577 192.8253,-122.2121 192.8253,-122.2121"/>
<text text-anchor="middle" x="220.9133" y="-161.3618" font-family="Helvetica,sans-Serif" font-size="10.00" fill="#000000">uses</text>
</g>
<!-- A9 -->
<g id="node10" class="node">
<title>A9</title>
<polygon fill="none" stroke="#000000" points="507.1234,-122 434.2206,-122 434.2206,-86 507.1234,-86 507.1234,-122"/>
<text text-anchor="middle" x="470.672" y="-101" font-family="Helvetica,sans-Serif" font-size="10.00" fill="#000000">WalletInfo</text>
</g>
<!-- A7&#45;&gt;A9 -->
<g id="edge7" class="edge">
<title>A7&#45;&gt;A9</title>
<path fill="none" stroke="#000000" stroke-dasharray="5,2" d="M313.0572,-167.3405C348.0077,-153.295 392.3198,-135.4873 425.0522,-122.3332"/>
<polygon fill="none" stroke="#000000" points="312.6679,-167.4969 308.5922,-173.4458 301.5334,-171.9716 305.6091,-166.0227 312.6679,-167.4969"/>
<polygon fill="#000000" stroke="#000000" points="434.3869,-118.5819 426.7861,-126.4862 429.7475,-120.4463 425.1081,-122.3108 425.1081,-122.3108 425.1081,-122.3108 429.7475,-120.4463 423.4301,-118.1353 434.3869,-118.5819 434.3869,-118.5819"/>
</g>
<!-- A10 -->
<g id="node11" class="node">
<title>A10</title>
<polygon fill="none" stroke="#000000" points="71.5168,-36 -.1728,-36 -.1728,0 71.5168,0 71.5168,-36"/>
<text text-anchor="middle" x="35.672" y="-15" font-family="Helvetica,sans-Serif" font-size="10.00" fill="#000000">signBytes</text>
</g>
<!-- A8&#45;&gt;A10 -->
<g id="edge8" class="edge">
<title>A8&#45;&gt;A10</title>
<path fill="none" stroke="#000000" stroke-dasharray="5,2" d="M146.3234,-85.9716C125.2296,-73.014 96.5992,-55.4267 73.7462,-41.3884"/>
<polygon fill="#000000" stroke="#000000" points="64.9819,-36.0047 75.8581,-37.4046 69.2423,-38.6218 73.5027,-41.2389 73.5027,-41.2389 73.5027,-41.2389 69.2423,-38.6218 71.1473,-45.0733 64.9819,-36.0047 64.9819,-36.0047"/>
<text text-anchor="middle" x="126.4544" y="-80.6861" font-family="Helvetica,sans-Serif" font-size="10.00" fill="#000000">uses</text>
</g>
<!-- A11 -->
<g id="node12" class="node">
<title>A11</title>
<polygon fill="none" stroke="#000000" points="164.4044,-36 88.9396,-36 88.9396,0 164.4044,0 164.4044,-36"/>
<text text-anchor="middle" x="126.672" y="-15" font-family="Helvetica,sans-Serif" font-size="10.00" fill="#000000">addrs map</text>
</g>
<!-- A8&#45;&gt;A11 -->
<g id="edge9" class="edge">
<title>A8&#45;&gt;A11</title>
<path fill="none" stroke="#000000" stroke-dasharray="5,2" d="M165.2804,-85.7616C158.524,-73.9036 149.5963,-58.2345 142.0278,-44.951"/>
<polygon fill="#000000" stroke="#000000" points="137.0487,-36.2121 145.9091,-42.673 139.5239,-40.5564 141.9992,-44.9008 141.9992,-44.9008 141.9992,-44.9008 139.5239,-40.5564 138.0893,-47.1285 137.0487,-36.2121 137.0487,-36.2121"/>
<text text-anchor="middle" x="148.963" y="-71.1968" font-family="Helvetica,sans-Serif" font-size="10.00" fill="#000000">uses</text>
</g>
<!-- A12 -->
<g id="node13" class="node">
<title>A12</title>
<polygon fill="none" stroke="#000000" points="264.5811,-36 182.7629,-36 182.7629,0 264.5811,0 264.5811,-36"/>
<text text-anchor="middle" x="223.672" y="-15" font-family="Helvetica,sans-Serif" font-size="10.00" fill="#000000">ChannelInfo</text>
</g>
<!-- A8&#45;&gt;A12 -->
<g id="edge10" class="edge">
<title>A8&#45;&gt;A12</title>
<path fill="none" stroke="#000000" stroke-dasharray="5,2" d="M185.8516,-85.7616C192.47,-73.9036 201.2155,-58.2345 208.6296,-44.951"/>
<polygon fill="#000000" stroke="#000000" points="213.5071,-36.2121 212.5628,-47.1373 211.0703,-40.5781 208.6334,-44.9441 208.6334,-44.9441 208.6334,-44.9441 211.0703,-40.5781 204.704,-42.7509 213.5071,-36.2121 213.5071,-36.2121"/>
</g>
<!-- A13 -->
<g id="node14" class="node">
<title>A13</title>
<polygon fill="none" stroke="#000000" points="490.7674,-36 282.5766,-36 282.5766,0 490.7674,0 490.7674,-36"/>
<text text-anchor="middle" x="386.672" y="-15" font-family="Helvetica,sans-Serif" font-size="10.00" fill="#000000">connections:map(uuid)walletChannelInfo</text>
</g>
<!-- A9&#45;&gt;A13 -->
<g id="edge11" class="edge">
<title>A9&#45;&gt;A13</title>
<path fill="none" stroke="#000000" stroke-dasharray="5,2" d="M452.8578,-85.7616C440.83,-73.4475 424.788,-57.0235 411.5099,-43.4293"/>
<polygon fill="#000000" stroke="#000000" points="404.4606,-36.2121 414.6672,-40.2215 407.9543,-39.789 411.448,-43.3659 411.448,-43.3659 411.448,-43.3659 407.9543,-39.789 408.2288,-46.5102 404.4606,-36.2121 404.4606,-36.2121"/>
</g>
<!-- A14 -->
<g id="node15" class="node">
<title>A14</title>
<polygon fill="none" stroke="#000000" points="600.5711,-36 508.7729,-36 508.7729,0 600.5711,0 600.5711,-36"/>
<text text-anchor="middle" x="554.672" y="-15" font-family="Helvetica,sans-Serif" font-size="10.00" fill="#000000">WalletAccount</text>
</g>
<!-- A9&#45;&gt;A14 -->
<g id="edge12" class="edge">
<title>A9&#45;&gt;A14</title>
<path fill="none" stroke="#000000" stroke-dasharray="5,2" d="M488.4862,-85.7616C500.514,-73.4475 516.556,-57.0235 529.8341,-43.4293"/>
<polygon fill="#000000" stroke="#000000" points="536.8834,-36.2121 533.1152,-46.5102 533.3897,-39.789 529.896,-43.3659 529.896,-43.3659 529.896,-43.3659 533.3897,-39.789 526.6768,-40.2215 536.8834,-36.2121 536.8834,-36.2121"/>
</g>
<!-- A15 -->
<g id="node16" class="node">
<title>A15</title>
<polygon fill="none" stroke="#000000" points="722.8101,-36 618.5339,-36 618.5339,0 722.8101,0 722.8101,-36"/>
<text text-anchor="middle" x="670.672" y="-15" font-family="Helvetica,sans-Serif" font-size="10.00" fill="#000000">SupportAccounts</text>
</g>
<!-- A9&#45;&gt;A15 -->
<g id="edge13" class="edge">
<title>A9&#45;&gt;A15</title>
<path fill="none" stroke="#000000" stroke-dasharray="5,2" d="M507.3551,-88.2263C538.6911,-74.7518 584.1184,-55.218 619.1117,-40.1709"/>
<polygon fill="#000000" stroke="#000000" points="628.6845,-36.0546 621.2755,-44.139 624.0912,-38.0298 619.4978,-40.005 619.4978,-40.005 619.4978,-40.005 624.0912,-38.0298 617.7202,-35.8709 628.6845,-36.0546 628.6845,-36.0546"/>
</g>
</g>
</svg>
