<?xml version="1.0" encoding="UTF-8" standalone="no"?>
<!DOCTYPE svg PUBLIC "-//W3C//DTD SVG 1.1//EN"
 "http://www.w3.org/Graphics/SVG/1.1/DTD/svg11.dtd">
<!-- Generated by graphviz version 2.40.1 (20161225.0304)
 -->
<!-- Title: G Pages: 1 -->
<svg width="355pt" height="440pt"
 viewBox="0.00 0.00 354.59 440.00" xmlns="http://www.w3.org/2000/svg" xmlns:xlink="http://www.w3.org/1999/xlink">
<g id="graph0" class="graph" transform="scale(1 1) rotate(0) translate(4 436)">
<title>G</title>
<polygon fill="#ffffff" stroke="transparent" points="-4,4 -4,-436 350.5882,-436 350.5882,4 -4,4"/>
<!-- A0 -->
<g id="node1" class="node">
<title>A0</title>
<g transform="translate(72.3127,-42)" style="fill:none;stroke:black;stroke-width:1px"><circle cx="0" cy="-20" r="7.5" />
                <line x1="0" y1="-12.5" x2="0" y2="5" />
                <line x1="-15" y1="-5" x2="15" y2="-5" />
                <line x1="0" y1="5" x2="-15" y2="17" />
                <line x1="0" y1="5" x2="15" y2="17" /></g>
<text text-anchor="middle" x="72.3127" y="-17" font-family="Helvetica,sans-Serif" font-size="10.00" fill="#000000">Proof Event client</text>
</g>
<!-- A1 -->
<g id="node2" class="node">
<title>A1</title>
<ellipse fill="none" stroke="#000000" cx="270.6068" cy="-72" rx="62.7421" ry="18"/>
<text text-anchor="middle" x="270.6068" y="-69" font-family="Helvetica,sans-Serif" font-size="10.00" fill="#000000">ListenProofEvent</text>
</g>
<!-- A0&#45;&gt;A1 -->
<g id="edge1" class="edge">
<title>A0&#45;&gt;A1</title>
<path fill="none" stroke="#000000" d="M140.8319,-54.3297C164.6763,-57.5764 191.1414,-61.1799 213.92,-64.2815"/>
</g>
<!-- A2 -->
<g id="node3" class="node">
<title>A2</title>
<ellipse fill="none" stroke="#000000" cx="270.6068" cy="-18" rx="73.798" ry="18"/>
<text text-anchor="middle" x="270.6068" y="-15" font-family="Helvetica,sans-Serif" font-size="10.00" fill="#000000">ResponseProofEvent</text>
</g>
<!-- A0&#45;&gt;A2 -->
<g id="edge2" class="edge">
<title>A0&#45;&gt;A2</title>
<path fill="none" stroke="#000000" d="M140.8319,-35.6703C161.9896,-32.7895 185.2107,-29.6276 206.0888,-26.7849"/>
</g>
<!-- A3 -->
<g id="node4" class="node">
<title>A3</title>
<g transform="translate(72.3127,-177)" style="fill:none;stroke:black;stroke-width:1px"><circle cx="0" cy="-20" r="7.5" />
                <line x1="0" y1="-12.5" x2="0" y2="5" />
                <line x1="-15" y1="-5" x2="15" y2="-5" />
                <line x1="0" y1="5" x2="-15" y2="17" />
                <line x1="0" y1="5" x2="15" y2="17" /></g>
<text text-anchor="middle" x="72.3127" y="-152" font-family="Helvetica,sans-Serif" font-size="10.00" fill="#000000">Wallet Event client</text>
</g>
<!-- A4 -->
<g id="node5" class="node">
<title>A4</title>
<ellipse fill="none" stroke="#000000" cx="270.6068" cy="-234" rx="64.907" ry="18"/>
<text text-anchor="middle" x="270.6068" y="-231" font-family="Helvetica,sans-Serif" font-size="10.00" fill="#000000">ListenWalletEvent</text>
</g>
<!-- A3&#45;&gt;A4 -->
<g id="edge3" class="edge">
<title>A3&#45;&gt;A4</title>
<path fill="none" stroke="#000000" d="M142.7821,-199.1904C169.8327,-206.5569 199.9993,-214.772 224.231,-221.3708"/>
</g>
<!-- A5 -->
<g id="node6" class="node">
<title>A5</title>
<ellipse fill="none" stroke="#000000" cx="270.6068" cy="-180" rx="75.9629" ry="18"/>
<text text-anchor="middle" x="270.6068" y="-177" font-family="Helvetica,sans-Serif" font-size="10.00" fill="#000000">ResponseWalletEvent</text>
</g>
<!-- A3&#45;&gt;A5 -->
<g id="edge4" class="edge">
<title>A3&#45;&gt;A5</title>
<path fill="none" stroke="#000000" d="M142.7821,-180C159.48,-180 177.3652,-180 194.3089,-180"/>
</g>
<!-- A6 -->
<g id="node7" class="node">
<title>A6</title>
<ellipse fill="none" stroke="#000000" cx="270.6068" cy="-126" rx="71.781" ry="18"/>
<text text-anchor="middle" x="270.6068" y="-123" font-family="Helvetica,sans-Serif" font-size="10.00" fill="#000000">SupportNewAccount</text>
</g>
<!-- A3&#45;&gt;A6 -->
<g id="edge5" class="edge">
<title>A3&#45;&gt;A6</title>
<path fill="none" stroke="#000000" d="M142.7821,-160.8096C168.9421,-153.6856 198.0164,-145.768 221.8188,-139.2861"/>
</g>
<!-- A7 -->
<g id="node8" class="node">
<title>A7</title>
<g transform="translate(72.3127,-339)" style="fill:none;stroke:black;stroke-width:1px"><circle cx="0" cy="-20" r="7.5" />
                <line x1="0" y1="-12.5" x2="0" y2="5" />
                <line x1="-15" y1="-5" x2="15" y2="-5" />
                <line x1="0" y1="5" x2="-15" y2="17" />
                <line x1="0" y1="5" x2="15" y2="17" /></g>
<text text-anchor="middle" x="72.3127" y="-314" font-family="Helvetica,sans-Serif" font-size="10.00" fill="#000000">Server</text>
</g>
<!-- A8 -->
<g id="node9" class="node">
<title>A8</title>
<ellipse fill="none" stroke="#000000" cx="270.6068" cy="-396" rx="69.7749" ry="18"/>
<text text-anchor="middle" x="270.6068" y="-393" font-family="Helvetica,sans-Serif" font-size="10.00" fill="#000000">SendComputeProof</text>
</g>
<!-- A7&#45;&gt;A8 -->
<g id="edge6" class="edge">
<title>A7&#45;&gt;A8</title>
<path fill="none" stroke="#000000" d="M116.3206,-353.9844C147.8121,-362.5602 190.1856,-374.0995 222.5579,-382.9152"/>
</g>
<!-- A9 -->
<g id="node10" class="node">
<title>A9</title>
<ellipse fill="none" stroke="#000000" cx="270.6068" cy="-342" rx="45.6389" ry="18"/>
<text text-anchor="middle" x="270.6068" y="-339" font-family="Helvetica,sans-Serif" font-size="10.00" fill="#000000">WalletSign</text>
</g>
<!-- A7&#45;&gt;A9 -->
<g id="edge7" class="edge">
<title>A7&#45;&gt;A9</title>
<path fill="none" stroke="#000000" d="M116.3206,-342C148.6108,-342 192.342,-342 225.0013,-342"/>
</g>
<!-- A10 -->
<g id="node11" class="node">
<title>A10</title>
<ellipse fill="none" stroke="#000000" cx="270.6068" cy="-288" rx="44.4604" ry="18"/>
<text text-anchor="middle" x="270.6068" y="-285" font-family="Helvetica,sans-Serif" font-size="10.00" fill="#000000">WalletHas</text>
</g>
<!-- A7&#45;&gt;A10 -->
<g id="edge8" class="edge">
<title>A7&#45;&gt;A10</title>
<path fill="none" stroke="#000000" d="M116.3206,-330.0156C151.5774,-320.4144 200.474,-307.0988 233.705,-298.0492"/>
</g>
<!-- A11 -->
<g id="node12" class="node">
<title>A11</title>
<ellipse fill="none" stroke="#000000" cx="72.3127" cy="-414" rx="72.1258" ry="18"/>
<text text-anchor="middle" x="72.3127" y="-411" font-family="Helvetica,sans-Serif" font-size="10.00" fill="#000000">venus&#45;authentication</text>
</g>
</g>
</svg>
