<?xml version="1.0" encoding="UTF-8" standalone="no"?>
<!DOCTYPE svg PUBLIC "-//W3C//DTD SVG 1.1//EN"
 "http://www.w3.org/Graphics/SVG/1.1/DTD/svg11.dtd">
<!-- Generated by graphviz version 2.40.1 (20161225.0304)
 -->
<!-- Title: G Pages: 1 -->
<svg width="321pt" height="606pt"
 viewBox="0.00 0.00 320.60 606.00" xmlns="http://www.w3.org/2000/svg" xmlns:xlink="http://www.w3.org/1999/xlink">
<g id="graph0" class="graph" transform="scale(1 1) rotate(0) translate(4 602)">
<title>G</title>
<polygon fill="#ffffff" stroke="transparent" points="-4,4 -4,-602 316.5975,-602 316.5975,4 -4,4"/>
<!-- A0 -->
<g id="node1" class="node">
<title>A0</title>
<ellipse fill="none" stroke="#000000" cx="184.364" cy="-587" rx="11" ry="11"/>
</g>
<!-- A1 -->
<g id="node2" class="node">
<title>A1</title>
<path fill="none" stroke="#000000" d="M223.9419,-540C223.9419,-540 144.7861,-540 144.7861,-540 138.7861,-540 132.7861,-534 132.7861,-528 132.7861,-528 132.7861,-516 132.7861,-516 132.7861,-510 138.7861,-504 144.7861,-504 144.7861,-504 223.9419,-504 223.9419,-504 229.9419,-504 235.9419,-510 235.9419,-516 235.9419,-516 235.9419,-528 235.9419,-528 235.9419,-534 229.9419,-540 223.9419,-540"/>
<text text-anchor="middle" x="184.364" y="-519" font-family="Helvetica,sans-Serif" font-size="10.00" fill="#000000">StartNodeEvents</text>
</g>
<!-- A0&#45;&gt;A1 -->
<g id="edge1" class="edge">
<title>A0&#45;&gt;A1</title>
<path fill="none" stroke="#000000" d="M184.364,-575.9736C184.364,-568.9446 184.364,-559.49 184.364,-550.4584"/>
<polygon fill="#000000" stroke="#000000" points="184.364,-540.2209 188.8641,-550.2209 184.364,-545.2209 184.3641,-550.2209 184.3641,-550.2209 184.3641,-550.2209 184.364,-545.2209 179.8641,-550.221 184.364,-540.2209 184.364,-540.2209"/>
</g>
<!-- A2 -->
<g id="node3" class="node">
<title>A2</title>
<path fill="none" stroke="#000000" d="M170.0061,-468C170.0061,-468 54.7219,-468 54.7219,-468 48.7219,-468 42.7219,-462 42.7219,-456 42.7219,-456 42.7219,-444 42.7219,-444 42.7219,-438 48.7219,-432 54.7219,-432 54.7219,-432 170.0061,-432 170.0061,-432 176.0061,-432 182.0061,-438 182.0061,-444 182.0061,-444 182.0061,-456 182.0061,-456 182.0061,-462 176.0061,-468 170.0061,-468"/>
<text text-anchor="middle" x="112.364" y="-447" font-family="Helvetica,sans-Serif" font-size="10.00" fill="#000000">listenHeadChangesOnce</text>
</g>
<!-- A1&#45;&gt;A2 -->
<g id="edge2" class="edge">
<title>A1&#45;&gt;A2</title>
<path fill="none" stroke="#000000" d="M166.1954,-503.8314C157.6488,-495.2848 147.3083,-484.9443 137.9838,-475.6198"/>
<polygon fill="#000000" stroke="#000000" points="130.7773,-468.4133 141.0304,-472.3024 134.3128,-471.9488 137.8484,-475.4844 137.8484,-475.4844 137.8484,-475.4844 134.3128,-471.9488 134.6664,-478.6664 130.7773,-468.4133 130.7773,-468.4133"/>
</g>
<!-- A9 -->
<g id="node10" class="node">
<title>A9</title>
<path fill="none" stroke="#000000" d="M300.832,-468C300.832,-468 211.896,-468 211.896,-468 205.896,-468 199.896,-462 199.896,-456 199.896,-456 199.896,-444 199.896,-444 199.896,-438 205.896,-432 211.896,-432 211.896,-432 300.832,-432 300.832,-432 306.832,-432 312.832,-438 312.832,-444 312.832,-444 312.832,-456 312.832,-456 312.832,-462 306.832,-468 300.832,-468"/>
<text text-anchor="middle" x="256.364" y="-447" font-family="Helvetica,sans-Serif" font-size="10.00" fill="#000000">StartPushMessage</text>
</g>
<!-- A1&#45;&gt;A9 -->
<g id="edge9" class="edge">
<title>A1&#45;&gt;A9</title>
<path fill="none" stroke="#000000" d="M202.5326,-503.8314C211.0792,-495.2848 221.4197,-484.9443 230.7442,-475.6198"/>
<polygon fill="#000000" stroke="#000000" points="237.9507,-468.4133 234.0616,-478.6664 234.4152,-471.9488 230.8796,-475.4844 230.8796,-475.4844 230.8796,-475.4844 234.4152,-471.9488 227.6976,-472.3024 237.9507,-468.4133 237.9507,-468.4133"/>
</g>
<!-- A3 -->
<g id="node4" class="node">
<title>A3</title>
<path fill="none" stroke="#000000" d="M159.6554,-396C159.6554,-396 65.0726,-396 65.0726,-396 59.0726,-396 53.0726,-390 53.0726,-384 53.0726,-384 53.0726,-372 53.0726,-372 53.0726,-366 59.0726,-360 65.0726,-360 65.0726,-360 159.6554,-360 159.6554,-360 165.6554,-360 171.6554,-366 171.6554,-372 171.6554,-372 171.6554,-384 171.6554,-384 171.6554,-390 165.6554,-396 159.6554,-396"/>
<text text-anchor="middle" x="112.364" y="-375" font-family="Helvetica,sans-Serif" font-size="10.00" fill="#000000">notifs &lt;&#45; ChainNotify</text>
</g>
<!-- A2&#45;&gt;A3 -->
<g id="edge3" class="edge">
<title>A2&#45;&gt;A3</title>
<path fill="none" stroke="#000000" d="M112.364,-431.8314C112.364,-424.131 112.364,-414.9743 112.364,-406.4166"/>
<polygon fill="#000000" stroke="#000000" points="112.364,-396.4133 116.8641,-406.4132 112.364,-401.4133 112.3641,-406.4133 112.3641,-406.4133 112.3641,-406.4133 112.364,-401.4133 107.8641,-406.4133 112.364,-396.4133 112.364,-396.4133"/>
</g>
<!-- A4 -->
<g id="node5" class="node">
<title>A4</title>
<path fill="none" stroke="#000000" d="M154.373,-324C154.373,-324 70.355,-324 70.355,-324 64.355,-324 58.355,-318 58.355,-312 58.355,-312 58.355,-300 58.355,-300 58.355,-294 64.355,-288 70.355,-288 70.355,-288 154.373,-288 154.373,-288 160.373,-288 166.373,-294 166.373,-300 166.373,-300 166.373,-312 166.373,-312 166.373,-318 160.373,-324 154.373,-324"/>
<text text-anchor="middle" x="112.364" y="-303" font-family="Helvetica,sans-Serif" font-size="10.00" fill="#000000">ProcessNewHead</text>
</g>
<!-- A3&#45;&gt;A4 -->
<g id="edge4" class="edge">
<title>A3&#45;&gt;A4</title>
<path fill="none" stroke="#000000" d="M112.364,-359.8314C112.364,-352.131 112.364,-342.9743 112.364,-334.4166"/>
<polygon fill="#000000" stroke="#000000" points="112.364,-324.4133 116.8641,-334.4132 112.364,-329.4133 112.3641,-334.4133 112.3641,-334.4133 112.3641,-334.4133 112.364,-329.4133 107.8641,-334.4133 112.364,-324.4133 112.364,-324.4133"/>
</g>
<!-- A5 -->
<g id="node6" class="node">
<title>A5</title>
<path fill="none" stroke="#000000" d="M152.7728,-252C152.7728,-252 71.9552,-252 71.9552,-252 65.9552,-252 59.9552,-246 59.9552,-240 59.9552,-240 59.9552,-228 59.9552,-228 59.9552,-222 65.9552,-216 71.9552,-216 71.9552,-216 152.7728,-216 152.7728,-216 158.7728,-216 164.7728,-222 164.7728,-228 164.7728,-228 164.7728,-240 164.7728,-240 164.7728,-246 158.7728,-252 152.7728,-252"/>
<text text-anchor="middle" x="112.364" y="-231" font-family="Helvetica,sans-Serif" font-size="10.00" fill="#000000">&lt;&#45;ms.headChans</text>
</g>
<!-- A4&#45;&gt;A5 -->
<g id="edge5" class="edge">
<title>A4&#45;&gt;A5</title>
<path fill="none" stroke="#000000" d="M112.364,-287.8314C112.364,-280.131 112.364,-270.9743 112.364,-262.4166"/>
<polygon fill="#000000" stroke="#000000" points="112.364,-252.4133 116.8641,-262.4132 112.364,-257.4133 112.3641,-262.4133 112.3641,-262.4133 112.3641,-262.4133 112.364,-257.4133 107.8641,-262.4133 112.364,-252.4133 112.364,-252.4133"/>
</g>
<!-- A6 -->
<g id="node7" class="node">
<title>A6</title>
<path fill="none" stroke="#000000" d="M169.396,-180C169.396,-180 55.332,-180 55.332,-180 49.332,-180 43.332,-174 43.332,-168 43.332,-168 43.332,-156 43.332,-156 43.332,-150 49.332,-144 55.332,-144 55.332,-144 169.396,-144 169.396,-144 175.396,-144 181.396,-150 181.396,-156 181.396,-156 181.396,-168 181.396,-168 181.396,-174 175.396,-180 169.396,-180"/>
<text text-anchor="middle" x="112.364" y="-159" font-family="Helvetica,sans-Serif" font-size="10.00" fill="#000000">doRefreshMessageState</text>
</g>
<!-- A5&#45;&gt;A6 -->
<g id="edge6" class="edge">
<title>A5&#45;&gt;A6</title>
<path fill="none" stroke="#000000" d="M112.364,-215.8314C112.364,-208.131 112.364,-198.9743 112.364,-190.4166"/>
<polygon fill="#000000" stroke="#000000" points="112.364,-180.4133 116.8641,-190.4132 112.364,-185.4133 112.3641,-190.4133 112.3641,-190.4133 112.3641,-190.4133 112.364,-185.4133 107.8641,-190.4133 112.364,-180.4133 112.364,-180.4133"/>
</g>
<!-- A7 -->
<g id="node8" class="node">
<title>A7</title>
<path fill="none" stroke="#000000" d="M212.5922,-108C212.5922,-108 12.1358,-108 12.1358,-108 6.1358,-108 .1358,-102 .1358,-96 .1358,-96 .1358,-84 .1358,-84 .1358,-78 6.1358,-72 12.1358,-72 12.1358,-72 212.5922,-72 212.5922,-72 218.5922,-72 224.5922,-78 224.5922,-84 224.5922,-84 224.5922,-96 224.5922,-96 224.5922,-102 218.5922,-108 212.5922,-108"/>
<text text-anchor="middle" x="112.364" y="-87" font-family="Helvetica,sans-Serif" font-size="10.00" fill="#000000">updateMessageState UpdateMessageByCid</text>
</g>
<!-- A6&#45;&gt;A7 -->
<g id="edge7" class="edge">
<title>A6&#45;&gt;A7</title>
<path fill="none" stroke="#000000" d="M112.364,-143.8314C112.364,-136.131 112.364,-126.9743 112.364,-118.4166"/>
<polygon fill="#000000" stroke="#000000" points="112.364,-108.4133 116.8641,-118.4132 112.364,-113.4133 112.3641,-118.4133 112.3641,-118.4133 112.3641,-118.4133 112.364,-113.4133 107.8641,-118.4133 112.364,-108.4133 112.364,-108.4133"/>
</g>
<!-- A8 -->
<g id="node9" class="node">
<title>A8</title>
<path fill="none" stroke="#000000" d="M141.9371,-36C141.9371,-36 82.7909,-36 82.7909,-36 76.7909,-36 70.7909,-30 70.7909,-24 70.7909,-24 70.7909,-12 70.7909,-12 70.7909,-6 76.7909,0 82.7909,0 82.7909,0 141.9371,0 141.9371,0 147.9371,0 153.9371,-6 153.9371,-12 153.9371,-12 153.9371,-24 153.9371,-24 153.9371,-30 147.9371,-36 141.9371,-36"/>
<text text-anchor="middle" x="112.364" y="-15" font-family="Helvetica,sans-Serif" font-size="10.00" fill="#000000">SetMessage</text>
</g>
<!-- A7&#45;&gt;A8 -->
<g id="edge8" class="edge">
<title>A7&#45;&gt;A8</title>
<path fill="none" stroke="#000000" d="M112.364,-71.8314C112.364,-64.131 112.364,-54.9743 112.364,-46.4166"/>
<polygon fill="#000000" stroke="#000000" points="112.364,-36.4133 116.8641,-46.4132 112.364,-41.4133 112.3641,-46.4133 112.3641,-46.4133 112.3641,-46.4133 112.364,-41.4133 107.8641,-46.4133 112.364,-36.4133 112.364,-36.4133"/>
</g>
</g>
</svg>
