<?xml version="1.0" encoding="UTF-8" standalone="no"?>
<!DOCTYPE svg PUBLIC "-//W3C//DTD SVG 1.1//EN"
 "http://www.w3.org/Graphics/SVG/1.1/DTD/svg11.dtd">
<!-- Generated by graphviz version 2.40.1 (20161225.0304)
 -->
<!-- Title: G Pages: 1 -->
<svg width="1051pt" height="170pt"
 viewBox="0.00 0.00 1050.99 170.00" xmlns="http://www.w3.org/2000/svg" xmlns:xlink="http://www.w3.org/1999/xlink">
<g id="graph0" class="graph" transform="scale(1 1) rotate(0) translate(4 166)">
<title>G</title>
<polygon fill="#ffffff" stroke="transparent" points="-4,4 -4,-166 1046.9875,-166 1046.9875,4 -4,4"/>
<!-- A0 -->
<g id="node1" class="node">
<title>A0</title>
<g transform="translate(57.9,-33)" style="fill:none;stroke:black;stroke-width:1px"><circle cx="0" cy="-20" r="7.5" />
                <line x1="0" y1="-12.5" x2="0" y2="5" />
                <line x1="-15" y1="-5" x2="15" y2="-5" />
                <line x1="0" y1="5" x2="-15" y2="17" />
                <line x1="0" y1="5" x2="15" y2="17" /></g>
<text text-anchor="middle" x="57.9" y="-8" font-family="Helvetica,sans-Serif" font-size="10.00" fill="#000000">venus&#45;sealer</text>
</g>
<!-- A1 -->
<g id="node2" class="node">
<title>A1</title>
<ellipse fill="none" stroke="#000000" cx="229.0848" cy="-36" rx="54.8669" ry="18"/>
<text text-anchor="middle" x="229.0848" y="-33" font-family="Helvetica,sans-Serif" font-size="10.00" fill="#000000">PushMessage</text>
</g>
<!-- A0&#45;&gt;A1 -->
<g id="edge1" class="edge">
<title>A0&#45;&gt;A1</title>
<path fill="none" stroke="#000000" d="M115.8554,-36C134.6726,-36 155.4862,-36 174.0818,-36"/>
</g>
<!-- A2 -->
<g id="node3" class="node">
<title>A2</title>
<ellipse fill="none" stroke="#000000" cx="464.0302" cy="-36" rx="61.6861" ry="22.7556"/>
<text text-anchor="middle" x="464.0302" y="-39" font-family="Helvetica,sans-Serif" font-size="10.00" fill="#000000">SetMessage</text>
<text text-anchor="middle" x="464.0302" y="-27" font-family="Helvetica,sans-Serif" font-size="10.00" fill="#000000">localstoarage</text>
</g>
<!-- A1&#45;&gt;A2 -->
<g id="edge2" class="edge">
<title>A1&#45;&gt;A2</title>
<path fill="none" stroke="#000000" stroke-dasharray="5,2" d="M284.169,-36C316.2647,-36 357.1135,-36 391.768,-36"/>
<polygon fill="#000000" stroke="#000000" points="401.8351,-36 391.8351,-40.5001 396.8351,-36 391.8351,-36.0001 391.8351,-36.0001 391.8351,-36.0001 396.8351,-36 391.835,-31.5001 401.8351,-36 401.8351,-36"/>
<text text-anchor="middle" x="343.8845" y="-39" font-family="Helvetica,sans-Serif" font-size="10.00" fill="#000000">&lt;&lt;include&gt;&gt;</text>
</g>
<!-- A3 -->
<g id="node4" class="node">
<title>A3</title>
<g transform="translate(57.9,-123)" style="fill:none;stroke:black;stroke-width:1px"><circle cx="0" cy="-20" r="7.5" />
                <line x1="0" y1="-12.5" x2="0" y2="5" />
                <line x1="-15" y1="-5" x2="15" y2="-5" />
                <line x1="0" y1="5" x2="-15" y2="17" />
                <line x1="0" y1="5" x2="15" y2="17" /></g>
<text text-anchor="middle" x="57.9" y="-98" font-family="Helvetica,sans-Serif" font-size="10.00" fill="#000000">service</text>
</g>
<!-- A4 -->
<g id="node5" class="node">
<title>A4</title>
<ellipse fill="none" stroke="#000000" cx="229.0848" cy="-126" rx="62.0703" ry="18"/>
<text text-anchor="middle" x="229.0848" y="-123" font-family="Helvetica,sans-Serif" font-size="10.00" fill="#000000">StartNodeEvents</text>
</g>
<!-- A3&#45;&gt;A4 -->
<g id="edge3" class="edge">
<title>A3&#45;&gt;A4</title>
<path fill="none" stroke="#000000" d="M103.3249,-126C122.739,-126 145.7187,-126 166.6891,-126"/>
</g>
<!-- A5 -->
<g id="node6" class="node">
<title>A5</title>
<ellipse fill="none" stroke="#000000" cx="464.0302" cy="-126" rx="67.7616" ry="18"/>
<text text-anchor="middle" x="464.0302" y="-123" font-family="Helvetica,sans-Serif" font-size="10.00" fill="#000000">StartPushMessage</text>
</g>
<!-- A4&#45;&gt;A5 -->
<g id="edge4" class="edge">
<title>A4&#45;&gt;A5</title>
<path fill="none" stroke="#000000" stroke-dasharray="5,2" d="M291.429,-126C320.3757,-126 355.098,-126 385.7855,-126"/>
<polygon fill="#000000" stroke="#000000" points="396.0237,-126 386.0238,-130.5001 391.0237,-126 386.0237,-126.0001 386.0237,-126.0001 386.0237,-126.0001 391.0237,-126 386.0237,-121.5001 396.0237,-126 396.0237,-126"/>
<text text-anchor="middle" x="343.8845" y="-129" font-family="Helvetica,sans-Serif" font-size="10.00" fill="#000000">&lt;&lt;include&gt;&gt;</text>
</g>
<!-- A6 -->
<g id="node7" class="node">
<title>A6</title>
<ellipse fill="none" stroke="#000000" cx="710.0035" cy="-126" rx="73.1259" ry="18"/>
<text text-anchor="middle" x="710.0035" y="-123" font-family="Helvetica,sans-Serif" font-size="10.00" fill="#000000">pushMessageToPool</text>
</g>
<!-- A5&#45;&gt;A6 -->
<g id="edge5" class="edge">
<title>A5&#45;&gt;A6</title>
<path fill="none" stroke="#000000" stroke-dasharray="5,2" d="M531.8946,-126C561.0235,-126 595.3539,-126 626.0611,-126"/>
<polygon fill="#000000" stroke="#000000" points="636.3232,-126 626.3233,-130.5001 631.3232,-126 626.3232,-126.0001 626.3232,-126.0001 626.3232,-126.0001 631.3232,-126 626.3232,-121.5001 636.3232,-126 636.3232,-126"/>
<text text-anchor="middle" x="584.1758" y="-129" font-family="Helvetica,sans-Serif" font-size="10.00" fill="#000000">&lt;&lt;include&gt;&gt;</text>
</g>
<!-- A7 -->
<g id="node8" class="node">
<title>A7</title>
<ellipse fill="none" stroke="#000000" cx="965.6669" cy="-126" rx="77.1416" ry="18"/>
<text text-anchor="middle" x="965.6669" y="-123" font-family="Helvetica,sans-Serif" font-size="10.00" fill="#000000">nodeClient.MpoolPush</text>
</g>
<!-- A6&#45;&gt;A7 -->
<g id="edge6" class="edge">
<title>A6&#45;&gt;A7</title>
<path fill="none" stroke="#000000" stroke-dasharray="5,2" d="M783.609,-126C813.0314,-126 847.1586,-126 877.8599,-126"/>
<polygon fill="#000000" stroke="#000000" points="888.1286,-126 878.1286,-130.5001 883.1286,-126 878.1286,-126.0001 878.1286,-126.0001 878.1286,-126.0001 883.1286,-126 878.1285,-121.5001 888.1286,-126 888.1286,-126"/>
<text text-anchor="middle" x="835.8312" y="-129" font-family="Helvetica,sans-Serif" font-size="10.00" fill="#000000">&lt;&lt;include&gt;&gt;</text>
</g>
</g>
</svg>
